<svg width="31" height="31" viewBox="0 0 31 31" fill="none" xmlns="http://www.w3.org/2000/svg">
<circle cx="15.5" cy="15.5" r="15.5" fill="#F1F1F1"/>
<path d="M13.181 9.62604L13.899 9.3967C14.571 9.18204 15.2896 9.52937 15.5776 10.208L16.151 11.56C16.401 12.1487 16.2623 12.8414 15.8083 13.272L14.5463 14.4707C14.6243 15.188 14.865 15.894 15.269 16.5887C15.6529 17.2608 16.1677 17.8491 16.783 18.3187L18.3003 17.812C18.875 17.6207 19.501 17.8414 19.8536 18.3594L20.675 19.566C21.0856 20.1687 21.0116 20.9994 20.503 21.51L19.9576 22.0574C19.415 22.602 18.6403 22.8 17.923 22.576C16.2303 22.048 14.6743 20.4807 13.2543 17.874C11.8323 15.2634 11.331 13.0474 11.749 11.2287C11.925 10.4634 12.4703 9.85337 13.1823 9.62604H13.181Z" fill="#05A93D"/>
</svg>
