<svg width="55" height="55" viewBox="0 0 55 55" fill="none" xmlns="http://www.w3.org/2000/svg">
<circle cx="27.6193" cy="27.9013" r="27.05" fill="#F67C01"/>
<path fill-rule="evenodd" clip-rule="evenodd" d="M27.2105 10.327C26.8176 10.4119 26.2524 10.6341 25.8899 10.8465C25.4728 11.0907 24.7971 11.7774 24.5901 12.1672C24.4318 12.4653 24.3986 12.4887 24.0692 12.5333C23.6272 12.5932 22.9623 12.831 22.531 13.0836C22.0503 13.3651 21.4312 14.0252 21.1629 14.5425L20.9298 14.9916L20.647 14.8841C20.2186 14.721 18.9361 14.7271 18.4429 14.8945C17.2101 15.3128 16.3242 16.1411 15.917 17.2565C15.7894 17.6059 15.74 17.6652 15.5178 17.7354C14.7512 17.978 13.8377 18.6998 13.4409 19.3765C12.9715 20.1767 12.7594 21.2485 12.91 22.0585L12.9814 22.4425L12.6662 22.8255C11.9386 23.7096 11.5991 24.9273 11.7913 25.9638L11.8618 26.3437L11.5434 26.7317C10.237 28.3238 10.3496 30.6027 11.8054 32.035C12.2298 32.4526 12.7722 32.7754 13.4129 32.9916C13.9479 33.1721 15.1163 33.1715 15.6485 32.9905C16.4579 32.7152 17.1269 32.2716 17.5488 31.7304L17.7861 31.426L18.2717 31.7326C19.4524 32.4782 20.9047 32.7525 22.2851 32.4909C22.6008 32.4311 22.8718 32.3946 22.8872 32.41C23.1128 32.6355 24.3202 34.4508 24.5224 34.8685C24.9731 35.7999 25.1128 36.4513 25.1063 37.5911C25.0961 39.4033 24.7657 40.1782 22.9951 42.5432C21.6995 44.2738 21.6439 44.3912 21.9678 44.7148L22.1392 44.8862H24.2575H26.3758L27.6846 44.3621L28.9933 43.8381L29.7781 44.3621L30.5629 44.8862H32.1559H33.7489L33.9203 44.7148C34.2442 44.3912 34.1886 44.2738 32.893 42.5432C31.1224 40.1782 30.792 39.4033 30.7817 37.5911C30.7752 36.4513 30.9149 35.7999 31.3657 34.8685C31.5679 34.4508 32.7753 32.6355 33.0009 32.41C33.0163 32.3946 33.2872 32.4311 33.603 32.4909C34.9834 32.7525 36.4356 32.4782 37.6164 31.7326L38.1019 31.426L38.3392 31.7304C38.996 32.5727 40.2336 33.1582 41.3574 33.1582C42.3503 33.1582 43.3887 32.7262 44.0968 32.0186C44.8802 31.2358 45.2326 30.3766 45.2326 29.2489C45.2326 28.2271 44.9783 27.5108 44.3402 26.7355L44.0244 26.3518L44.0958 25.9678C44.2892 24.928 43.9507 23.7112 43.2219 22.8255L42.9066 22.4425L42.978 22.0585C43.1271 21.2567 42.9164 20.1765 42.4587 19.396C42.0647 18.7243 41.2662 18.067 40.5084 17.7908C40.1286 17.6523 40.1081 17.6318 39.9695 17.2523C39.5639 16.1413 38.6761 15.3121 37.4451 14.8945C36.9519 14.7271 35.6695 14.721 35.2411 14.8841L34.9582 14.9916L34.7252 14.5425C34.4568 14.0252 33.8377 13.3651 33.3571 13.0836C32.9258 12.8311 32.2609 12.5932 31.819 12.5333C31.4864 12.4883 31.4568 12.4668 31.2703 12.1354C30.6729 11.0734 29.4302 10.3468 28.1187 10.2927C27.7729 10.2784 27.3642 10.2939 27.2105 10.327ZM27.2886 11.4508C26.8513 11.5606 26.2185 11.9327 25.9215 12.2545C25.7699 12.4189 25.5342 12.7752 25.3975 13.0463C25.1247 13.5876 25.1402 13.5788 24.3531 13.6404C23.1875 13.7316 22.1809 14.589 21.8706 15.7551C21.7111 16.3549 21.4284 16.4442 20.7269 16.1163C20.2675 15.9016 20.1674 15.8814 19.5607 15.8809C18.9599 15.8804 18.8528 15.9013 18.4303 16.1013C17.6042 16.4924 17.026 17.1977 16.8356 18.0466C16.7352 18.4942 16.6188 18.613 16.1899 18.7049C14.661 19.0325 13.681 20.6081 14.068 22.1165C14.2433 22.7997 14.2303 22.8506 13.7657 23.3007C12.9988 24.0435 12.6989 25.0461 12.9502 26.0258C13.1255 26.7091 13.1125 26.76 12.6479 27.21C12.3653 27.4838 12.1584 27.7685 12.0017 28.0992C11.7909 28.5439 11.7712 28.6429 11.7712 29.2525C11.7712 29.8818 11.7858 29.9489 12.0321 30.4468C12.3463 31.0822 12.7508 31.478 13.4003 31.7854C13.8224 31.9852 13.9305 32.0064 14.5307 32.0064C15.1309 32.0064 15.239 31.9852 15.661 31.7854C16.2571 31.5032 16.6876 31.105 16.971 30.5737C17.3694 29.8268 17.6387 29.7863 18.2966 30.3743C18.5115 30.5665 18.9389 30.8479 19.2463 30.9998C20.9631 31.8479 22.8845 31.5568 24.3224 30.231C24.9311 29.6697 25.008 29.6506 25.634 29.9047C26.4489 30.2356 26.9423 30.3255 27.944 30.3255C28.9458 30.3255 29.4392 30.2356 30.2541 29.9047C30.8812 29.6501 30.9599 29.6696 31.5566 30.2265C32.9769 31.5519 34.9246 31.848 36.6417 30.9998C36.9491 30.8479 37.3765 30.5665 37.5915 30.3743C38.2494 29.7863 38.5186 29.8268 38.917 30.5737C39.2005 31.105 39.631 31.5032 40.227 31.7854C40.649 31.9852 40.7572 32.0064 41.3574 32.0064C41.9575 32.0064 42.0657 31.9852 42.4877 31.7854C43.1372 31.478 43.5417 31.0822 43.8559 30.4468C44.1025 29.9484 44.1169 29.8824 44.1169 29.2489C44.1169 28.6159 44.1023 28.5491 43.8573 28.0535C43.6799 27.695 43.4751 27.4146 43.2111 27.169C42.7771 26.7655 42.7631 26.7069 42.9378 26.0258C43.1902 25.0422 42.8651 23.9776 42.0933 23.2597C41.6593 22.8562 41.6453 22.7976 41.8201 22.1165C42.207 20.6081 41.2271 19.0325 39.6982 18.7049C39.2693 18.613 39.1528 18.4942 39.0524 18.0466C38.8619 17.1972 38.283 16.4913 37.4577 16.1022C37.0427 15.9065 36.9214 15.8821 36.3623 15.8813C35.5845 15.8802 35.2248 15.9921 35.1707 16.2523C35.03 16.9285 34.579 17.5141 33.9671 17.8151C33.5649 18.013 33.4288 18.0444 32.9755 18.044C32.5558 18.0436 32.3715 18.0068 32.0598 17.8611C31.3748 17.5409 30.8798 16.8928 30.7721 16.1749L30.7226 15.8455L31.2719 15.8458L31.8213 15.8462L31.9261 16.1723C32.2067 17.0457 33.3054 17.2248 33.8673 16.4887C34.1237 16.1527 34.1038 15.8284 33.7873 15.1886C33.343 14.2903 32.5083 13.7166 31.535 13.6404C30.7478 13.5788 30.7727 13.5939 30.4562 12.9861C29.9427 11.9997 29.1334 11.4576 28.1011 11.4085C27.8034 11.3944 27.4377 11.4134 27.2886 11.4508ZM20.1488 21.7967C20.2123 22.2896 20.5318 22.9557 20.892 23.3461C21.0759 23.5455 21.3863 23.7646 21.7152 23.927C22.214 24.1733 22.28 24.1877 22.914 24.1877C23.548 24.1877 23.614 24.1733 24.1128 23.927C24.4417 23.7646 24.7521 23.5455 24.9361 23.3461C25.2962 22.9557 25.6158 22.2896 25.6793 21.7967L25.7265 21.4302H25.1586C24.6797 21.4302 24.5907 21.4481 24.5907 21.5443C24.5907 22.0721 24.0317 22.8118 23.4946 22.9947C22.8174 23.2252 22.271 23.0961 21.7589 22.5845C21.4316 22.2573 21.2374 21.87 21.2374 21.5443C21.2374 21.4481 21.1484 21.4302 20.6695 21.4302H20.1016L20.1488 21.7967ZM32.5866 23.277C32.4788 23.3847 32.4151 23.5281 32.4151 23.6632C32.4151 23.9762 32.2559 24.3075 32.0034 24.5198C31.3994 25.0276 30.4353 24.7276 30.232 23.9685L30.1506 23.6641H29.5983H29.0459L29.0954 23.9936C29.1509 24.3634 29.3857 24.8666 29.6481 25.1784C29.7443 25.2926 30.0212 25.4929 30.2633 25.6233C30.6664 25.8404 30.7537 25.8604 31.2974 25.8591C31.9072 25.8577 32.1839 25.7673 32.7086 25.398L32.8971 25.2652L33.19 25.5827C33.3714 25.7794 33.6837 25.9993 34.0108 26.1609C34.5096 26.4072 34.5756 26.4216 35.2096 26.4216C35.8436 26.4216 35.9096 26.4072 36.4084 26.1609C36.7373 25.9985 37.0477 25.7794 37.2316 25.58C37.5918 25.1896 37.9113 24.5235 37.9748 24.0306L38.0221 23.6641H37.4541C36.9753 23.6641 36.8862 23.682 36.8862 23.7782C36.8862 24.306 36.3272 25.0457 35.7901 25.2286C35.113 25.4591 34.5665 25.33 34.0545 24.8184C33.6943 24.4583 33.5329 24.1032 33.5329 23.6703C33.5329 23.3769 33.2644 23.1057 32.974 23.1057C32.8379 23.1057 32.6947 23.169 32.5866 23.277ZM14.5643 26.7859C14.6198 27.1558 14.8546 27.659 15.117 27.9707C15.2132 28.0849 15.4901 28.2852 15.7322 28.4157C16.1342 28.6323 16.2239 28.6529 16.7662 28.6529C17.3086 28.6529 17.3983 28.6323 17.8003 28.4157C18.0424 28.2852 18.3193 28.0849 18.4155 27.9707C18.6779 27.659 18.9127 27.1558 18.9682 26.7859L19.0177 26.4565H18.4653H17.913L17.8316 26.7609C17.6833 27.3147 17.1139 27.6542 16.5203 27.5429C16.1646 27.4762 15.799 27.1272 15.7009 26.7609L15.6195 26.4565H15.0672H14.5148L14.5643 26.7859ZM30.5234 31.0116C30.4789 31.0596 29.9669 32.0413 29.3854 33.1931C28.4802 34.9864 28.3007 35.2969 28.1361 35.3532C27.6832 35.5084 27.6467 35.4596 26.4769 33.1408C25.6318 31.4655 25.3651 30.9943 25.2622 30.9942C25.1896 30.9941 24.9977 31.1162 24.8358 31.2654C24.6738 31.4146 24.4111 31.611 24.2521 31.7017C24.0931 31.7925 23.9628 31.893 23.9625 31.925C23.9621 31.9571 24.2423 32.3812 24.5849 32.8675C24.9275 33.3537 25.32 33.9724 25.4571 34.2423C26.5054 36.3063 26.5212 38.7243 25.4999 40.8135C25.272 41.2799 24.8617 41.9136 24.3126 42.6477L23.4735 43.7692H24.821H26.1685L27.5598 43.2108C28.325 42.9036 29.0153 42.6524 29.0938 42.6524C29.1723 42.6524 29.6137 42.9037 30.0748 43.2108L30.9131 43.769L31.6639 43.7691L32.4146 43.7692L31.5755 42.6477C31.0263 41.9136 30.6161 41.2799 30.3881 40.8135C29.3908 38.7732 29.3806 36.4416 30.36 34.3737C30.4889 34.1015 30.8941 33.4517 31.2603 32.9296C31.6265 32.4075 31.9259 31.9548 31.9256 31.9236C31.9253 31.8923 31.7995 31.7951 31.6461 31.7076C31.4926 31.62 31.2089 31.4079 31.0155 31.2364C30.621 30.8862 30.634 30.8921 30.5234 31.0116ZM26.8961 31.4647C26.8961 31.5232 27.914 33.5073 27.944 33.5073C27.9741 33.5073 28.9919 31.5232 28.9919 31.4647C28.9919 31.4555 28.5204 31.4479 27.944 31.4479C27.3677 31.4479 26.8961 31.4555 26.8961 31.4647Z" fill="white"/>
</svg>
