<svg width="86" height="86" viewBox="0 0 86 86" fill="none" xmlns="http://www.w3.org/2000/svg">
<circle cx="43" cy="43" r="43" fill="#F67C01"/>
<path fill-rule="evenodd" clip-rule="evenodd" d="M42.3511 15.0631C41.7265 15.1979 40.8281 15.5512 40.2519 15.8888C39.5889 16.277 38.5146 17.3686 38.1856 17.9883C37.934 18.4622 37.8812 18.4993 37.3577 18.5703C36.6549 18.6655 35.598 19.0436 34.9123 19.445C34.1483 19.8925 33.1641 20.9418 32.7376 21.7642L32.3671 22.4781L31.9174 22.3071C31.2364 22.048 29.1978 22.0577 28.4138 22.3237C26.4541 22.9886 25.0458 24.3054 24.3985 26.0784C24.1957 26.6338 24.1171 26.7282 23.7639 26.8398C22.5453 27.2254 21.0931 28.3728 20.4622 29.4486C19.7162 30.7206 19.379 32.4244 19.6185 33.712L19.732 34.3224L19.2308 34.9313C18.0741 36.3367 17.5345 38.2723 17.84 39.92L17.9521 40.5239L17.446 41.1407C15.3692 43.6717 15.5482 47.2943 17.8625 49.5712C18.5371 50.235 19.3993 50.7481 20.4178 51.0917C21.2683 51.3787 23.1256 51.3778 23.9716 51.0901C25.2583 50.6524 26.3217 49.9472 26.9925 49.0869L27.3697 48.6031L28.1416 49.0905C30.0185 50.2756 32.3271 50.7118 34.5214 50.2958C35.0234 50.2007 35.4541 50.1428 35.4786 50.1672C35.8372 50.5257 37.7566 53.4114 38.078 54.0755C38.7945 55.556 39.0166 56.5915 39.0063 58.4034C38.9899 61.2841 38.4648 62.516 35.6501 66.2755C33.5906 69.0265 33.5022 69.2132 34.017 69.7276L34.2895 70H37.6569H41.0242L43.1047 69.1669L45.1851 68.334L46.4327 69.1669L47.6803 70H50.2126H52.7448L53.0174 69.7276C53.5322 69.2132 53.4438 69.0265 51.3843 66.2755C48.5696 62.516 48.0444 61.2841 48.0281 58.4034C48.0178 56.5915 48.2399 55.556 48.9564 54.0755C49.2778 53.4114 51.1972 50.5257 51.5558 50.1672C51.5803 50.1428 52.011 50.2007 52.513 50.2958C54.7073 50.7118 57.0159 50.2756 58.8928 49.0905L59.6646 48.6031L60.0419 49.0869C61.0859 50.4259 63.0533 51.3566 64.8397 51.3566C66.4181 51.3566 68.0688 50.6699 69.1945 49.5451C70.4398 48.3007 71 46.9348 71 45.1422C71 43.5179 70.5956 42.3793 69.5813 41.1467L69.0793 40.5368L69.1928 39.9265C69.5002 38.2734 68.9623 36.3392 67.8036 34.9313L67.3024 34.3224L67.4159 33.712C67.6529 32.4375 67.318 30.7203 66.5904 29.4795C65.9641 28.4117 64.6948 27.3669 63.4902 26.9278C62.8865 26.7076 62.8538 26.675 62.6335 26.0718C61.9887 24.3058 60.5774 22.9876 58.6206 22.3237C57.8366 22.0577 55.7979 22.048 55.117 22.3071L54.6673 22.4781L54.2968 21.7642C53.8703 20.9418 52.8861 19.8925 52.122 19.445C51.4365 19.0437 50.3795 18.6655 49.6771 18.5703C49.1483 18.4987 49.1012 18.4645 48.8048 17.9377C47.8552 16.2496 45.8797 15.0945 43.7948 15.0085C43.2451 14.9857 42.5954 15.0104 42.3511 15.0631ZM42.4753 16.8495C41.7801 17.0241 40.7743 17.6154 40.3022 18.1271C40.0612 18.3884 39.6864 18.9548 39.4691 19.3857C39.0355 20.2463 39.0601 20.2322 37.8089 20.3302C35.9559 20.4751 34.3558 21.8382 33.8627 23.6917C33.609 24.6452 33.1597 24.7872 32.0446 24.266C31.3143 23.9247 31.155 23.8926 30.1906 23.8918C29.2356 23.8911 29.0653 23.9242 28.3938 24.2422C27.0805 24.8638 26.1613 25.985 25.8587 27.3344C25.6991 28.0461 25.514 28.2348 24.8322 28.3809C22.4018 28.9018 20.8441 31.4064 21.4592 33.8042C21.7378 34.8903 21.7172 34.9712 20.9786 35.6866C19.7596 36.8675 19.2827 38.4612 19.6823 40.0187C19.9609 41.1048 19.9403 41.1857 19.2018 41.9011C18.7526 42.3363 18.4236 42.7889 18.1745 43.3146C17.8395 44.0215 17.808 44.1789 17.808 45.1479C17.808 46.1484 17.8314 46.255 18.2228 47.0465C18.7224 48.0565 19.3654 48.6856 20.3978 49.1744C21.0687 49.492 21.2406 49.5256 22.1947 49.5256C23.1488 49.5256 23.3207 49.492 23.9916 49.1744C24.9391 48.7258 25.6234 48.0928 26.0739 47.2482C26.7073 46.0608 27.1353 45.9964 28.1811 46.9312C28.5228 47.2367 29.2022 47.6841 29.6909 47.9255C32.4199 49.2737 35.4744 48.811 37.76 46.7033C38.7276 45.8111 38.8499 45.7807 39.8451 46.1848C41.1404 46.7108 41.9248 46.8536 43.5172 46.8536C45.1096 46.8536 45.894 46.7108 47.1893 46.1848C48.1863 45.78 48.3113 45.8109 49.2599 46.6962C51.5177 48.8031 54.6139 49.2739 57.3435 47.9255C57.8321 47.6841 58.5116 47.2367 58.8533 46.9312C59.8991 45.9964 60.3271 46.0608 60.9604 47.2482C61.411 48.0928 62.0953 48.7258 63.0428 49.1744C63.7137 49.492 63.8856 49.5256 64.8397 49.5256C65.7938 49.5256 65.9657 49.492 66.6366 49.1744C67.669 48.6856 68.312 48.0565 68.8116 47.0465C69.2035 46.2541 69.2263 46.1492 69.2263 45.1422C69.2263 44.136 69.2032 44.0298 68.8137 43.242C68.5317 42.672 68.2061 42.2263 67.7864 41.836C67.0965 41.1944 67.0743 41.1013 67.3521 40.0187C67.7532 38.455 67.2365 36.7626 66.0095 35.6215C65.3197 34.98 65.2975 34.8869 65.5752 33.8042C66.1903 31.4064 64.6326 28.9018 62.2021 28.3809C61.5204 28.2348 61.3352 28.0461 61.1757 27.3344C60.8728 25.9842 59.9525 24.8622 58.6406 24.2435C57.9809 23.9324 57.788 23.8936 56.8993 23.8924C55.6628 23.8906 55.0911 24.0686 55.0051 24.4822C54.7815 25.5571 54.0645 26.488 53.0918 26.9665C52.4524 27.281 52.236 27.331 51.5155 27.3303C50.8482 27.3298 50.5554 27.2713 50.0599 27.0397C48.9709 26.5306 48.184 25.5003 48.0128 24.3591L47.9342 23.8355L48.8074 23.836L49.6807 23.8366L49.8473 24.355C50.2934 25.7434 52.0399 26.028 52.9331 24.858C53.3408 24.3238 53.3091 23.8083 52.806 22.7912C52.0997 21.3632 50.7728 20.4512 49.2255 20.3302C47.9741 20.2322 48.0138 20.2563 47.5107 19.29C46.6944 17.722 45.4079 16.8603 43.767 16.7823C43.2936 16.7597 42.7124 16.79 42.4753 16.8495ZM31.1255 33.2959C31.2264 34.0793 31.7344 35.1382 32.3069 35.7589C32.5993 36.0758 33.0927 36.4241 33.6156 36.6822C34.4085 37.0738 34.5134 37.0967 35.5213 37.0967C36.5291 37.0967 36.634 37.0738 37.427 36.6822C37.9498 36.4241 38.4432 36.0758 38.7356 35.7589C39.3081 35.1382 39.8161 34.0793 39.917 33.2959L39.9921 32.7133H39.0893C38.3281 32.7133 38.1866 32.7417 38.1866 32.8946C38.1866 33.7335 37.2979 34.9095 36.4441 35.2001C35.3677 35.5667 34.499 35.3614 33.6851 34.5481C33.1648 34.0281 32.8559 33.4123 32.8559 32.8946C32.8559 32.7417 32.7145 32.7133 31.9532 32.7133H31.0504L31.1255 33.2959ZM50.8973 35.649C50.726 35.8201 50.6247 36.0482 50.6247 36.2629C50.6247 36.7604 50.3715 37.2871 49.9702 37.6246C49.0101 38.4319 47.4774 37.9549 47.1543 36.7482L47.0249 36.2644H46.1469H45.2689L45.3475 36.788C45.4357 37.376 45.8089 38.1759 46.2261 38.6715C46.3791 38.853 46.8192 39.1714 47.2041 39.3788C47.8448 39.7239 47.9836 39.7557 48.8478 39.7537C49.8172 39.7513 50.2571 39.6076 51.0911 39.0206L51.3909 38.8095L51.8564 39.3142C52.1448 39.6269 52.6412 39.9765 53.1612 40.2333C53.9541 40.6249 54.0591 40.6478 55.0669 40.6478C56.0747 40.6478 56.1796 40.6249 56.9726 40.2333C57.4954 39.9752 57.9888 39.6269 58.2812 39.31C58.8537 38.6893 59.3617 37.6304 59.4626 36.847L59.5377 36.2644H58.635C57.8737 36.2644 57.7322 36.2928 57.7322 36.4457C57.7322 37.2847 56.8435 38.4606 55.9897 38.7513C54.9133 39.1178 54.0446 38.9125 53.2307 38.0992C52.6581 37.5269 52.4016 36.9624 52.4016 36.2742C52.4016 35.8078 51.9747 35.3766 51.5131 35.3766C51.2968 35.3766 51.0691 35.4772 50.8973 35.649ZM22.2481 41.2269C22.3363 41.8149 22.7095 42.6148 23.1268 43.1104C23.2797 43.2919 23.7198 43.6103 24.1047 43.8177C24.7437 44.1621 24.8863 44.1948 25.7484 44.1948C26.6106 44.1948 26.7532 44.1621 27.3922 43.8177C27.7771 43.6103 28.2172 43.2919 28.3701 43.1104C28.7873 42.6148 29.1606 41.8149 29.2488 41.2269L29.3274 40.7033H28.4494H27.5714L27.4419 41.1871C27.2063 42.0675 26.3012 42.6071 25.3574 42.4302C24.792 42.3242 24.2109 41.7695 24.055 41.1871L23.9255 40.7033H23.0475H22.1695L22.2481 41.2269ZM47.6174 47.9442C47.5468 48.0206 46.7328 49.5811 45.8085 51.4121C44.3695 54.2628 44.0841 54.7564 43.8226 54.8459C43.1026 55.0926 43.0445 55.0151 41.185 51.329C39.8416 48.6659 39.4176 47.9167 39.254 47.9166C39.1386 47.9165 38.8336 48.1106 38.5761 48.3477C38.3186 48.585 37.901 48.897 37.6483 49.0413C37.3956 49.1856 37.1884 49.3454 37.188 49.3963C37.1874 49.4472 37.6327 50.1214 38.1774 50.8944C38.722 51.6675 39.3459 52.6509 39.5639 53.0799C41.2302 56.361 41.2553 60.2047 39.6319 63.5259C39.2696 64.2673 38.6175 65.2746 37.7445 66.4416L36.4106 68.2244H38.5527H40.6947L42.9064 67.3367C44.1228 66.8484 45.2201 66.449 45.3449 66.4491C45.4696 66.4491 46.1714 66.8486 46.9044 67.3367L48.237 68.2241L49.4304 68.2242L50.6238 68.2244L49.2899 66.4416C48.4169 65.2746 47.7648 64.2673 47.4024 63.5259C45.8171 60.2825 45.8009 56.5761 47.3578 53.2889C47.5627 52.8562 48.2067 51.8232 48.7888 50.9932C49.371 50.1632 49.847 49.4436 49.8464 49.394C49.846 49.3442 49.6461 49.1898 49.4022 49.0506C49.1582 48.9115 48.7072 48.5743 48.3998 48.3016C47.7726 47.7449 47.7934 47.7543 47.6174 47.9442ZM41.8514 48.6645C41.8514 48.7575 43.4694 51.9115 43.5172 51.9115C43.5649 51.9115 45.183 48.7575 45.183 48.6645C45.183 48.6499 44.4334 48.6378 43.5172 48.6378C42.601 48.6378 41.8514 48.6499 41.8514 48.6645Z" fill="white"/>
</svg>
