<svg width="55" height="55" viewBox="0 0 55 55" fill="none" xmlns="http://www.w3.org/2000/svg">
<circle cx="27.5363" cy="27.9016" r="27.05" fill="#F67C01"/>
<path fill-rule="evenodd" clip-rule="evenodd" d="M23.7901 11.6058C23.2941 11.6884 22.574 11.985 22.1195 12.2939C20.7646 13.2145 20.0095 14.7395 20.11 16.352C20.1712 17.3358 20.5666 18.3426 21.1569 19.0177C21.5747 19.4956 27.5048 24.884 27.6928 24.9566C27.7918 24.9949 27.9105 24.9949 28.0104 24.9566C28.2 24.8841 34.0435 19.5786 34.5075 19.0577C35.682 17.7392 35.9331 15.7283 35.1278 14.0896C34.5544 12.9225 33.7013 12.1694 32.494 11.7644C31.1021 11.2975 29.4981 11.6019 28.3091 12.5587C28.0809 12.7423 27.8748 12.8925 27.8508 12.8925C27.8269 12.8925 27.6208 12.7423 27.3926 12.5587C26.3817 11.7452 25.0569 11.3948 23.7901 11.6058ZM23.7945 12.6575C21.5636 13.2272 20.4796 15.7066 21.5611 17.7659C21.6927 18.0164 21.9467 18.3693 22.1257 18.55C22.658 19.0874 27.7925 23.7309 27.8544 23.7309C27.9157 23.7309 33.0361 19.0941 33.576 18.5497C34.7193 17.3967 34.8876 15.4894 33.9683 14.1036C33.2974 13.0922 32.0627 12.489 30.8702 12.59C30.0192 12.6621 29.4419 12.9397 28.511 13.7244C27.8969 14.2421 27.8127 14.2424 27.1979 13.7284C26.5195 13.1613 26.2266 12.973 25.7337 12.7869C25.1993 12.5853 24.31 12.5259 23.7945 12.6575ZM16.2033 17.8309C15.6539 18.0366 15.2553 18.4069 15.0505 18.9016L14.9715 19.0923L14.6697 18.9533C14.2142 18.7434 13.4481 18.7608 13.003 18.991C12.517 19.2424 12.3133 19.4388 12.0669 19.8937L11.8459 20.3014L11.8277 25.0385L11.8096 29.7757L13.4035 32.7063L14.9974 35.6369L17.1534 37.8046C18.7483 39.408 19.3435 40.0481 19.4401 40.2635C19.5578 40.5258 19.5708 40.6913 19.5721 41.9326C19.5735 43.3085 19.5738 43.3108 19.7323 43.4694L19.891 43.6282H23.1949H26.4987L26.6574 43.4694L26.8162 43.3106V39.8594C26.8162 36.1319 26.8022 35.9544 26.4632 35.3781C26.3795 35.2357 25.7277 34.4932 25.0146 33.7281L23.7183 32.3369L23.6991 29.5868L23.6799 26.8368L23.508 26.5133C23.4136 26.3353 23.2535 26.1129 23.1524 26.0189C22.6946 25.5936 21.9326 25.4076 21.4041 25.592L21.133 25.6867L21.1131 23.9323L21.0932 22.1779L20.9214 21.8544C20.8269 21.6764 20.6669 21.454 20.5657 21.36C20.1087 20.9354 19.3459 20.7487 18.8193 20.9325L18.5501 21.0265L18.5271 20.0493C18.5058 19.1416 18.492 19.049 18.3335 18.7485C18.1301 18.3625 17.8971 18.1344 17.5061 17.9381C17.1505 17.7596 16.53 17.7086 16.2033 17.8309ZM38.3591 17.8563C38.1462 17.9291 37.9247 18.0782 37.7103 18.293C37.2567 18.7472 37.1628 19.0694 37.1628 20.1718V21.0303L36.9203 20.9437C36.3174 20.7284 35.6163 20.9062 35.1236 21.3992C34.6142 21.9089 34.5762 22.0936 34.5762 24.0542V25.6892L34.3337 25.6026C33.7308 25.3873 33.0297 25.5651 32.537 26.0581C31.9951 26.6002 31.9898 26.6362 31.9881 29.7075L31.9868 32.3369L30.6887 33.7281C29.9748 34.4932 29.3222 35.2357 29.2385 35.3781C28.8995 35.9544 28.8855 36.1319 28.8855 39.8594V43.3106L29.0443 43.4694L29.203 43.6282H32.5068H35.8107L35.9694 43.4694C36.1279 43.3108 36.1282 43.3085 36.1296 41.9326C36.1309 40.6913 36.1439 40.5258 36.2616 40.2635C36.3582 40.0481 36.9534 39.408 38.5483 37.8046L40.7043 35.6369L42.2982 32.7063L43.8921 29.7757L43.874 25.0385L43.8558 20.3014L43.6815 19.971C43.4229 19.4804 43.228 19.2793 42.7759 19.0363C42.4113 18.8404 42.314 18.8172 41.8511 18.8158C41.4581 18.8147 41.2622 18.8473 41.0358 18.9516L40.7378 19.0889L40.6069 18.8196C40.1878 17.9562 39.2462 17.5527 38.3591 17.8563ZM16.4372 18.8392C16.3661 18.8705 16.2351 18.9744 16.1462 19.0701L15.9846 19.2441L15.967 23.3209L15.9494 27.3977L16.4805 28.0763L17.0116 28.755L17.1361 28.5077C17.2045 28.3717 17.3159 28.1996 17.3837 28.1254C17.5027 27.9949 17.5063 27.8406 17.4894 23.6132L17.4719 19.2362L17.2719 19.0361C17.0583 18.8224 16.679 18.733 16.4372 18.8392ZM38.6825 18.8392C38.6113 18.8705 38.4804 18.9744 38.3915 19.0701L38.2298 19.2441L38.2123 23.6173C38.1954 27.8407 38.199 27.9949 38.318 28.1254C38.3858 28.1996 38.4972 28.3717 38.5656 28.5077L38.6901 28.755L39.2212 28.0763L39.7523 27.3977L39.7347 23.317L39.7171 19.2362L39.5171 19.0361C39.3036 18.8224 38.9243 18.733 38.6825 18.8392ZM13.4626 19.9039C13.223 20.0148 13.0083 20.2431 12.9172 20.4836C12.8708 20.6061 12.8482 22.1147 12.8482 25.0948V29.524L14.3384 32.2569L15.8285 34.9899L17.9846 37.1575C19.4314 38.6121 20.189 39.421 20.2873 39.6164C20.5468 40.1318 20.6067 40.4973 20.6074 41.5738L20.6082 42.5929H23.1972H25.7862L25.7677 39.4061L25.7492 36.2193L25.5875 35.95C25.463 35.7425 20.927 30.8182 19.1166 28.925C18.8675 28.6644 18.7836 28.6162 18.5801 28.6162C18.4103 28.6162 18.2921 28.6632 18.1803 28.7751C18.0365 28.9189 18.0216 28.986 18.0216 29.4869V30.0399L19.7514 32.2428C20.7028 33.4544 21.4871 34.4663 21.4942 34.4913C21.5069 34.5356 20.7302 35.1701 20.7048 35.1362C20.6978 35.1269 19.4002 33.4741 17.821 31.4633L14.9499 27.8074L14.9176 24.14C14.886 20.5628 14.8819 20.4682 14.7519 20.2939C14.6786 20.1957 14.5425 20.0584 14.4496 19.989C14.2353 19.8289 13.7203 19.7845 13.4626 19.9039ZM41.3985 19.9039C41.1589 20.0148 40.9442 20.2431 40.8531 20.4836C40.8073 20.6045 40.7841 21.857 40.7841 24.2114V27.7571L38.0196 31.278C36.4992 33.2145 35.1931 34.8778 35.1173 34.9742L34.9795 35.1495L34.587 34.8432C34.3711 34.6747 34.2003 34.5164 34.2075 34.4913C34.2146 34.4663 34.9989 33.4544 35.9503 32.2428L37.6801 30.0399V29.4869C37.6801 28.986 37.6652 28.9189 37.5214 28.7751C37.4096 28.6632 37.2914 28.6162 37.1216 28.6162C36.9181 28.6162 36.8342 28.6644 36.5851 28.925C34.7747 30.8182 30.2387 35.7425 30.1142 35.95L29.9525 36.2193L29.934 39.4061L29.9155 42.5929H32.5045H35.0935L35.0943 41.5738C35.095 40.4973 35.1549 40.1318 35.4144 39.6164C35.5127 39.421 36.2703 38.6121 37.7171 37.1575L39.8732 34.9899L41.3646 32.2545L42.856 29.5192L42.8386 24.9959C42.8214 20.5421 42.8191 20.4699 42.6878 20.294C42.6145 20.1957 42.4784 20.0584 42.3855 19.989C42.1712 19.8289 41.6562 19.7845 41.3985 19.9039ZM19.0239 21.9452C18.9528 21.9764 18.8218 22.0803 18.7329 22.176L18.5712 22.35L18.5529 24.9655L18.5347 27.5809H18.6748C19.0007 27.5809 19.3535 27.753 19.7156 28.0884L20.0946 28.4395L20.0766 25.3908L20.0585 22.3421L19.8585 22.1419C19.645 21.9283 19.2656 21.8389 19.0239 21.9452ZM36.0958 21.9452C36.0247 21.9764 35.8937 22.0803 35.8048 22.176L35.6432 22.35L35.6251 25.3948L35.6071 28.4395L35.9861 28.0884C36.3482 27.753 36.701 27.5809 37.0269 27.5809H37.167L37.1488 24.9615L37.1305 22.3421L36.9305 22.1419C36.7169 21.9283 36.3375 21.8389 36.0958 21.9452ZM21.6105 26.6041C21.5394 26.6353 21.4085 26.7392 21.3195 26.8348C21.1602 27.0061 21.1576 27.027 21.1378 28.2694L21.1178 29.5302L21.3598 29.8012C21.493 29.9502 21.8451 30.3319 22.1423 30.6495L22.6827 31.2268L22.664 29.1138L22.6452 27.0009L22.4452 26.8008C22.2317 26.5872 21.8523 26.4978 21.6105 26.6041ZM33.5092 26.6041C33.438 26.6353 33.3071 26.7392 33.2182 26.8349L33.0565 27.0088L33.0377 29.1178L33.019 31.2268L33.5594 30.6495C33.8566 30.3319 34.2087 29.9502 34.3419 29.8012L34.5839 29.5302L34.5639 28.2655L34.5438 27.0008L34.3438 26.8008C34.1303 26.5872 33.7508 26.4978 33.5092 26.6041Z" fill="white"/>
</svg>
