<svg width="86" height="86" viewBox="0 0 86 86" fill="none" xmlns="http://www.w3.org/2000/svg">
<circle cx="43" cy="43" r="43" fill="#F67C01"/>
<path fill-rule="evenodd" clip-rule="evenodd" d="M37.0449 17.0956C36.2564 17.227 35.1117 17.6984 34.3891 18.1894C32.2354 19.6528 31.0351 22.0771 31.1947 24.6405C31.292 26.2043 31.9206 27.8047 32.859 28.8779C33.5232 29.6377 42.9498 38.2033 43.2488 38.3187C43.4061 38.3795 43.5948 38.3795 43.7536 38.3187C44.0551 38.2034 53.3441 29.7696 54.0818 28.9415C55.9488 26.8455 56.3479 23.649 55.0678 21.0439C54.1562 19.1887 52.8001 17.9915 50.881 17.3477C48.6683 16.6055 46.1185 17.0894 44.2284 18.6104C43.8657 18.9023 43.538 19.141 43.5 19.141C43.462 19.141 43.1342 18.9023 42.7716 18.6104C41.1646 17.3173 39.0587 16.7602 37.0449 17.0956ZM37.0518 18.7675C33.5055 19.6731 31.7823 23.6144 33.5015 26.888C33.7107 27.2863 34.1145 27.8473 34.3991 28.1345C35.2452 28.9887 43.4072 36.3702 43.5057 36.3702C43.6031 36.3702 51.7428 28.9993 52.6009 28.1339C54.4184 26.3011 54.6859 23.2692 53.2246 21.0663C52.1582 19.4585 50.1954 18.4996 48.2997 18.6601C46.947 18.7747 46.0292 19.2161 44.5495 20.4635C43.5732 21.2865 43.4393 21.2869 42.4621 20.4699C41.3836 19.5683 40.918 19.269 40.1344 18.9731C39.285 18.6526 37.8713 18.5583 37.0518 18.7675ZM24.9844 26.9913C24.1112 27.3184 23.4774 27.907 23.1519 28.6933L23.0264 28.9965L22.5466 28.7755C21.8225 28.4419 20.6047 28.4695 19.8971 28.8356C19.1246 29.2352 18.8008 29.5474 18.409 30.2705L18.0578 30.9186L18.0289 38.4489L18 45.9793L20.5337 50.638L23.0675 55.2967L26.4948 58.7425C29.0301 61.2914 29.9763 62.3088 30.1299 62.6512C30.3169 63.0682 30.3377 63.3313 30.3397 65.3045C30.342 67.4918 30.3424 67.4955 30.5944 67.7475L30.8466 68H36.0986H41.3506L41.6029 67.7475L41.8552 67.4951V62.009C41.8552 56.0834 41.833 55.8014 41.2942 54.8852C41.1611 54.6589 40.1249 53.4786 38.9914 52.2623L36.9307 50.0507L36.9001 45.6792L36.8696 41.3076L36.5965 40.7933C36.4463 40.5104 36.1919 40.1567 36.0311 40.0074C35.3034 39.3313 34.092 39.0356 33.252 39.3288L32.821 39.4793L32.7894 36.6904L32.7577 33.9016L32.4846 33.3873C32.3344 33.1044 32.08 32.7508 31.9192 32.6014C31.1927 31.9264 29.9801 31.6296 29.1431 31.9218L28.7151 32.0713L28.6785 30.5177C28.6446 29.0749 28.6227 28.9276 28.3708 28.4499C28.0474 27.8365 27.6771 27.4738 27.0555 27.1618C26.4902 26.878 25.5038 26.7968 24.9844 26.9913ZM60.2045 27.0317C59.866 27.1475 59.5139 27.3845 59.173 27.7259C58.452 28.448 58.3027 28.9601 58.3027 30.7126V32.0772L57.9173 31.9396C56.9589 31.5974 55.8444 31.8799 55.0612 32.6637C54.2514 33.4739 54.1909 33.7675 54.1909 36.8842V39.4832L53.8054 39.3456C52.847 39.0034 51.7325 39.2859 50.9493 40.0697C50.0879 40.9315 50.0794 40.9887 50.0768 45.871L50.0747 50.0507L48.0112 52.2623C46.8764 53.4786 45.8389 54.6589 45.7058 54.8852C45.167 55.8014 45.1447 56.0834 45.1447 62.009V67.4951L45.3971 67.7475L45.6494 68H50.9014H56.1534L56.4056 67.7475C56.6576 67.4955 56.658 67.4918 56.6603 65.3045C56.6623 63.3313 56.6831 63.0682 56.8701 62.6512C57.0236 62.3088 57.9699 61.2914 60.5052 58.7425L63.9325 55.2967L66.4663 50.638L69 45.9793L68.9711 38.4489L68.9422 30.9186L68.6652 30.3933C68.2541 29.6135 67.9443 29.2938 67.2256 28.9076C66.6461 28.5961 66.4913 28.5592 65.7555 28.557C65.1307 28.5552 64.8194 28.607 64.4595 28.7729L63.9857 28.9912L63.7777 28.563C63.1114 27.1905 61.6146 26.5491 60.2045 27.0317ZM25.3563 28.5942C25.2433 28.6439 25.0351 28.8091 24.8938 28.9612L24.6368 29.2378L24.6088 35.7185L24.5809 42.1992L25.4251 43.278L26.2694 44.3569L26.4673 43.9636C26.576 43.7474 26.7532 43.4739 26.8609 43.3559C27.05 43.1486 27.0558 42.9032 27.029 36.1832L27.0011 29.2253L26.6831 28.9071C26.3437 28.5675 25.7407 28.4253 25.3563 28.5942ZM60.7185 28.5942C60.6054 28.6439 60.3972 28.8091 60.2559 28.9612L59.9989 29.2378L59.971 36.1896C59.9442 42.9033 59.95 43.1486 60.1391 43.3559C60.2468 43.4739 60.424 43.7474 60.5327 43.9636L60.7306 44.3569L61.5749 43.278L62.4191 42.1992L62.3912 35.7122L62.3632 29.2253L62.0453 28.9071C61.7058 28.5675 61.1028 28.4253 60.7185 28.5942ZM20.6277 30.2866C20.2469 30.463 19.9055 30.8259 19.7608 31.2081C19.687 31.403 19.6511 33.8011 19.6511 38.5384V45.5792L22.0199 49.9236L24.3886 54.2681L27.8161 57.7139C30.1161 60.0261 31.3203 61.312 31.4767 61.6226C31.8892 62.442 31.9843 63.023 31.9855 64.7342L31.9867 66.3542H36.1023H40.2179L40.1885 61.2883L40.1591 56.2224L39.9021 55.7943C39.7041 55.4645 32.4935 47.6366 29.6156 44.6271C29.2196 44.2129 29.0863 44.1362 28.7628 44.1362C28.4929 44.1362 28.3049 44.2109 28.1272 44.3888C27.8986 44.6174 27.8749 44.7241 27.8749 45.5202V46.3993L30.6247 49.9012C32.1371 51.8272 33.3839 53.4357 33.3952 53.4755C33.4153 53.546 32.1807 54.5546 32.1403 54.5007C32.1292 54.4859 30.0664 51.8585 27.5561 48.6621L22.992 42.8505L22.9406 37.0205C22.8905 31.334 22.884 31.1837 22.6773 30.9067C22.5607 30.7505 22.3444 30.5323 22.1967 30.422C21.856 30.1675 21.0373 30.0968 20.6277 30.2866ZM65.0359 30.2866C64.6552 30.463 64.3138 30.8259 64.1691 31.2081C64.0962 31.4004 64.0594 33.3914 64.0594 37.1341V42.7704L59.6648 48.3674C57.2478 51.4459 55.1717 54.0899 55.0512 54.2432L54.8321 54.5218L54.2081 54.035C53.8649 53.7671 53.5934 53.5154 53.6048 53.4755C53.6161 53.4357 54.863 51.8272 56.3753 49.9012L59.1251 46.3993V45.5202C59.1251 44.7241 59.1014 44.6174 58.8728 44.3888C58.6951 44.2109 58.5071 44.1362 58.2372 44.1362C57.9137 44.1362 57.7804 44.2129 57.3844 44.6271C54.5065 47.6366 47.2959 55.4645 47.0979 55.7943L46.8409 56.2224L46.8115 61.2883L46.7821 66.3542H50.8977H55.0132L55.0145 64.7342C55.0157 63.023 55.1108 62.442 55.5233 61.6226C55.6797 61.312 56.8839 60.0261 59.1839 57.7139L62.6114 54.2681L64.9822 49.9198L67.353 45.5717L67.3252 38.3812C67.2979 31.3012 67.2942 31.1863 67.0855 30.9068C66.9689 30.7505 66.7527 30.5323 66.6049 30.422C66.2643 30.1675 65.4456 30.0968 65.0359 30.2866ZM29.4682 33.5316C29.3551 33.5813 29.147 33.7463 29.0056 33.8985L28.7486 34.1751L28.7196 38.3328L28.6906 42.4905H28.9132C29.4313 42.4905 29.9922 42.764 30.5678 43.2972L31.1703 43.8553L31.1417 39.0089L31.113 34.1625L30.795 33.8444C30.4556 33.5048 29.8525 33.3627 29.4682 33.5316ZM56.6066 33.5316C56.4935 33.5813 56.2854 33.7463 56.144 33.8985L55.887 34.1752L55.8583 39.0152L55.8297 43.8553L56.4322 43.2972C57.0078 42.764 57.5687 42.4905 58.0868 42.4905H58.3094L58.2804 38.3264L58.2514 34.1625L57.9334 33.8444C57.594 33.5048 56.9909 33.3627 56.6066 33.5316ZM33.5801 40.9376C33.467 40.9872 33.2589 41.1523 33.1175 41.3044C32.8642 41.5767 32.86 41.6099 32.8287 43.5849L32.7968 45.5891L33.1816 46.0198C33.3932 46.2568 33.9529 46.8636 34.4254 47.3683L35.2845 48.2861L35.2547 44.9272L35.2248 41.5684L34.9069 41.2504C34.5675 40.9108 33.9644 40.7687 33.5801 40.9376ZM52.4947 40.9376C52.3816 40.9872 52.1735 41.1523 52.0321 41.3045L51.7751 41.581L51.7453 44.9335L51.7155 48.2861L52.5746 47.3683C53.0471 46.8636 53.6068 46.2568 53.8184 46.0198L54.2032 45.5891L54.1713 43.5786L54.1395 41.5682L53.8215 41.2503C53.4821 40.9108 52.8789 40.7687 52.4947 40.9376Z" fill="white"/>
</svg>
