<svg width="230" height="65" viewBox="0 0 230 65" fill="none" xmlns="http://www.w3.org/2000/svg">
<path d="M72.8644 27.507H68.8501C68.3599 27.507 67.9492 27.3347 67.618 26.9903C67.2867 26.6458 67.1211 26.2351 67.1211 25.7582C67.1211 25.2812 67.2867 24.8705 67.618 24.526C67.9492 24.1683 68.3599 23.9895 68.8501 23.9895L74.5934 24.0292C75.0968 24.0292 75.5274 24.1948 75.8851 24.526C76.2428 24.844 76.4217 25.2547 76.4217 25.7582V31.9983C76.4217 32.2765 76.3621 32.5216 76.2428 32.7336C76.1369 32.9456 75.9911 33.1443 75.8056 33.3298C74.3483 34.6679 72.8048 35.6284 71.1752 36.2114C69.5589 36.7943 67.8896 37.0858 66.1672 37.0858C64.9881 37.0858 63.8487 36.9268 62.7491 36.6088C61.6494 36.2909 60.616 35.847 59.6489 35.2773C58.695 34.7076 57.8139 34.0187 57.0058 33.2105C56.2108 32.4024 55.5285 31.5147 54.9588 30.5475C54.3891 29.5671 53.9453 28.5139 53.6273 27.3877C53.3094 26.2616 53.1504 25.0957 53.1504 23.8901C53.1504 22.6845 53.3028 21.5186 53.6075 20.3924C53.9122 19.2663 54.3494 18.213 54.9191 17.2326C55.4888 16.239 56.1645 15.3381 56.9461 14.5299C57.7411 13.7217 58.6287 13.0262 59.6091 12.4432C60.5895 11.8603 61.6428 11.4098 62.7689 11.0919C63.8951 10.7606 65.0742 10.595 66.3063 10.595C68.1347 10.595 69.8371 10.9263 71.4137 11.5887C72.9903 12.2511 74.441 13.2381 75.7659 14.5498C76.1104 14.9207 76.2826 15.3314 76.2826 15.7819C76.2826 16.0204 76.2296 16.2456 76.1236 16.4576C76.0309 16.6563 75.8984 16.8352 75.7261 16.9941C75.5672 17.1531 75.3751 17.279 75.1498 17.3717C74.9378 17.4645 74.7126 17.5108 74.4741 17.5108C74.2622 17.5108 74.0502 17.4711 73.8382 17.3916C73.6395 17.3121 73.454 17.1863 73.2818 17.014C72.3146 16.0601 71.2348 15.3447 70.0425 14.8677C68.8501 14.3908 67.6113 14.1523 66.3262 14.1523C65.0278 14.1523 63.7891 14.404 62.61 14.9075C61.4441 15.3977 60.4173 16.08 59.5296 16.9544C58.6552 17.8156 57.9597 18.8423 57.443 20.0347C56.9263 21.2139 56.6679 22.4923 56.6679 23.8702C56.6679 25.1686 56.913 26.4073 57.4032 27.5865C57.8934 28.7524 58.5691 29.7791 59.4303 30.6668C60.2914 31.5544 61.305 32.2633 62.4708 32.7932C63.65 33.3231 64.9152 33.5881 66.2666 33.5881C67.4722 33.5881 68.6315 33.4093 69.7444 33.0515C70.8573 32.6938 71.8973 32.091 72.8644 31.2431V27.507Z" fill="white"/>
<path d="M80.0386 27.8249C80.0386 26.4338 80.3036 25.1222 80.8335 23.8901C81.3635 22.658 82.0855 21.5848 82.9997 20.6707C83.9138 19.7432 84.9804 19.0146 86.1992 18.4846C87.4314 17.9414 88.743 17.6698 90.1341 17.6698H90.2335C90.8296 17.6698 91.2801 17.8354 91.5848 18.1667C91.9028 18.4979 92.0618 18.9152 92.0618 19.4187C92.0618 19.9221 91.8829 20.3394 91.5252 20.6707C91.1675 21.0019 90.7369 21.1675 90.2335 21.1675H90.1341C89.2332 21.1675 88.3853 21.3463 87.5903 21.7041C86.7954 22.0485 86.0932 22.5255 85.4838 23.1349C84.8876 23.7311 84.4107 24.4333 84.0529 25.2415C83.7085 26.0496 83.5362 26.9108 83.5362 27.8249V35.0985C83.5362 35.6019 83.3706 36.0193 83.0394 36.3505C82.7215 36.6817 82.324 36.8473 81.847 36.8473C81.6086 36.8473 81.3767 36.8075 81.1515 36.7281C80.9395 36.6353 80.7474 36.5095 80.5752 36.3505C80.4162 36.1915 80.2837 36.006 80.1777 35.794C80.085 35.582 80.0386 35.3502 80.0386 35.0985V27.8249Z" fill="white"/>
<path d="M95.9768 27.3877C95.9768 28.2357 96.1357 29.0372 96.4537 29.7924C96.7849 30.5343 97.2288 31.1901 97.7852 31.7598C98.3416 32.3162 98.9908 32.7601 99.7328 33.0913C100.488 33.4093 101.296 33.5682 102.157 33.5682C103.032 33.5682 103.84 33.4093 104.582 33.0913C105.337 32.7601 105.993 32.3162 106.549 31.7598C107.106 31.1901 107.543 30.5343 107.861 29.7924C108.179 29.0372 108.338 28.2357 108.338 27.3877C108.338 26.5398 108.179 25.7449 107.861 25.003C107.543 24.2478 107.106 23.592 106.549 23.0355C105.993 22.4791 105.337 22.0419 104.582 21.7239C103.84 21.3927 103.032 21.2271 102.157 21.2271C101.296 21.2271 100.488 21.3927 99.7328 21.7239C98.9908 22.0419 98.3416 22.4791 97.7852 23.0355C97.2288 23.592 96.7849 24.2478 96.4537 25.003C96.1357 25.7449 95.9768 26.5398 95.9768 27.3877ZM92.4592 27.3877C92.4592 26.0496 92.711 24.791 93.2144 23.6119C93.7311 22.4327 94.4267 21.406 95.3011 20.5315C96.1887 19.6439 97.2155 18.9483 98.3814 18.4449C99.5605 17.9282 100.819 17.6698 102.157 17.6698C103.509 17.6698 104.774 17.9282 105.953 18.4449C107.132 18.9483 108.159 19.6439 109.033 20.5315C109.908 21.406 110.597 22.4327 111.1 23.6119C111.604 24.791 111.855 26.0496 111.855 27.3877C111.855 28.7259 111.604 29.9845 111.1 31.1636C110.597 32.3427 109.908 33.3695 109.033 34.2439C108.159 35.1183 107.132 35.8139 105.953 36.3306C104.774 36.834 103.509 37.0858 102.157 37.0858C100.819 37.0858 99.5605 36.834 98.3814 36.3306C97.2155 35.8139 96.1887 35.1183 95.3011 34.2439C94.4267 33.3695 93.7311 32.3427 93.2144 31.1636C92.711 29.9845 92.4592 28.7259 92.4592 27.3877Z" fill="white"/>
<path d="M114.498 19.4187C114.498 18.9285 114.664 18.5177 114.995 18.1865C115.34 17.8421 115.757 17.6698 116.247 17.6698C116.724 17.6698 117.135 17.8421 117.479 18.1865C117.824 18.5177 117.996 18.9285 117.996 19.4187V27.8448C118.009 28.6397 118.162 29.3883 118.453 30.0905C118.758 30.7794 119.162 31.3822 119.665 31.8989C120.182 32.4156 120.785 32.8263 121.474 33.131C122.163 33.4225 122.911 33.5682 123.72 33.5682C124.528 33.5682 125.256 33.4159 125.906 33.1112C126.568 32.8064 127.131 32.3891 127.595 31.8592C128.058 31.3292 128.416 30.7132 128.668 30.011C128.933 29.2955 129.065 28.5338 129.065 27.7256V19.4187C129.065 19.1802 129.112 18.955 129.204 18.743C129.31 18.531 129.443 18.3455 129.602 18.1865C129.761 18.0275 129.946 17.9017 130.158 17.8089C130.384 17.7162 130.615 17.6698 130.854 17.6698C131.357 17.6698 131.768 17.8421 132.086 18.1865C132.417 18.5177 132.583 18.9285 132.583 19.4187V27.6461V27.7455C132.583 29.0306 132.358 30.2428 131.907 31.3822C131.47 32.5084 130.861 33.4954 130.079 34.3433C129.297 35.1912 128.363 35.8603 127.277 36.3505C126.19 36.8407 125.005 37.0858 123.72 37.0858C122.421 37.0858 121.209 36.8407 120.083 36.3505C118.97 35.8603 117.996 35.1912 117.161 34.3433C116.34 33.4954 115.691 32.5084 115.214 31.3822C114.737 30.2428 114.498 29.0306 114.498 27.7455V19.4187Z" fill="white"/>
<path d="M135.723 27.1095V27.03C135.723 25.7449 135.955 24.5326 136.418 23.3933C136.895 22.2539 137.545 21.2602 138.366 20.4123C139.187 19.5644 140.154 18.8953 141.267 18.4051C142.38 17.9149 143.579 17.6698 144.864 17.6698C146.163 17.6698 147.368 17.9149 148.481 18.4051C149.607 18.8953 150.581 19.5644 151.403 20.4123C152.237 21.2602 152.886 22.2539 153.35 23.3933C153.827 24.5326 154.066 25.7449 154.066 27.03V27.1294V35.1183C154.066 35.6218 153.9 36.0391 153.569 36.3703C153.238 36.6883 152.827 36.8473 152.337 36.8473C151.846 36.8473 151.429 36.6883 151.085 36.3703C150.74 36.0391 150.568 35.6218 150.568 35.1183V27.1095V27.0698C150.555 26.2616 150.402 25.5064 150.111 24.8042C149.819 24.0888 149.415 23.4661 148.899 22.9362C148.395 22.4062 147.799 21.9889 147.11 21.6842C146.421 21.3662 145.673 21.2072 144.864 21.2072C144.056 21.2072 143.308 21.3596 142.619 21.6643C141.943 21.9558 141.354 22.3665 140.85 22.8964C140.347 23.4264 139.949 24.0491 139.658 24.7645C139.379 25.4667 139.24 26.2219 139.24 27.03V35.1183C139.24 35.6218 139.075 36.0391 138.744 36.3703C138.426 36.6883 138.021 36.8473 137.531 36.8473C137.293 36.8473 137.061 36.8075 136.836 36.7281C136.624 36.6353 136.432 36.5161 136.259 36.3703C136.1 36.2114 135.968 36.0259 135.862 35.8139C135.769 35.6019 135.723 35.3701 135.723 35.1183V27.1095Z" fill="white"/>
<path d="M156.848 27.3877C156.848 26.0496 157.1 24.791 157.603 23.6119C158.12 22.4327 158.815 21.406 159.69 20.5315C160.577 19.6439 161.604 18.9483 162.77 18.4449C163.949 17.9282 165.208 17.6698 166.546 17.6698C167.341 17.6698 168.056 17.7493 168.692 17.9083C169.328 18.0673 169.891 18.2991 170.381 18.6039C170.885 18.9086 171.329 19.2795 171.713 19.7168C172.097 20.154 172.435 20.6508 172.726 21.2072V5.2248C172.726 4.7081 172.892 4.27752 173.223 3.93306C173.554 3.57534 173.972 3.39648 174.475 3.39648C174.979 3.39648 175.396 3.57534 175.727 3.93306C176.072 4.27752 176.244 4.7081 176.244 5.2248V27.3877V27.507C176.231 28.8318 175.966 30.0772 175.449 31.2431C174.946 32.3957 174.257 33.4093 173.382 34.2837C172.508 35.1448 171.481 35.8272 170.302 36.3306C169.136 36.834 167.884 37.0858 166.546 37.0858C165.208 37.0858 163.949 36.834 162.77 36.3306C161.604 35.8139 160.577 35.1183 159.69 34.2439C158.815 33.3695 158.12 32.3427 157.603 31.1636C157.1 29.9845 156.848 28.7259 156.848 27.3877ZM160.365 27.3877C160.365 28.2357 160.524 29.0372 160.842 29.7924C161.174 30.5343 161.617 31.1901 162.174 31.7598C162.73 32.3162 163.379 32.7601 164.121 33.0913C164.877 33.4093 165.685 33.5682 166.546 33.5682C167.42 33.5682 168.228 33.4093 168.97 33.0913C169.726 32.7601 170.381 32.3162 170.938 31.7598C171.494 31.1901 171.931 30.5343 172.249 29.7924C172.567 29.0372 172.726 28.2357 172.726 27.3877C172.726 26.5398 172.567 25.7449 172.249 25.003C171.931 24.2478 171.494 23.592 170.938 23.0355C170.381 22.4791 169.726 22.0419 168.97 21.7239C168.228 21.3927 167.42 21.2271 166.546 21.2271C165.685 21.2271 164.877 21.3927 164.121 21.7239C163.379 22.0419 162.73 22.4791 162.174 23.0355C161.617 23.592 161.174 24.2478 160.842 25.003C160.524 25.7449 160.365 26.5398 160.365 27.3877Z" fill="white"/>
<path d="M188.982 19.4187C188.982 18.9285 189.148 18.5177 189.479 18.1865C189.824 17.8421 190.241 17.6698 190.731 17.6698C191.208 17.6698 191.619 17.8421 191.963 18.1865C192.308 18.5177 192.48 18.9285 192.48 19.4187V27.8448C192.493 28.6397 192.646 29.3883 192.937 30.0905C193.242 30.7794 193.646 31.3822 194.15 31.8989C194.666 32.4156 195.269 32.8263 195.958 33.131C196.647 33.4225 197.395 33.5682 198.204 33.5682C199.012 33.5682 199.74 33.4159 200.39 33.1112C201.052 32.8064 201.615 32.3891 202.079 31.8592C202.543 31.3292 202.9 30.7132 203.152 30.011C203.417 29.2955 203.549 28.5338 203.549 27.7256V19.4187C203.549 19.1802 203.596 18.955 203.689 18.743C203.795 18.531 203.927 18.3455 204.086 18.1865C204.245 18.0275 204.43 17.9017 204.642 17.8089C204.868 17.7162 205.1 17.6698 205.338 17.6698C205.841 17.6698 206.252 17.8421 206.57 18.1865C206.901 18.5177 207.067 18.9285 207.067 19.4187V27.6461V27.7455C207.067 29.0306 206.842 30.2428 206.391 31.3822C205.954 32.5084 205.345 33.4954 204.563 34.3433C203.781 35.1912 202.847 35.8603 201.761 36.3505C200.674 36.8407 199.489 37.0858 198.204 37.0858C196.905 37.0858 195.693 36.8407 194.567 36.3505C193.454 35.8603 192.48 35.1912 191.645 34.3433C190.824 33.4954 190.175 32.5084 189.698 31.3822C189.221 30.2428 188.982 29.0306 188.982 27.7455V19.4187Z" fill="white"/>
<path d="M210.604 27.3877C210.604 26.0496 210.856 24.791 211.36 23.6119C211.876 22.4327 212.572 21.406 213.446 20.5315C214.334 19.6439 215.367 18.9483 216.546 18.4449C217.726 17.9282 218.984 17.6698 220.322 17.6698C221.66 17.6698 222.919 17.9282 224.098 18.4449C225.277 18.9483 226.304 19.6439 227.178 20.5315C228.053 21.406 228.742 22.4327 229.245 23.6119C229.749 24.791 230 26.0496 230 27.3877C230 28.7259 229.749 29.9845 229.245 31.1636C228.742 32.3427 228.053 33.3695 227.178 34.2439C226.304 35.1183 225.277 35.8139 224.098 36.3306C222.919 36.834 221.66 37.0858 220.322 37.0858C219.117 37.0858 217.991 36.8937 216.944 36.5095C215.897 36.112 214.95 35.5555 214.102 34.8401V51.619C214.102 52.1224 213.943 52.553 213.625 52.9107C213.32 53.2684 212.91 53.4473 212.393 53.4473C211.903 53.4473 211.479 53.2684 211.121 52.9107C210.777 52.5663 210.604 52.1357 210.604 51.619V27.3877ZM214.122 27.3877C214.122 28.2357 214.281 29.0372 214.599 29.7924C214.93 30.5343 215.374 31.1901 215.93 31.7598C216.487 32.3162 217.143 32.7601 217.898 33.0913C218.653 33.4093 219.461 33.5682 220.322 33.5682C221.183 33.5682 221.992 33.4093 222.747 33.0913C223.502 32.7601 224.158 32.3162 224.714 31.7598C225.271 31.1901 225.708 30.5343 226.026 29.7924C226.344 29.0372 226.503 28.2357 226.503 27.3877C226.503 26.5398 226.344 25.7449 226.026 25.003C225.708 24.2478 225.271 23.592 224.714 23.0355C224.158 22.4791 223.502 22.0419 222.747 21.7239C221.992 21.3927 221.183 21.2271 220.322 21.2271C219.461 21.2271 218.653 21.3927 217.898 21.7239C217.143 22.0419 216.487 22.4791 215.93 23.0355C215.374 23.592 214.93 24.2478 214.599 25.003C214.281 25.7449 214.122 26.5398 214.122 27.3877Z" fill="white"/>
<path d="M188.982 19.4187C188.982 18.9285 189.148 18.5177 189.479 18.1865C189.824 17.8421 190.241 17.6698 190.731 17.6698C191.208 17.6698 191.619 17.8421 191.963 18.1865C192.308 18.5177 192.48 18.9285 192.48 19.4187V27.8448C192.493 28.6397 192.646 29.3883 192.937 30.0905C193.242 30.7794 193.646 31.3822 194.15 31.8989C194.666 32.4156 195.269 32.8263 195.958 33.131C196.647 33.4225 197.395 33.5682 198.204 33.5682C199.012 33.5682 199.74 33.4159 200.39 33.1112C201.052 32.8064 201.615 32.3891 202.079 31.8592C202.543 31.3292 202.9 30.7132 203.152 30.011C203.417 29.2955 203.549 28.5338 203.549 27.7256V19.4187C203.549 19.1802 203.596 18.955 203.689 18.743C203.795 18.531 203.927 18.3455 204.086 18.1865C204.245 18.0275 204.43 17.9017 204.642 17.8089C204.868 17.7162 205.1 17.6698 205.338 17.6698C205.841 17.6698 206.252 17.8421 206.57 18.1865C206.901 18.5177 207.067 18.9285 207.067 19.4187V27.6461V27.7455C207.067 29.0306 206.842 30.2428 206.391 31.3822C205.954 32.5084 205.345 33.4954 204.563 34.3433C203.781 35.1912 202.847 35.8603 201.761 36.3505C200.674 36.8407 199.489 37.0858 198.204 37.0858C196.905 37.0858 195.693 36.8407 194.567 36.3505C193.454 35.8603 192.48 35.1912 191.645 34.3433C190.824 33.4954 190.175 32.5084 189.698 31.3822C189.221 30.2428 188.982 29.0306 188.982 27.7455V19.4187Z" fill="white"/>
<path d="M210.604 27.3877C210.604 26.0496 210.856 24.791 211.36 23.6119C211.876 22.4327 212.572 21.406 213.446 20.5315C214.334 19.6439 215.367 18.9483 216.546 18.4449C217.726 17.9282 218.984 17.6698 220.322 17.6698C221.66 17.6698 222.919 17.9282 224.098 18.4449C225.277 18.9483 226.304 19.6439 227.178 20.5315C228.053 21.406 228.742 22.4327 229.245 23.6119C229.749 24.791 230 26.0496 230 27.3877C230 28.7259 229.749 29.9845 229.245 31.1636C228.742 32.3427 228.053 33.3695 227.178 34.2439C226.304 35.1183 225.277 35.8139 224.098 36.3306C222.919 36.834 221.66 37.0858 220.322 37.0858C219.117 37.0858 217.991 36.8937 216.944 36.5095C215.897 36.112 214.95 35.5555 214.102 34.8401V51.619C214.102 52.1224 213.943 52.553 213.625 52.9107C213.32 53.2684 212.91 53.4473 212.393 53.4473C211.903 53.4473 211.479 53.2684 211.121 52.9107C210.777 52.5663 210.604 52.1357 210.604 51.619V27.3877ZM214.122 27.3877C214.122 28.2357 214.281 29.0372 214.599 29.7924C214.93 30.5343 215.374 31.1901 215.93 31.7598C216.487 32.3162 217.143 32.7601 217.898 33.0913C218.653 33.4093 219.461 33.5682 220.322 33.5682C221.183 33.5682 221.992 33.4093 222.747 33.0913C223.502 32.7601 224.158 32.3162 224.714 31.7598C225.271 31.1901 225.708 30.5343 226.026 29.7924C226.344 29.0372 226.503 28.2357 226.503 27.3877C226.503 26.5398 226.344 25.7449 226.026 25.003C225.708 24.2478 225.271 23.592 224.714 23.0355C224.158 22.4791 223.502 22.0419 222.747 21.7239C221.992 21.3927 221.183 21.2271 220.322 21.2271C219.461 21.2271 218.653 21.3927 217.898 21.7239C217.143 22.0419 216.487 22.4791 215.93 23.0355C215.374 23.592 214.93 24.2478 214.599 25.003C214.281 25.7449 214.122 26.5398 214.122 27.3877Z" fill="white"/>
<path d="M89.2797 45.1818C89.9039 45.1818 90.4253 45.391 90.8436 45.8094C91.262 46.2278 91.4712 46.7491 91.4712 47.3734C91.4712 47.9976 91.262 48.5189 90.8436 48.9373C90.4253 49.3557 89.9039 49.5649 89.2797 49.5649H87.4866V52.1549H86.7893V45.1818H89.2797ZM89.2797 48.9074C89.7113 48.9074 90.0666 48.7647 90.3456 48.4791C90.6311 48.1869 90.7739 47.8183 90.7739 47.3734C90.7739 46.9284 90.6311 46.5631 90.3456 46.2776C90.0666 45.9854 89.7113 45.8393 89.2797 45.8393H87.4866V48.9074H89.2797ZM94.0769 48.4791C94.0769 48.7049 94.1765 48.8842 94.3757 49.017C94.5749 49.1498 94.8173 49.2528 95.1029 49.3258C95.3885 49.3989 95.674 49.4819 95.9596 49.5749C96.2452 49.6612 96.4876 49.8106 96.6868 50.0231C96.886 50.229 96.9856 50.5013 96.9856 50.84C96.9856 51.265 96.8163 51.6103 96.4776 51.876C96.1456 52.1416 95.7139 52.2744 95.1826 52.2744C94.7044 52.2744 94.296 52.1682 93.9573 51.9557C93.6253 51.7432 93.3928 51.4676 93.26 51.1289L93.8179 50.8001C93.9108 51.0591 94.0769 51.265 94.3159 51.4178C94.5617 51.5639 94.8505 51.6369 95.1826 51.6369C95.508 51.6369 95.7803 51.5738 95.9994 51.4476C96.2186 51.3148 96.3282 51.1123 96.3282 50.84C96.3282 50.6142 96.2286 50.4349 96.0293 50.3021C95.8301 50.1692 95.5877 50.0663 95.3021 49.9932C95.0166 49.9202 94.731 49.8405 94.4454 49.7542C94.1599 49.6612 93.9175 49.5118 93.7183 49.3059C93.519 49.0934 93.4194 48.8178 93.4194 48.4791C93.4194 48.074 93.5788 47.7353 93.8976 47.463C94.223 47.1907 94.6314 47.0546 95.1228 47.0546C95.5279 47.0546 95.8832 47.1476 96.1887 47.3335C96.4942 47.5128 96.72 47.7585 96.8661 48.0707L96.3182 48.3894C96.1256 47.9246 95.7272 47.6921 95.1228 47.6921C94.8373 47.6921 94.5915 47.7619 94.3857 47.9013C94.1798 48.0341 94.0769 48.2267 94.0769 48.4791ZM102.711 47.1741H103.408L101.276 52.6131C101.084 53.1046 100.808 53.4898 100.449 53.7687C100.097 54.0542 99.7023 54.1804 99.264 54.1472V53.5296C99.8617 53.596 100.317 53.2507 100.629 52.4936L100.758 52.1848L98.5268 47.1741H99.2241L101.097 51.348L102.711 47.1741ZM107.624 52.2744C106.874 52.2744 106.249 52.0254 105.751 51.5273C105.253 51.0226 105.004 50.4017 105.004 49.6645C105.004 48.9274 105.253 48.3097 105.751 47.8117C106.249 47.3069 106.874 47.0546 107.624 47.0546C108.115 47.0546 108.557 47.1741 108.949 47.4132C109.341 47.6456 109.626 47.9611 109.806 48.3596L109.268 48.6684C109.135 48.3695 108.919 48.1338 108.62 47.9611C108.328 47.7818 107.996 47.6921 107.624 47.6921C107.073 47.6921 106.608 47.8847 106.229 48.2699C105.851 48.6484 105.662 49.1133 105.662 49.6645C105.662 50.2157 105.851 50.6839 106.229 51.0691C106.608 51.4476 107.073 51.6369 107.624 51.6369C107.996 51.6369 108.328 51.5506 108.62 51.3779C108.912 51.1986 109.142 50.9595 109.308 50.6607L109.855 50.9794C109.65 51.3779 109.347 51.6934 108.949 51.9258C108.55 52.1582 108.109 52.2744 107.624 52.2744ZM114.425 47.0546C115.03 47.0546 115.505 47.2405 115.85 47.6124C116.202 47.9777 116.378 48.4724 116.378 49.0967V52.1549H115.72V49.0967C115.72 48.6518 115.601 48.3064 115.362 48.0607C115.129 47.815 114.797 47.6921 114.366 47.6921C113.887 47.6921 113.499 47.8449 113.2 48.1504C112.901 48.4492 112.752 48.9141 112.752 49.545V52.1549H112.094V45.1818H112.752V47.9511C113.124 47.3534 113.682 47.0546 114.425 47.0546ZM121.245 47.0546C121.982 47.0546 122.577 47.3169 123.028 47.8415C123.487 48.3596 123.716 48.9738 123.716 49.6844C123.716 49.7575 123.709 49.8604 123.696 49.9932H119.323C119.389 50.498 119.602 50.8997 119.96 51.1986C120.325 51.4908 120.774 51.6369 121.305 51.6369C121.684 51.6369 122.009 51.5605 122.281 51.4078C122.56 51.2484 122.769 51.0425 122.909 50.7902L123.487 51.1289C123.267 51.4808 122.969 51.7598 122.59 51.9656C122.212 52.1715 121.78 52.2744 121.295 52.2744C120.511 52.2744 119.874 52.0287 119.382 51.5373C118.891 51.0459 118.645 50.4216 118.645 49.6645C118.645 48.9207 118.888 48.2998 119.372 47.8017C119.857 47.3036 120.482 47.0546 121.245 47.0546ZM121.245 47.6921C120.727 47.6921 120.292 47.8482 119.94 48.1603C119.595 48.4658 119.389 48.8643 119.323 49.3557H123.038C122.972 48.8311 122.769 48.4226 122.431 48.1304C122.092 47.8382 121.697 47.6921 121.245 47.6921ZM130.34 45.1818H130.997V52.1549H130.34V51.1787C129.882 51.9092 129.211 52.2744 128.328 52.2744C127.617 52.2744 127.01 52.0221 126.505 51.5174C126.007 51.0126 125.758 50.395 125.758 49.6645C125.758 48.934 126.007 48.3164 126.505 47.8117C127.01 47.3069 127.617 47.0546 128.328 47.0546C129.211 47.0546 129.882 47.4198 130.34 48.1504V45.1818ZM126.983 51.0691C127.361 51.4476 127.826 51.6369 128.378 51.6369C128.929 51.6369 129.394 51.4476 129.772 51.0691C130.151 50.6839 130.34 50.2157 130.34 49.6645C130.34 49.1133 130.151 48.6484 129.772 48.2699C129.394 47.8847 128.929 47.6921 128.378 47.6921C127.826 47.6921 127.361 47.8847 126.983 48.2699C126.604 48.6484 126.415 49.1133 126.415 49.6645C126.415 50.2157 126.604 50.6839 126.983 51.0691ZM135.986 47.0546C136.723 47.0546 137.317 47.3169 137.769 47.8415C138.227 48.3596 138.456 48.9738 138.456 49.6844C138.456 49.7575 138.449 49.8604 138.436 49.9932H134.063C134.129 50.498 134.342 50.8997 134.701 51.1986C135.066 51.4908 135.514 51.6369 136.045 51.6369C136.424 51.6369 136.749 51.5605 137.022 51.4078C137.301 51.2484 137.51 51.0425 137.649 50.7902L138.227 51.1289C138.008 51.4808 137.709 51.7598 137.33 51.9656C136.952 52.1715 136.52 52.2744 136.035 52.2744C135.252 52.2744 134.614 52.0287 134.123 51.5373C133.631 51.0459 133.386 50.4216 133.386 49.6645C133.386 48.9207 133.628 48.2998 134.113 47.8017C134.598 47.3036 135.222 47.0546 135.986 47.0546ZM135.986 47.6921C135.468 47.6921 135.033 47.8482 134.681 48.1603C134.335 48.4658 134.129 48.8643 134.063 49.3557H137.779C137.712 48.8311 137.51 48.4226 137.171 48.1304C136.832 47.8382 136.437 47.6921 135.986 47.6921ZM140.797 52.1549V44.883H141.454V52.1549H140.797ZM144.812 45.9787C144.719 46.0717 144.606 46.1182 144.473 46.1182C144.34 46.1182 144.228 46.0717 144.135 45.9787C144.042 45.8858 143.995 45.7729 143.995 45.64C143.995 45.5072 144.042 45.3943 144.135 45.3013C144.228 45.2084 144.34 45.1619 144.473 45.1619C144.606 45.1619 144.719 45.2084 144.812 45.3013C144.905 45.3943 144.951 45.5072 144.951 45.64C144.951 45.7729 144.905 45.8858 144.812 45.9787ZM144.145 52.1549V47.1741H144.802V52.1549H144.145ZM149.813 52.2744C149.063 52.2744 148.439 52.0254 147.94 51.5273C147.442 51.0226 147.193 50.4017 147.193 49.6645C147.193 48.9274 147.442 48.3097 147.94 47.8117C148.439 47.3069 149.063 47.0546 149.813 47.0546C150.305 47.0546 150.746 47.1741 151.138 47.4132C151.53 47.6456 151.816 47.9611 151.995 48.3596L151.457 48.6684C151.324 48.3695 151.108 48.1338 150.809 47.9611C150.517 47.7818 150.185 47.6921 149.813 47.6921C149.262 47.6921 148.797 47.8847 148.419 48.2699C148.04 48.6484 147.851 49.1133 147.851 49.6645C147.851 50.2157 148.04 50.6839 148.419 51.0691C148.797 51.4476 149.262 51.6369 149.813 51.6369C150.185 51.6369 150.517 51.5506 150.809 51.3779C151.102 51.1986 151.331 50.9595 151.497 50.6607L152.045 50.9794C151.839 51.3779 151.537 51.6934 151.138 51.9258C150.74 52.1582 150.298 52.2744 149.813 52.2744ZM158.169 45.1818H158.866V52.1549H158.169V45.1818ZM163.991 47.0546C164.595 47.0546 165.07 47.2405 165.415 47.6124C165.767 47.9777 165.943 48.4724 165.943 49.0967V52.1549H165.286V49.0967C165.286 48.6518 165.166 48.3064 164.927 48.0607C164.695 47.815 164.363 47.6921 163.931 47.6921C163.453 47.6921 163.064 47.8449 162.766 48.1504C162.467 48.4492 162.317 48.9141 162.317 49.545V52.1549H161.66V47.1741H162.317V47.9511C162.689 47.3534 163.247 47.0546 163.991 47.0546ZM169.028 48.4791C169.028 48.7049 169.127 48.8842 169.326 49.017C169.526 49.1498 169.768 49.2528 170.054 49.3258C170.339 49.3989 170.625 49.4819 170.91 49.5749C171.196 49.6612 171.438 49.8106 171.637 50.0231C171.837 50.229 171.936 50.5013 171.936 50.84C171.936 51.265 171.767 51.6103 171.428 51.876C171.096 52.1416 170.665 52.2744 170.133 52.2744C169.655 52.2744 169.247 52.1682 168.908 51.9557C168.576 51.7432 168.344 51.4676 168.211 51.1289L168.769 50.8001C168.862 51.0591 169.028 51.265 169.267 51.4178C169.512 51.5639 169.801 51.6369 170.133 51.6369C170.459 51.6369 170.731 51.5738 170.95 51.4476C171.169 51.3148 171.279 51.1123 171.279 50.84C171.279 50.6142 171.179 50.4349 170.98 50.3021C170.781 50.1692 170.538 50.0663 170.253 49.9932C169.967 49.9202 169.682 49.8405 169.396 49.7542C169.111 49.6612 168.868 49.5118 168.669 49.3059C168.47 49.0934 168.37 48.8178 168.37 48.4791C168.37 48.074 168.529 47.7353 168.848 47.463C169.174 47.1907 169.582 47.0546 170.074 47.0546C170.479 47.0546 170.834 47.1476 171.139 47.3335C171.445 47.5128 171.671 47.7585 171.817 48.0707L171.269 48.3894C171.076 47.9246 170.678 47.6921 170.074 47.6921C169.788 47.6921 169.542 47.7619 169.336 47.9013C169.13 48.0341 169.028 48.2267 169.028 48.4791ZM176.773 47.8117H175.339V50.83C175.339 51.1023 175.392 51.2982 175.498 51.4178C175.605 51.5306 175.764 51.5904 175.976 51.5971C176.189 51.5971 176.455 51.5904 176.773 51.5771V52.1549C176.076 52.2612 175.551 52.2114 175.199 52.0055C174.854 51.7996 174.681 51.4078 174.681 50.83V47.8117H173.635V47.1741H174.681V45.9787L175.339 45.7795V47.1741H176.773V47.8117ZM179.832 45.9787C179.739 46.0717 179.626 46.1182 179.493 46.1182C179.36 46.1182 179.247 46.0717 179.154 45.9787C179.061 45.8858 179.015 45.7729 179.015 45.64C179.015 45.5072 179.061 45.3943 179.154 45.3013C179.247 45.2084 179.36 45.1619 179.493 45.1619C179.626 45.1619 179.739 45.2084 179.832 45.3013C179.925 45.3943 179.971 45.5072 179.971 45.64C179.971 45.7729 179.925 45.8858 179.832 45.9787ZM179.164 52.1549V47.1741H179.822V52.1549H179.164ZM185.152 47.8117H183.717V50.83C183.717 51.1023 183.77 51.2982 183.876 51.4178C183.983 51.5306 184.142 51.5904 184.355 51.5971C184.567 51.5971 184.833 51.5904 185.152 51.5771V52.1549C184.454 52.2612 183.93 52.2114 183.578 52.0055C183.232 51.7996 183.06 51.4078 183.06 50.83V47.8117H182.014V47.1741H183.06V45.9787L183.717 45.7795V47.1741H185.152V47.8117ZM191.049 47.1741H191.706V52.1549H191.049V51.3779C190.677 51.9756 190.119 52.2744 189.375 52.2744C188.771 52.2744 188.293 52.0918 187.941 51.7266C187.595 51.3547 187.423 50.8566 187.423 50.2323V47.1741H188.08V50.2323C188.08 50.6773 188.196 51.0226 188.429 51.2683C188.668 51.514 189.003 51.6369 189.435 51.6369C189.913 51.6369 190.302 51.4875 190.601 51.1886C190.899 50.8831 191.049 50.415 191.049 49.7841V47.1741ZM197.032 47.8117H195.597V50.83C195.597 51.1023 195.651 51.2982 195.757 51.4178C195.863 51.5306 196.022 51.5904 196.235 51.5971C196.448 51.5971 196.713 51.5904 197.032 51.5771V52.1549C196.335 52.2612 195.81 52.2114 195.458 52.0055C195.113 51.7996 194.94 51.4078 194.94 50.83V47.8117H193.894V47.1741H194.94V45.9787L195.597 45.7795V47.1741H197.032V47.8117ZM201.422 47.0546C202.159 47.0546 202.754 47.3169 203.205 47.8415C203.664 48.3596 203.893 48.9738 203.893 49.6844C203.893 49.7575 203.886 49.8604 203.873 49.9932H199.5C199.566 50.498 199.779 50.8997 200.137 51.1986C200.502 51.4908 200.951 51.6369 201.482 51.6369C201.861 51.6369 202.186 51.5605 202.458 51.4078C202.737 51.2484 202.946 51.0425 203.086 50.7902L203.664 51.1289C203.444 51.4808 203.146 51.7598 202.767 51.9656C202.389 52.1715 201.957 52.2744 201.472 52.2744C200.688 52.2744 200.051 52.0287 199.559 51.5373C199.068 51.0459 198.822 50.4216 198.822 49.6645C198.822 48.9207 199.065 48.2998 199.549 47.8017C200.034 47.3036 200.659 47.0546 201.422 47.0546ZM201.422 47.6921C200.904 47.6921 200.469 47.8482 200.117 48.1603C199.772 48.4658 199.566 48.8643 199.5 49.3557H203.215C203.149 48.8311 202.946 48.4226 202.608 48.1304C202.269 47.8382 201.874 47.6921 201.422 47.6921Z" fill="white"/>
<path d="M188.982 19.4184C188.982 18.9282 189.148 18.5175 189.479 18.1863C189.824 17.8419 190.241 17.6696 190.731 17.6696C191.208 17.6696 191.619 17.8419 191.963 18.1863C192.308 18.5175 192.48 18.9282 192.48 19.4184V27.8446C192.493 28.6395 192.646 29.3881 192.937 30.0903C193.242 30.7792 193.646 31.382 194.149 31.8987C194.666 32.4154 195.269 32.8261 195.958 33.1308C196.647 33.4223 197.395 33.568 198.204 33.568C199.012 33.568 199.74 33.4157 200.39 33.111C201.052 32.8062 201.615 32.3889 202.079 31.859C202.542 31.329 202.9 30.7129 203.152 30.0108C203.417 29.2953 203.549 28.5335 203.549 27.7254V19.4184C203.549 19.18 203.596 18.9547 203.688 18.7428C203.794 18.5308 203.927 18.3453 204.086 18.1863C204.245 18.0273 204.43 17.9015 204.642 17.8087C204.868 17.716 205.099 17.6696 205.338 17.6696C205.841 17.6696 206.252 17.8419 206.57 18.1863C206.901 18.5175 207.067 18.9282 207.067 19.4184V27.6459V27.7452C207.067 29.0304 206.842 30.2426 206.391 31.382C205.954 32.5081 205.345 33.4952 204.563 34.3431C203.781 35.191 202.847 35.8601 201.761 36.3503C200.674 36.8405 199.489 37.0856 198.204 37.0856C196.905 37.0856 195.693 36.8405 194.567 36.3503C193.454 35.8601 192.48 35.191 191.645 34.3431C190.824 33.4952 190.175 32.5081 189.698 31.382C189.221 30.2426 188.982 29.0304 188.982 27.7452V19.4184Z" fill="white"/>
<path d="M210.604 27.3875C210.604 26.0494 210.856 24.7908 211.359 23.6117C211.876 22.4325 212.572 21.4057 213.446 20.5313C214.334 19.6437 215.367 18.9481 216.546 18.4447C217.725 17.928 218.984 17.6696 220.322 17.6696C221.66 17.6696 222.919 17.928 224.098 18.4447C225.277 18.9481 226.304 19.6437 227.178 20.5313C228.053 21.4057 228.742 22.4325 229.245 23.6117C229.749 24.7908 230 26.0494 230 27.3875C230 28.7256 229.749 29.9843 229.245 31.1634C228.742 32.3425 228.053 33.3693 227.178 34.2437C226.304 35.1181 225.277 35.8137 224.098 36.3304C222.919 36.8338 221.66 37.0856 220.322 37.0856C219.117 37.0856 217.99 36.8935 216.944 36.5092C215.897 36.1118 214.95 35.5553 214.102 34.8399V51.6188C214.102 52.1222 213.943 52.5528 213.625 52.9105C213.32 53.2682 212.91 53.4471 212.393 53.4471C211.903 53.4471 211.479 53.2682 211.121 52.9105C210.777 52.566 210.604 52.1355 210.604 51.6188V27.3875ZM214.122 27.3875C214.122 28.2354 214.281 29.037 214.599 29.7922C214.93 30.5341 215.374 31.1899 215.93 31.7596C216.487 32.316 217.143 32.7599 217.898 33.0911C218.653 33.409 219.461 33.568 220.322 33.568C221.183 33.568 221.992 33.409 222.747 33.0911C223.502 32.7599 224.158 32.316 224.714 31.7596C225.271 31.1899 225.708 30.5341 226.026 29.7922C226.344 29.037 226.503 28.2354 226.503 27.3875C226.503 26.5396 226.344 25.7447 226.026 25.0028C225.708 24.2476 225.271 23.5918 224.714 23.0353C224.158 22.4789 223.502 22.0417 222.747 21.7237C221.992 21.3925 221.183 21.2269 220.322 21.2269C219.461 21.2269 218.653 21.3925 217.898 21.7237C217.143 22.0417 216.487 22.4789 215.93 23.0353C215.374 23.5918 214.93 24.2476 214.599 25.0028C214.281 25.7447 214.122 26.5396 214.122 27.3875Z" fill="white"/>
<mask id="mask0_5517_306" style="mask-type:luminance" maskUnits="userSpaceOnUse" x="1" y="0" width="45" height="51">
<path d="M45.2576 0H1.42676V50.2063H45.2576V0Z" fill="white"/>
</mask>
<g mask="url(#mask0_5517_306)">
<path d="M21.7202 42.4841C21.6923 41.2409 21.513 35.4951 21.3417 34.2678C21.242 33.5626 20.9273 32.941 20.5208 32.3592C19.6482 31.108 17.3252 29.4544 17.2176 29.3787C14.6993 27.6852 11.4359 27.3705 11.4359 27.3705C11.0494 27.3824 10.6668 27.3824 10.2883 27.4581C9.00127 27.7131 8.3199 28.4622 8.12465 29.8369C7.55087 29.1795 7.97722 27.9522 9.18456 26.7688C7.75408 26.3225 6.13234 26.6692 4.96484 27.7131C5.07641 27.3744 5.2358 27.1553 5.42706 26.96C6.04866 26.3105 6.85356 26.0396 7.71822 25.9001C8.2163 25.8204 8.71438 25.8284 9.3041 25.8364C8.43545 24.8601 7.94136 23.7923 7.82581 22.5251C8.0609 22.8758 8.28404 23.1946 8.49921 23.5213C9.59498 25.2028 11.0972 26.2468 13.1214 26.5297C14.2331 26.6851 15.3169 26.9919 16.3688 27.3983C16.4127 27.4143 16.4525 27.4501 16.5123 27.4103C16.1059 26.717 15.8827 25.932 15.3966 25.2785C14.9583 24.6888 14.4283 24.2226 13.7948 23.856C13.3246 23.5851 12.8305 23.3619 12.3802 23.0551C11.8224 22.6726 11.4558 22.1586 11.2566 21.4174C11.914 22.3299 12.8624 22.6287 13.7629 23.0033C14.0737 23.1308 14.3805 23.2663 14.6993 23.4018C14.516 22.2901 14.4323 21.1823 14.7431 20.0786C14.8945 21.9075 15.4245 23.597 16.5442 25.1231C16.7633 24.3541 17.2056 23.7285 17.4965 23.0312C17.6957 22.557 17.8033 22.0749 17.6559 21.4812C18.0264 21.9354 18.1022 22.3817 17.9986 22.8559C17.879 23.4018 17.7316 23.9437 17.5881 24.4856C17.4606 24.9677 17.4367 25.4578 17.4367 25.9519C17.4367 26.2269 17.5284 26.4739 17.6638 26.709C18.6401 28.3865 20.0666 29.5222 21.8876 30.1796C22.0111 30.2234 22.1067 30.2633 22.1187 30.0641C22.2661 26.9839 21.9712 23.9716 20.7519 21.0987C20.5567 20.6364 20.2897 20.2101 19.9789 19.8116C19.0186 18.5724 17.7674 18.2178 16.3051 18.7836C16.1577 18.8394 16.0142 18.9031 15.8668 18.9589C15.8588 18.947 15.8469 18.939 15.8349 18.927C16.3967 18.2178 17.1538 17.8791 18.0344 17.7635C18.0822 17.7595 18.134 17.7595 18.2217 17.7556C18.0663 17.5404 17.8591 17.4408 17.6559 17.3412C17.0104 17.0224 16.3131 16.8311 15.6476 16.5721C15.1695 16.3848 14.6993 16.1856 14.2889 15.8748C14.0339 15.6835 13.8067 15.4724 13.6991 15.1616C13.7111 15.1456 13.7231 15.1297 13.735 15.1137C14.4483 15.556 15.2531 15.7513 16.0501 15.9784C16.8111 16.1936 17.5602 16.4167 18.2416 16.8351C18.2615 16.8431 18.2974 16.859 18.3014 16.855C18.3213 16.8271 18.3054 16.8112 18.2735 16.8072C18.154 16.0661 18.0583 15.3289 18.15 14.5758C18.1699 14.4005 18.2018 14.2292 18.2456 14.0538C18.3452 15.8748 19.3294 17.2256 20.5567 18.4489C20.9631 18.8513 21.3696 19.2498 21.772 19.6562C22.2382 20.1264 22.6765 20.6165 22.9674 21.2421C22.9953 20.9193 23.0192 20.5926 23.0511 20.2698C23.1268 19.4251 23.2104 18.5844 23.2742 17.7396C23.3858 16.2892 22.9395 15.0062 22.0908 13.8426C21.4054 12.9023 20.6284 12.0655 19.5087 11.5993C19.7757 11.5276 20.2021 11.5754 20.5527 11.7388C21.7242 12.2886 22.7482 13.0138 23.4057 14.1694C23.4137 14.1813 23.4336 14.1853 23.5093 14.2212C23.5531 11.7109 23.2742 9.29619 22.2422 7.00104C22.3418 6.96917 22.4056 7.09668 22.4773 7.17637C23.1068 7.83782 23.4376 8.66662 23.7205 9.51136C23.9078 10.0652 24.0632 10.635 24.2504 11.2606C25.0713 10.0772 25.7885 8.85788 27.0955 8.20042C27.1393 8.18049 27.203 8.19643 27.3385 8.19643C25.3263 10.0373 24.4218 12.2568 24.6887 14.9783C25.0075 14.4882 25.3502 14.0777 25.7367 13.7072C26.4579 13.0138 27.2349 12.4002 28.1753 12.0177C28.6256 11.8344 29.0918 11.7149 29.6416 11.8583C29.3786 11.9579 29.1635 12.0336 28.9563 12.1213C27.6931 12.6632 26.7607 13.5677 26.0714 14.7352C25.1271 16.333 24.6967 18.0664 24.7047 19.983C25.5454 19.2338 26.5336 18.923 27.5417 18.6561C28.0757 18.5126 28.6096 18.3811 29.1396 18.2218C30.0441 17.9508 30.833 17.4846 31.4825 16.7913C32.2117 16.0143 32.4827 15.1018 32.2715 14.0498C32.2595 13.9941 32.2516 13.9383 32.2356 13.8705C32.8692 14.3646 32.909 15.9465 32.3352 17.0383C32.7935 17.2415 35.6226 16.2095 37.1925 15.2612C37.0172 15.6198 36.7462 15.8549 36.4514 16.0661C35.4552 16.7793 34.3315 17.2256 33.1919 17.652C32.399 17.9468 31.5901 18.1978 30.7215 18.4409C31.5861 18.6561 32.4269 18.7995 33.1083 19.4928C32.658 19.4132 32.2874 19.3056 31.9009 19.2737C29.8369 19.1223 27.9203 19.5486 26.1909 20.7042C25.2745 21.3178 24.7405 22.1865 24.5413 23.2623C24.2265 24.9518 24.1867 26.6453 24.4736 28.3427C24.4815 28.3985 24.5015 28.4543 24.5134 28.5061C24.5453 28.5101 24.5692 28.518 24.5772 28.5101C25.4897 27.5737 26.6173 26.9361 27.729 26.2827C28.3984 25.8882 29.0957 25.5296 29.6616 24.9837C30.6179 24.0592 30.7414 22.9356 30.0242 21.7003C30.2991 21.7362 30.4904 21.8836 30.6537 22.0589C31.1279 22.569 31.4467 23.1627 31.5025 23.868C31.5224 24.131 31.6698 24.2067 31.889 24.2067C32.2476 24.2027 32.5544 24.0353 32.8453 23.848C33.9809 23.1149 34.6384 22.3538 35.3675 20.9512C35.7381 22.0151 35.0049 23.3938 33.2876 24.8004C34.459 24.7087 35.5508 24.8322 36.6028 25.2307C37.6428 25.6252 38.5552 26.199 39.2127 27.1234C37.6866 26.2309 36.033 25.932 34.2997 25.9997C32.4309 26.0715 30.6458 26.4938 29.032 27.4741C26.9879 28.7173 25.7885 30.5661 25.4379 32.9051C25.0235 35.6744 24.8481 39.663 25.135 42.4642C24.5094 42.8826 22.9156 43.6795 21.7202 42.4841Z" fill="white"/>
<path d="M31.9528 4.30748C30.7773 4.83743 30.2274 5.9332 29.546 7.00108C29.3986 6.45519 29.4026 5.97305 29.4783 5.50685C29.8808 3.00849 31.9727 1.92068 34.0646 1.95655C34.1881 1.96053 34.2798 1.96452 34.2399 2.13585C33.9371 3.45078 33.6064 4.75774 32.8015 5.87742C32.2795 6.60262 31.6021 7.11664 30.7255 7.35173C30.4027 7.43939 30.3748 7.4115 30.4346 7.08874C30.6179 6.0886 31.1399 5.26379 31.7774 4.49874C31.8332 4.43498 31.893 4.37123 31.9528 4.30748Z" fill="white"/>
<path d="M42.1653 18.154C41.0137 18.2257 40.169 18.9549 39.2246 19.5884C39.3601 18.8553 39.6629 18.2576 40.1371 17.7595C41.2727 16.5681 42.6554 16.317 44.2014 16.7554C44.4166 16.8191 44.6357 16.8749 44.8429 16.9825C44.9744 17.0502 44.9824 17.11 44.8987 17.2295C44.2731 18.0783 43.6316 18.919 42.7789 19.5526C42.0338 20.1024 41.201 20.4371 40.2447 20.3495C40.1172 20.3375 39.9618 20.3614 39.894 20.2379C39.8183 20.0945 39.9498 19.9749 40.0295 19.8713C40.5754 19.1461 41.3006 18.652 42.1095 18.2655C42.1374 18.2536 42.1613 18.2376 42.1852 18.2217C42.1772 18.2018 42.1692 18.1779 42.1653 18.154Z" fill="white"/>
<path d="M21.4926 5.04459C21.0941 4.23173 20.7475 3.37902 20.0462 2.74945C19.9585 2.66975 19.8589 2.606 19.6836 2.55021C20.0501 3.00446 20.2813 3.47465 20.4845 3.96077C20.6439 4.3433 20.7554 4.73777 20.7634 5.16014C20.7674 5.39125 20.6757 5.40321 20.4964 5.3275C19.8031 5.03662 19.2572 4.57839 18.8707 3.92889C18.2371 2.86898 18.0778 1.68157 17.9144 0.494147C17.8825 0.274992 18.0937 0.354685 18.1654 0.362654C18.9225 0.434377 19.6039 0.685409 20.2374 1.13169C21.4248 1.96447 21.9986 3.50254 21.5962 4.89716C21.5842 4.94896 21.5763 5.00873 21.4926 5.04459Z" fill="white"/>
<path d="M10.5037 18.1579C10.9101 18.5126 11.3484 18.8234 11.6951 19.2418C11.9421 19.5366 12.1732 19.8395 12.3366 20.1901C12.4521 20.4332 12.3685 20.477 12.1413 20.469C11.0894 20.4292 10.2566 19.951 9.57126 19.1939C8.9656 18.5245 8.52729 17.7435 8.10492 16.9546C7.98937 16.7354 8.05711 16.6637 8.26431 16.6199C9.34813 16.3848 10.4041 16.4127 11.3803 16.9984C12.3725 17.5921 13.018 18.7238 13.0419 19.8793C12.2649 19.17 11.5835 18.3612 10.5037 18.1579Z" fill="white"/>
<path d="M4.86951 17.7514C4.64238 18.8073 5.08866 19.7437 5.45525 20.7598C4.96912 20.5526 4.61847 20.2856 4.31963 19.943C3.25175 18.7077 3.11627 17.07 3.96101 15.6754C4.08453 15.4762 4.22798 15.2889 4.35549 15.0897C4.43917 14.9582 4.51487 14.9422 4.62246 15.0737C5.48712 16.1257 6.32788 17.1896 6.52711 18.6041C6.6068 19.1659 6.5032 19.6959 6.29202 20.2179C6.21631 20.4012 6.13263 20.3773 6.01708 20.2577C5.56682 19.7955 5.29586 19.2337 5.10061 18.628C5.01295 18.3332 4.94521 18.0423 4.86951 17.7514Z" fill="white"/>
<path d="M4.84151 27.3107C4.20795 27.9243 3.57041 28.5379 3.1839 29.3468C3.16398 29.3867 3.17992 29.4424 3.17992 29.5102C3.35524 29.4823 3.42697 29.3468 3.51861 29.2392C3.95294 28.7372 4.43906 28.2949 5.04472 28C5.14832 27.9482 5.27185 27.8566 5.37545 27.9243C5.48303 27.996 5.42326 28.1435 5.41529 28.255C5.32365 29.4225 4.68611 30.2633 3.78957 30.9446C3.19187 31.3989 2.52246 31.7376 1.85702 32.0803C1.67771 32.1719 1.59404 32.14 1.55021 31.9368C1.28324 30.5741 1.41473 29.307 2.44675 28.263C3.03647 27.6693 3.76566 27.3465 4.59845 27.2549C4.66618 27.2469 4.74986 27.219 4.84151 27.3107Z" fill="white"/>
<path d="M11.8538 12.6312C11.4234 12.3563 11.0329 12.0256 10.5787 11.7865C10.1364 11.5554 9.70205 11.3083 9.10037 11.3362C9.65025 11.6072 10.1125 11.8781 10.5229 12.2288C10.8217 12.4878 11.1007 12.7587 11.2999 13.1094C11.3915 13.2688 11.3557 13.3285 11.1764 13.3564C10.3794 13.48 9.64228 13.2927 8.97287 12.8743C7.96874 12.2527 7.27541 11.3322 6.60201 10.3919C6.54224 10.3082 6.53826 10.2484 6.63787 10.2086C7.70177 9.77027 8.78957 9.6069 9.88136 10.0811C10.9731 10.5513 11.6545 11.388 11.9016 12.5595C11.9056 12.5675 11.9016 12.5794 11.8976 12.5874C11.8777 12.6033 11.8657 12.6193 11.8538 12.6312Z" fill="white"/>
<path d="M39.8386 25.3063C40.791 25.1748 41.7632 25.139 42.6398 24.5293C42.4446 24.4815 42.337 24.5692 42.2214 24.5771C42.1059 24.5851 41.9903 24.625 41.8748 24.6449C41.2572 24.7604 40.6435 24.7764 40.0299 24.625C39.7829 24.5652 39.751 24.4935 39.9303 24.2863C40.528 23.6049 41.289 23.2742 42.1736 23.1746C43.1578 23.063 44.1141 23.2463 45.0744 23.4256C45.2139 23.4535 45.3175 23.4893 45.2298 23.6766C44.66 24.864 43.8312 25.7526 42.4804 25.9957C41.6277 26.1511 40.8149 25.9917 40.0697 25.5335C39.9821 25.4817 39.8904 25.4378 39.8386 25.3063Z" fill="white"/>
<path d="M38.0534 15.034C38.408 14.5997 38.7387 14.2411 39.0216 13.8426C39.3045 13.4441 39.5675 13.0218 39.6273 12.44C39.3603 12.7867 39.1412 13.0935 38.8981 13.3804C38.5634 13.7789 38.2048 14.1574 37.7187 14.3805C37.5553 14.4562 37.5035 14.4244 37.4955 14.2371C37.4477 13.4043 37.7266 12.6831 38.2327 12.0495C38.9021 11.2088 39.8066 10.6589 40.7151 10.121C40.8227 10.0572 40.8825 10.0612 40.9263 10.1967C41.4164 11.7188 41.1933 13.4362 39.6671 14.4762C39.197 14.787 38.6829 14.9583 38.0534 15.034Z" fill="white"/>
<path d="M40.5514 29.8926C40.6909 29.538 40.6152 29.2591 40.5434 28.9881C40.4119 28.4821 40.2526 27.988 40.0095 27.5218C39.9736 27.45 39.882 27.3544 39.9776 27.2867C40.0454 27.2389 40.1211 27.3225 40.1888 27.3584C41.7309 28.1991 42.3126 29.9325 41.5994 31.5343C41.4679 31.8331 41.3165 32.116 41.1332 32.387C41.0535 32.5065 40.9897 32.5304 40.8861 32.4149C40.133 31.5781 39.3959 30.7254 39.0811 29.6137C38.9097 29.016 38.9137 28.4143 39.1249 27.8166C39.2046 27.5935 39.2962 27.5895 39.4477 27.7489C39.9139 28.239 40.1928 28.8287 40.408 29.4583C40.4518 29.5778 40.4877 29.6974 40.5514 29.8926Z" fill="white"/>
<path d="M25.4732 4.72977C25.8199 3.95277 26.322 3.23155 26.2224 2.33102C26.0231 2.81316 25.8119 3.28733 25.5131 3.72166C25.3617 3.94081 25.1744 4.13207 24.9831 4.31138C24.8596 4.42694 24.7919 4.411 24.7441 4.24364C24.497 3.40289 24.6843 2.62987 25.1146 1.8967C25.525 1.1954 26.0909 0.621619 26.6846 0.0717401C26.8001 -0.0318602 26.8599 -0.0199063 26.9316 0.0996325C27.9078 1.74528 27.597 3.7097 25.8438 4.64609C25.7402 4.70188 25.6366 4.76563 25.4732 4.72977Z" fill="white"/>
<path d="M15.9902 6.93722C15.269 6.47899 14.5597 6.0088 13.6712 5.98888C14.1812 6.26382 14.6992 6.51485 15.1216 6.92128C15.2132 7.00895 15.3128 7.09262 15.3885 7.19622C15.4682 7.29982 15.6276 7.40741 15.5599 7.53492C15.5001 7.64649 15.3168 7.6425 15.1813 7.65047C14.3087 7.71821 13.5596 7.40342 12.8942 6.86948C12.3682 6.4511 11.9219 5.95302 11.5035 5.43103C11.4079 5.31149 11.3401 5.19992 11.5434 5.11226C12.5116 4.70185 13.4879 4.52652 14.484 5.00866C15.2252 5.36728 15.7272 5.95302 16.0061 6.73002C16.0141 6.78182 16.05 6.83761 15.9902 6.93722Z" fill="white"/>
<path d="M7.80184 29.8728C7.85762 30.6378 7.90146 31.3949 8.3557 32.0643C8.33179 31.8731 8.31586 31.6778 8.28796 31.4866C8.22421 31.0323 8.24413 30.586 8.34773 30.1398C8.37164 30.0402 8.37563 29.9007 8.49516 29.8728C8.59877 29.8449 8.65853 29.9644 8.72229 30.0322C9.38374 30.7096 9.49929 31.5503 9.43952 32.4389C9.40366 32.9689 9.26818 33.4829 9.14466 33.9969C9.10083 34.1682 9.05301 34.3515 8.798 34.1881C7.94927 33.6502 7.29978 32.9649 7.1643 31.9249C7.06468 31.1598 7.27985 30.4705 7.80184 29.8728Z" fill="white"/>
<path d="M35.1403 9.10491C34.4509 9.28023 33.9887 9.77433 33.4588 10.2724C33.3791 9.83011 33.5265 9.48743 33.6939 9.17265C34.3912 7.84577 35.7181 7.51903 36.9971 7.82186C37.1007 7.84577 37.1764 7.86968 37.1485 8.01312C36.9652 9.00529 35.5109 10.4756 34.4908 10.6868C34.3075 10.7227 34.0644 10.8024 33.9608 10.6629C33.8572 10.5274 34.0365 10.3401 34.1282 10.1927C34.3234 9.87394 34.5785 9.599 34.8693 9.35993C34.957 9.28023 35.0447 9.19257 35.1403 9.10491Z" fill="white"/>
<path d="M16.6754 13.6553C16.54 13.2568 16.4364 12.8464 16.2292 12.4798C16.1455 12.3284 16.1056 12.0574 15.8944 12.1092C15.7988 12.1331 15.9303 12.4041 15.9821 12.5555C16.1096 12.9141 16.1734 13.2727 16.1534 13.6553C16.1415 13.8465 16.0817 13.8784 15.9223 13.7828C15.4561 13.5078 15.1214 13.1134 14.9262 12.6153C14.6313 11.8582 14.5875 11.0653 14.6034 10.2643C14.6074 10.1329 14.6512 10.0571 14.8066 10.101C15.8187 10.3839 16.5878 10.9417 16.8946 11.9897C17.038 12.4918 17.0022 13.0018 16.8229 13.4999C16.795 13.5556 16.779 13.6314 16.6754 13.6553Z" fill="white"/>
<path d="M4.02863 23.8599C4.35537 24.5253 4.98096 24.872 5.62248 25.2904C4.81759 25.4458 4.15215 25.2784 3.56641 24.8122C2.897 24.2743 2.64198 23.5372 2.57823 22.7123C2.56229 22.4932 2.60214 22.3856 2.86911 22.4493C3.70986 22.6446 4.52671 22.8877 5.19613 23.4734C5.49896 23.7404 5.70217 24.0711 5.84164 24.4456C5.87351 24.5333 5.93727 24.6449 5.87351 24.7286C5.79781 24.8282 5.68624 24.7405 5.59857 24.7206C5.00088 24.5692 4.49882 24.2464 4.02863 23.8599Z" fill="white"/>
<path d="M19.8871 8.94153C19.8194 9.69463 20.2418 10.2445 20.5167 10.8542C19.7596 10.6868 19.0304 9.87792 18.9228 9.08896C18.8392 8.44744 18.9547 7.83779 19.2695 7.26799C19.3572 7.10462 19.4289 7.10462 19.5524 7.22416C20.0385 7.70231 20.5286 8.16851 20.8554 8.77418C21.1144 9.25632 21.218 9.76635 21.1184 10.3083C21.1024 10.3919 21.1024 10.4995 21.0028 10.5274C20.9152 10.5513 20.8713 10.4597 20.8116 10.4079C20.3653 10.0214 20.1262 9.51133 19.8871 8.94153Z" fill="white"/>
<path d="M26.4897 24.1069C26.1271 24.3261 26.0115 24.7246 25.7964 25.0553C25.5334 24.7445 25.7007 23.7961 26.0594 23.3738C26.4459 22.9155 26.9479 22.7083 27.5177 22.6167C27.6333 22.5968 27.7488 22.5968 27.721 22.7681C27.5895 23.573 27.4859 24.3938 26.8045 24.9716C26.6331 25.119 26.414 25.3382 26.2227 25.2147C26.0633 25.1111 26.2108 24.8401 26.2825 24.6489C26.3502 24.4656 26.422 24.2863 26.4897 24.1069ZM26.5335 23.9755L26.5216 23.9914L26.5375 23.9954L26.5335 23.9755Z" fill="white"/>
<path d="M20.1583 25.9041C20.2619 26.1631 20.3575 26.3822 20.4452 26.6093C20.5009 26.7528 20.5806 26.948 20.4531 27.0437C20.3376 27.1353 20.1782 26.9919 20.0547 26.9201C19.7359 26.7368 19.5088 26.4579 19.3613 26.1352C19.1422 25.661 19.0187 25.1549 18.9629 24.633C18.9469 24.4656 18.9947 24.4138 19.1501 24.4337C20.2937 24.5772 21.1425 25.3701 20.9831 26.685C20.9751 26.7448 20.9751 26.8165 20.9074 26.8285C20.8317 26.8444 20.8157 26.7647 20.7878 26.7169C20.6603 26.5057 20.5408 26.2945 20.4133 26.0834C20.3694 26.0037 20.3216 25.916 20.1583 25.9041ZM20.0945 25.8124L20.0786 25.8044V25.8204L20.0945 25.8124Z" fill="white"/>
<path d="M35.9411 18.4209C35.4111 18.3213 34.9569 18.5644 34.4189 18.7118C34.5983 18.2575 34.8891 17.9707 35.2717 17.7913C36.0526 17.4248 36.7778 17.5762 37.4672 18.0543C37.5708 18.1261 37.5987 18.1978 37.4911 18.2854C36.9572 18.7237 36.4272 19.1621 35.7259 19.3135C35.439 19.3732 35.1601 19.3653 34.8812 19.2975C34.7935 19.2776 34.6939 19.2537 34.67 19.1581C34.6461 19.0585 34.7417 19.0067 34.8055 18.9509C35.0206 18.7755 35.2717 18.66 35.5307 18.5683C35.6701 18.5165 35.8056 18.4687 35.9411 18.4209Z" fill="white"/>
<path d="M36.4238 23.3339C36.5992 22.7522 37.404 22.2541 38.1532 22.2979C38.6074 22.3258 39.0138 22.4971 39.3924 22.7322C39.492 22.792 39.5717 22.8677 39.4362 22.9833C38.8863 23.4495 38.3205 23.8878 37.5873 24.0312C37.3204 24.083 37.0574 24.0631 36.8024 23.9914C36.7187 23.9675 36.6111 23.9476 36.5872 23.8559C36.5673 23.7603 36.6669 23.7085 36.7346 23.6567C37.0813 23.3817 37.4917 23.2423 37.9818 23.1108C37.5276 23.0231 37.1729 23.1267 36.8223 23.2582C36.7028 23.302 36.5952 23.3817 36.4637 23.3857C36.4517 23.3618 36.4398 23.3499 36.4238 23.3339Z" fill="white"/>
<path d="M22.0354 17.3052C21.7963 16.9426 21.617 16.5321 21.1747 16.2492C21.3659 16.5999 21.5652 16.8669 21.6329 17.1976C21.6568 17.3012 21.7166 17.4327 21.6249 17.5044C21.5373 17.5761 21.4177 17.4924 21.3221 17.4486C20.824 17.2255 20.5371 16.8071 20.3299 16.3249C20.1666 15.9424 20.0829 15.54 20.0072 15.1335C19.9873 15.022 20.0032 14.9622 20.1267 14.9662C21.4018 15.01 22.3302 15.9783 22.1031 17.2414C22.1031 17.2534 22.0792 17.2653 22.0354 17.3052Z" fill="white"/>
<path d="M27.8601 16.345C27.4457 16.5761 27.2345 16.9467 26.9277 17.3173C26.844 16.7634 26.9795 16.3211 27.2744 15.9306C27.7246 15.3369 28.3542 15.1416 29.0754 15.1735C29.2069 15.1775 29.2906 15.2134 29.2428 15.3648C29.0117 16.082 28.7646 16.7873 28.1191 17.2575C27.896 17.4209 27.5653 17.6559 27.382 17.4966C27.1827 17.3212 27.4895 17.0343 27.5931 16.8032C27.6569 16.6518 27.8123 16.5562 27.8601 16.345Z" fill="white"/>
<path d="M34.614 13.9103C34.3351 14.0259 34.2275 14.2889 34.092 14.5279C34.0004 14.6873 33.9247 14.8547 33.829 15.034C33.5422 14.4323 33.7972 13.6433 34.2594 13.2449C34.5503 12.9939 34.9009 12.8663 35.2715 12.7867C35.4189 12.7548 35.5345 12.7827 35.5066 12.9739C35.399 13.7151 35.2994 14.4602 34.6778 14.9941C34.61 15.0539 34.5423 15.1017 34.4626 15.1376C34.3829 15.1734 34.3032 15.1974 34.2036 15.2372C34.1398 14.7232 34.367 14.3128 34.614 13.9103Z" fill="white"/>
<path d="M33.0482 21.7161C32.594 22.0548 32.4386 22.5091 32.2194 22.9354C31.8449 22.1026 32.3549 21.0746 33.2873 20.7598C33.9129 20.5486 33.9368 20.5606 33.8492 21.1981C33.7854 21.6763 33.6659 22.1425 33.371 22.5409C33.2276 22.7362 33.0562 22.8916 32.8371 22.9912C32.7693 23.0231 32.6936 23.0948 32.6219 23.035C32.5542 22.9793 32.582 22.8876 32.594 22.8119C32.6418 22.4334 32.8012 22.0987 33.0482 21.7161Z" fill="white"/>
<path d="M24.6205 8.27204C24.4611 8.52706 24.4491 8.79005 24.3734 9.09288C24.0945 8.69043 24.0068 8.29197 24.1104 7.88554C24.2579 7.2998 24.6404 6.89336 25.1982 6.6503C25.3457 6.58655 25.4214 6.62639 25.4413 6.78179C25.513 7.40738 25.5768 8.03297 25.262 8.62269C25.2461 8.65058 25.2341 8.67449 25.2182 8.6984C25.1146 8.88169 24.9512 9.10882 24.7759 9.07295C24.5766 9.03311 24.6882 8.75418 24.6723 8.57886C24.6603 8.4912 24.7002 8.40354 24.6205 8.27204Z" fill="white"/>
<path d="M27.9876 9.92568C27.5812 10.0492 27.3222 10.372 27.0194 10.6708C26.9237 10.5274 26.9915 10.4078 27.0154 10.2962C27.2106 9.43158 28.1191 8.94944 28.9519 9.1168C29.0515 9.13672 29.1352 9.17657 29.0874 9.28814C28.7965 9.97349 28.4618 10.631 27.7047 10.9298C27.5812 10.9776 27.4059 11.0772 27.3222 10.9657C27.2345 10.8501 27.3541 10.6947 27.4417 10.5752C27.6011 10.3401 27.7844 10.1249 27.9876 9.92568Z" fill="white"/>
<path d="M36.4631 23.3776C36.4353 23.4094 36.3956 23.4332 36.3718 23.3974C36.3401 23.3538 36.3956 23.3458 36.4234 23.33C36.4393 23.3498 36.4512 23.3617 36.4631 23.3776Z" fill="white"/>
<path d="M15.8714 18.9592C15.8512 18.9673 15.8149 18.9834 15.8109 18.9794C15.7907 18.9511 15.8109 18.935 15.8391 18.931C15.8472 18.939 15.8593 18.9471 15.8714 18.9592Z" fill="white"/>
<path d="M13.6991 15.1582C13.6911 15.138 13.679 15.1179 13.6709 15.0977C13.6951 15.1017 13.7153 15.1058 13.7394 15.1098C13.7233 15.1259 13.7112 15.1421 13.6991 15.1582Z" fill="white"/>
<path d="M11.8948 12.5914C11.8988 12.6116 11.9069 12.6358 11.915 12.6559C11.8948 12.6479 11.8747 12.6398 11.8545 12.6318C11.8666 12.6197 11.8787 12.6035 11.8948 12.5914Z" fill="white"/>
<path d="M18.2735 16.7993C18.3017 16.8033 18.3219 16.8194 18.3017 16.8476C18.2977 16.8517 18.2614 16.8355 18.2412 16.8275C18.2533 16.8194 18.2654 16.8073 18.2735 16.7993Z" fill="white"/>
<path d="M26.5336 23.9755L26.5377 23.9958L26.5215 23.9917L26.5336 23.9755Z" fill="white"/>
<path d="M20.0951 25.8131L20.0781 25.8174V25.8004L20.0951 25.8131Z" fill="white"/>
</g>
<path d="M23.992 31.1119C23.9283 31.9766 24.1952 39.902 24.0637 40.7587C24.0159 41.0695 24.1115 41.2408 24.3705 41.3923C25.9564 42.3286 27.6379 42.488 29.3912 41.978C30.8814 41.5437 32.3637 41.0854 33.9177 40.9181C35.651 40.7308 37.3126 40.9978 38.9264 41.6194C39.1894 41.719 39.4803 41.7867 39.7632 41.8027C40.7872 41.8664 41.8192 41.8864 42.8154 41.5835C43.2258 41.46 43.6123 41.2448 43.9829 41.0297C44.3216 40.8344 44.5806 40.8145 44.7838 41.0576C44.975 41.2887 44.9232 41.5875 44.6324 41.8266C43.9869 42.3645 43.2059 42.5877 42.389 42.7231C42.1539 42.763 41.9188 42.7949 41.5722 42.8506C41.7674 42.9582 41.867 43.022 41.9746 43.0698C43.0186 43.524 44.0546 43.9863 45.2062 44.1177C45.513 44.1496 45.6883 44.3927 45.6485 44.6676C45.6006 44.9744 45.3895 45.1498 45.0946 45.1059C44.5527 45.0223 43.9869 44.9585 43.4848 44.7513C42.146 44.2054 40.8151 43.6316 39.5281 42.9901C36.9859 41.723 34.372 41.6074 31.6704 42.3805C31.3954 42.4601 31.3277 42.5637 31.4353 42.8347C31.8417 43.8627 32.6665 44.3927 33.6906 44.6517C34.2684 44.7991 34.87 44.8549 35.4598 44.9306C36.6312 45.082 36.7787 45.1976 37.0935 46.3332C37.0974 46.3452 37.0935 46.3531 37.0895 46.397C37.0417 46.393 36.9819 46.4049 36.942 46.381C36.169 45.9945 35.3283 45.9188 34.4835 45.8391C33.6707 45.7634 32.8976 45.5442 32.1884 45.1458C31.3476 44.6756 30.738 44.0062 30.4391 43.0897C30.3714 42.8785 30.3037 42.755 30.0327 42.8467C28.2436 43.4523 26.4625 43.4603 24.7092 42.7191C24.6734 42.7032 24.6216 42.7112 24.514 42.7072C24.5738 42.8387 24.6096 42.9383 24.6614 43.0299C25.8608 45.1259 27.7136 46.3571 30.0486 46.9588C30.8695 47.17 31.7023 47.3732 32.5032 47.6441C33.6986 48.0466 34.7107 48.7559 35.6072 49.6205C36.5197 50.4971 37.5517 51.1666 38.7869 51.5292C39.1934 51.6487 39.3448 51.8918 39.2491 52.1906C39.1535 52.4934 38.8626 52.5891 38.4522 52.4775C37.0974 52.1029 35.9658 51.3698 34.9657 50.4214C34.7625 50.2302 34.5513 50.0548 34.3401 49.8676C34.3162 49.8835 34.2923 49.8994 34.2684 49.9154C34.368 50.3377 34.4835 50.7561 34.5672 51.1825C34.7824 52.2583 34.7784 53.3382 34.5313 54.41C34.4437 54.7886 34.1926 55.0037 33.9018 54.948C33.575 54.8842 33.4236 54.6133 33.5192 54.1989C33.9177 52.4456 33.575 50.792 32.8299 49.1902C32.6865 48.8794 32.4753 48.6762 32.1406 48.5845C31.244 48.3415 30.3435 48.0984 29.447 47.8434C27.0602 47.166 25.1595 45.8431 23.8725 43.7312C23.8326 43.6675 23.7768 43.6117 23.6732 43.4842C23.6453 43.6635 23.6135 43.7671 23.6175 43.8667C23.6493 45.0183 23.6812 46.1658 23.7171 47.3174C23.729 47.6441 23.8884 47.8633 24.1554 48.0745C26.1756 49.6444 27.8093 51.5092 28.7297 53.908C28.7337 53.9199 28.7417 53.9279 28.7417 53.9398C28.9449 55.2189 29.9769 55.5576 31.0289 55.8206C31.4393 55.9242 31.8975 55.8843 32.3278 55.8764C32.6904 55.8684 32.9614 56.0198 32.9973 56.3107C33.0331 56.5896 32.8339 56.8168 32.4872 56.8805C31.5827 57.0399 30.726 56.8606 29.8853 56.5418C29.8135 56.5139 29.7378 56.49 29.5864 56.4382C29.6342 56.6135 29.6581 56.7371 29.702 56.8526C30.1443 57.9364 30.6503 58.9844 31.4313 59.8809C31.6465 60.128 31.6226 60.4149 31.3994 60.6061C31.1843 60.7894 30.8575 60.7934 30.6623 60.5344C30.224 59.9447 29.7817 59.347 29.4231 58.7055C28.7098 57.4304 28.3074 56.0398 27.877 54.6531C27.2395 52.605 25.9285 50.9872 24.3466 49.5568C24.3227 49.5368 24.2869 49.5329 24.1912 49.493C24.2151 49.6643 24.2311 49.7958 24.255 49.9313C24.4702 51.0749 24.7172 52.2105 24.8925 53.3621C25.028 54.2546 24.9045 55.1432 24.6495 56.0079C24.3267 57.0837 24.6017 58.0759 25.4902 58.7652C26.4864 59.5462 26.9088 60.5663 26.9167 61.7856C26.9167 61.8732 26.9167 61.9689 26.8968 62.0565C26.845 62.3355 26.6816 62.5028 26.3828 62.5108C26.1078 62.5148 25.9126 62.3076 25.8767 62.0087C25.8289 61.5943 25.8329 61.164 25.7054 60.7775C25.5938 60.4348 25.3587 60.12 25.1316 59.8331C24.9682 59.6219 24.7172 59.4785 24.522 59.2872C24.3387 59.1039 24.1793 58.8967 23.9681 58.6497C23.9362 58.8649 23.9123 59.0322 23.8844 59.1996C23.6613 60.6101 23.6772 62.0127 24.0438 63.4033C24.0478 63.4153 24.0478 63.4233 24.0518 63.4352C24.1514 63.8536 24.0319 64.1246 23.7131 64.2003C23.4023 64.276 23.1513 64.0927 23.0477 63.6743C22.956 63.2997 22.8683 62.9252 22.8126 62.5466C22.5735 60.9129 22.7368 59.3032 23.1114 57.7053C23.3465 56.7171 23.6214 55.7409 23.8446 54.7527C23.9163 54.43 23.8924 54.0873 23.9163 53.7526C23.8605 53.7127 23.8047 53.6689 23.745 53.629C23.7091 53.7207 23.7011 53.8283 23.6374 53.9C23.2349 54.3742 22.8524 54.8762 22.4021 55.3066C21.7048 55.972 21.2068 56.7012 21.2346 57.7013C21.2426 58.0161 21.0155 58.2353 20.7326 58.2432C20.4497 58.2472 20.2265 58.044 20.2106 57.7252C20.1548 56.6853 20.5453 55.8047 21.2346 55.0356C21.4379 54.8085 21.673 54.6053 21.9001 54.3941C22.6492 53.6968 23.1552 52.8401 23.5139 51.8957C23.5497 51.8041 23.5856 51.6925 23.5657 51.6009C23.3824 50.7641 23.1871 49.9313 22.9879 49.0706C22.8962 49.0985 22.8325 49.1025 22.7966 49.1304C21.0753 50.5609 19.6448 52.2065 18.8678 54.3184C18.4853 55.3584 18.1864 56.4263 17.7959 57.4623C17.4214 58.4624 16.9153 59.4028 16.2419 60.2475C16.1782 60.3272 16.1144 60.4069 16.0427 60.4826C15.7677 60.7775 15.4689 60.8253 15.2298 60.6141C14.9868 60.4029 15.0027 60.128 15.2736 59.8092C16.0666 58.8768 16.5686 57.789 17.0109 56.6693C17.0309 56.6215 17.0229 56.5657 17.0309 56.4661C16.9153 56.502 16.8316 56.5219 16.7559 56.5538C15.9271 56.8725 15.0784 57.0479 14.1858 56.9004C13.8033 56.8367 13.6001 56.6175 13.6439 56.3266C13.6878 56.0158 13.9547 55.8565 14.3492 55.9003C15.5326 56.0437 16.5487 55.6572 17.4652 54.9639C17.5568 54.8962 17.6325 54.7726 17.6644 54.6611C18.3697 52.2265 19.8799 50.3258 21.7606 48.6642C21.8483 48.5885 21.924 48.4969 22.0236 48.4451C22.6572 48.1183 22.7568 47.6322 22.6412 46.9628C22.5137 46.2216 22.5575 45.4566 22.5296 44.6995C22.5257 44.572 22.5296 44.4405 22.5296 44.313C22.4898 44.2891 22.45 44.2652 22.4101 44.2453C22.3742 44.313 22.3503 44.3887 22.3025 44.4485C20.8083 46.4408 18.7602 47.5525 16.3375 48.0825C15.6641 48.2299 15.0107 48.449 14.3612 48.6722C14.1858 48.7319 14.0025 48.8953 13.9189 49.0547C13.0741 50.7083 12.7115 52.4337 13.1419 54.2746C13.2176 54.6013 13.0741 54.8683 12.7872 54.948C12.5123 55.0237 12.2413 54.8563 12.1537 54.5256C11.8389 53.3541 11.8668 52.1786 12.1218 51.0032C12.1975 50.6525 12.2931 50.3059 12.3808 49.9592C12.3529 49.9393 12.329 49.9194 12.3051 49.8955C12.1377 50.0389 11.9624 50.1784 11.7991 50.3298C10.9264 51.1466 9.99003 51.8678 8.83449 52.2743C8.57549 52.3659 8.31649 52.4576 8.04952 52.5293C7.75864 52.609 7.47573 52.4496 7.38807 52.1826C7.31236 51.9436 7.45581 51.6567 7.74669 51.577C9.1692 51.1944 10.2929 50.3577 11.3368 49.3695C12.6757 48.1024 14.3253 47.4529 16.1144 47.0783C18.3737 46.6081 20.2664 45.5602 21.6012 43.6635C21.7845 43.4005 21.9399 43.1136 22.1073 42.8387C22.0874 42.8148 22.0674 42.7949 22.0475 42.7709C21.92 42.8068 21.7925 42.8347 21.669 42.8785C20.0432 43.4364 18.4135 43.4284 16.7878 42.9104C16.473 42.8108 16.3176 42.8028 16.1861 43.1694C15.6442 44.6477 14.4528 45.3729 12.9705 45.7036C12.2095 45.875 11.4245 45.9347 10.6555 46.0782C9.25686 46.3372 8.2886 47.1779 7.61519 48.3654C7.44784 48.6602 7.34822 48.987 7.23665 49.3057C7.11313 49.6564 6.87804 49.8237 6.57122 49.744C6.2923 49.6683 6.15284 49.4053 6.23253 49.0627C6.41981 48.2777 6.8103 47.5923 7.31236 46.9628C7.36815 46.891 7.42792 46.8233 7.4837 46.7516C7.49565 46.7356 7.49167 46.7078 7.50362 46.632C7.38807 46.6161 7.2765 46.5922 7.16095 46.5802C6.50348 46.5006 5.87391 46.3292 5.30809 45.9786C4.9694 45.7674 4.87776 45.4725 5.05308 45.2095C5.22043 44.9545 5.49139 44.9226 5.84602 45.1099C7.04141 45.7355 8.27266 45.7395 9.55571 45.3689C10.3327 45.1418 11.1496 45.0422 11.9425 44.8549C12.5761 44.7075 13.2216 44.568 13.8232 44.3289C14.5086 44.054 14.9628 43.5081 15.2298 42.8188C15.3175 42.5916 15.2697 42.4721 15.0186 42.4004C12.321 41.6234 9.70712 41.727 7.16095 42.9901C5.86993 43.6316 4.53906 44.2014 3.20421 44.7553C2.73403 44.9505 2.20806 45.0262 1.70201 45.1099C1.30355 45.1777 1.04454 44.9904 1.0047 44.6756C0.964852 44.3728 1.18002 44.1656 1.59044 44.1098C2.76989 43.9464 3.83777 43.4643 4.90166 42.9781C4.93752 42.9622 4.96542 42.9224 5.01722 42.8745C4.5032 42.7749 4.00114 42.7311 3.54689 42.5717C3.0249 42.3884 2.51886 42.1334 2.04469 41.8465C1.69404 41.6353 1.66615 41.3166 1.87733 41.0695C2.08453 40.8264 2.35549 40.8105 2.67027 41.0576C3.40743 41.6274 4.28405 41.7429 5.16863 41.8266C5.30411 41.8385 5.44357 41.8346 5.58303 41.8425C6.61107 41.9182 7.57535 41.707 8.5476 41.3684C10.5758 40.6591 12.6478 40.7627 14.7078 41.2847C15.7199 41.5437 16.7161 41.8784 17.7322 42.1135C19.4734 42.5159 21.1151 42.2171 22.6452 41.3126C22.8564 41.1851 22.9799 41.0336 22.9998 40.7786C23.1234 39.3163 22.9321 32.5623 22.9879 31.1" fill="white"/>
<path d="M23.992 31.1119C23.9283 31.9766 24.1952 39.902 24.0637 40.7587C24.0159 41.0695 24.1115 41.2408 24.3705 41.3923C25.9564 42.3286 27.6379 42.488 29.3912 41.978C30.8814 41.5437 32.3637 41.0854 33.9177 40.9181C35.651 40.7308 37.3126 40.9978 38.9264 41.6194C39.1894 41.719 39.4803 41.7867 39.7632 41.8027C40.7872 41.8664 41.8192 41.8864 42.8154 41.5835C43.2258 41.46 43.6123 41.2448 43.9829 41.0297C44.3216 40.8344 44.5806 40.8145 44.7838 41.0576C44.975 41.2887 44.9232 41.5875 44.6324 41.8266C43.9869 42.3645 43.2059 42.5877 42.389 42.7231C42.1539 42.763 41.9188 42.7949 41.5722 42.8506C41.7674 42.9582 41.867 43.022 41.9746 43.0698C43.0186 43.524 44.0546 43.9863 45.2062 44.1177C45.513 44.1496 45.6883 44.3927 45.6485 44.6676C45.6006 44.9744 45.3895 45.1498 45.0946 45.1059C44.5527 45.0223 43.9869 44.9585 43.4848 44.7513C42.146 44.2054 40.8151 43.6316 39.5281 42.9901C36.9859 41.723 34.372 41.6074 31.6704 42.3805C31.3954 42.4601 31.3277 42.5637 31.4353 42.8347C31.8417 43.8627 32.6665 44.3927 33.6906 44.6517C34.2684 44.7991 34.87 44.8549 35.4598 44.9306C36.6312 45.082 36.7787 45.1976 37.0935 46.3332C37.0974 46.3452 37.0935 46.3531 37.0895 46.397C37.0417 46.393 36.9819 46.4049 36.942 46.381C36.169 45.9945 35.3283 45.9188 34.4835 45.8391C33.6707 45.7634 32.8976 45.5442 32.1884 45.1458C31.3476 44.6756 30.738 44.0062 30.4391 43.0897C30.3714 42.8785 30.3037 42.755 30.0327 42.8467C28.2436 43.4523 26.4625 43.4603 24.7092 42.7191C24.6734 42.7032 24.6216 42.7112 24.514 42.7072C24.5738 42.8387 24.6096 42.9383 24.6614 43.0299C25.8608 45.1259 27.7136 46.3571 30.0486 46.9588C30.8695 47.17 31.7023 47.3732 32.5032 47.6441C33.6986 48.0466 34.7107 48.7559 35.6072 49.6205C36.5197 50.4971 37.5517 51.1666 38.7869 51.5292C39.1934 51.6487 39.3448 51.8918 39.2491 52.1906C39.1535 52.4934 38.8626 52.5891 38.4522 52.4775C37.0974 52.1029 35.9658 51.3698 34.9657 50.4214C34.7625 50.2302 34.5513 50.0548 34.3401 49.8676C34.3162 49.8835 34.2923 49.8994 34.2684 49.9154C34.368 50.3377 34.4835 50.7561 34.5672 51.1825C34.7824 52.2583 34.7784 53.3382 34.5313 54.41C34.4437 54.7886 34.1926 55.0037 33.9018 54.948C33.575 54.8842 33.4236 54.6133 33.5192 54.1989C33.9177 52.4456 33.575 50.792 32.8299 49.1902C32.6865 48.8794 32.4753 48.6762 32.1406 48.5845C31.244 48.3415 30.3435 48.0984 29.447 47.8434C27.0602 47.166 25.1595 45.8431 23.8725 43.7312C23.8326 43.6675 23.7768 43.6117 23.6732 43.4842C23.6453 43.6635 23.6135 43.7671 23.6175 43.8667C23.6493 45.0183 23.6812 46.1658 23.7171 47.3174C23.729 47.6441 23.8884 47.8633 24.1554 48.0745C26.1756 49.6444 27.8093 51.5092 28.7297 53.908C28.7337 53.9199 28.7417 53.9279 28.7417 53.9398C28.9449 55.2189 29.9769 55.5576 31.0289 55.8206C31.4393 55.9242 31.8975 55.8843 32.3278 55.8764C32.6904 55.8684 32.9614 56.0198 32.9973 56.3107C33.0331 56.5896 32.8339 56.8168 32.4872 56.8805C31.5827 57.0399 30.726 56.8606 29.8853 56.5418C29.8135 56.5139 29.7378 56.49 29.5864 56.4382C29.6342 56.6135 29.6581 56.7371 29.702 56.8526C30.1443 57.9364 30.6503 58.9844 31.4313 59.8809C31.6465 60.128 31.6226 60.4149 31.3994 60.6061C31.1843 60.7894 30.8575 60.7934 30.6623 60.5344C30.224 59.9447 29.7817 59.347 29.4231 58.7055C28.7098 57.4304 28.3074 56.0398 27.877 54.6531C27.2395 52.605 25.9285 50.9872 24.3466 49.5568C24.3227 49.5368 24.2869 49.5329 24.1912 49.493C24.2151 49.6643 24.2311 49.7958 24.255 49.9313C24.4702 51.0749 24.7172 52.2105 24.8925 53.3621C25.028 54.2546 24.9045 55.1432 24.6495 56.0079C24.3267 57.0837 24.6017 58.0759 25.4902 58.7652C26.4864 59.5462 26.9088 60.5663 26.9167 61.7856C26.9167 61.8732 26.9167 61.9689 26.8968 62.0565C26.845 62.3355 26.6816 62.5028 26.3828 62.5108C26.1078 62.5148 25.9126 62.3076 25.8767 62.0087C25.8289 61.5943 25.8329 61.164 25.7054 60.7775C25.5938 60.4348 25.3587 60.12 25.1316 59.8331C24.9682 59.6219 24.7172 59.4785 24.522 59.2872C24.3387 59.1039 24.1793 58.8967 23.9681 58.6497C23.9362 58.8649 23.9123 59.0322 23.8844 59.1996C23.6613 60.6101 23.6772 62.0127 24.0438 63.4033C24.0478 63.4153 24.0478 63.4233 24.0518 63.4352C24.1514 63.8536 24.0319 64.1246 23.7131 64.2003C23.4023 64.276 23.1513 64.0927 23.0477 63.6743C22.956 63.2997 22.8683 62.9252 22.8126 62.5466C22.5735 60.9129 22.7368 59.3032 23.1114 57.7053C23.3465 56.7171 23.6214 55.7409 23.8446 54.7527C23.9163 54.43 23.8924 54.0873 23.9163 53.7526C23.8605 53.7127 23.8047 53.6689 23.745 53.629C23.7091 53.7207 23.7011 53.8283 23.6374 53.9C23.2349 54.3742 22.8524 54.8762 22.4021 55.3066C21.7048 55.972 21.2068 56.7012 21.2346 57.7013C21.2426 58.0161 21.0155 58.2353 20.7326 58.2432C20.4497 58.2472 20.2265 58.044 20.2106 57.7252C20.1548 56.6853 20.5453 55.8047 21.2346 55.0356C21.4379 54.8085 21.673 54.6053 21.9001 54.3941C22.6492 53.6968 23.1552 52.8401 23.5139 51.8957C23.5497 51.8041 23.5856 51.6925 23.5657 51.6009C23.3824 50.7641 23.1871 49.9313 22.9879 49.0706C22.8962 49.0985 22.8325 49.1025 22.7966 49.1304C21.0753 50.5609 19.6448 52.2065 18.8678 54.3184C18.4853 55.3584 18.1864 56.4263 17.7959 57.4623C17.4214 58.4624 16.9153 59.4028 16.2419 60.2475C16.1782 60.3272 16.1144 60.4069 16.0427 60.4826C15.7677 60.7775 15.4689 60.8253 15.2298 60.6141C14.9868 60.4029 15.0027 60.128 15.2736 59.8092C16.0666 58.8768 16.5686 57.789 17.0109 56.6693C17.0309 56.6215 17.0229 56.5657 17.0309 56.4661C16.9153 56.502 16.8316 56.5219 16.7559 56.5538C15.9271 56.8725 15.0784 57.0479 14.1858 56.9004C13.8033 56.8367 13.6001 56.6175 13.6439 56.3266C13.6878 56.0158 13.9547 55.8565 14.3492 55.9003C15.5326 56.0437 16.5487 55.6572 17.4652 54.9639C17.5568 54.8962 17.6325 54.7726 17.6644 54.6611C18.3697 52.2265 19.8799 50.3258 21.7606 48.6642C21.8483 48.5885 21.924 48.4969 22.0236 48.4451C22.6572 48.1183 22.7568 47.6322 22.6412 46.9628C22.5137 46.2216 22.5575 45.4566 22.5296 44.6995C22.5257 44.572 22.5296 44.4405 22.5296 44.313C22.4898 44.2891 22.45 44.2652 22.4101 44.2453C22.3742 44.313 22.3503 44.3887 22.3025 44.4485C20.8083 46.4408 18.7602 47.5525 16.3375 48.0825C15.6641 48.2299 15.0107 48.449 14.3612 48.6722C14.1858 48.7319 14.0025 48.8953 13.9189 49.0547C13.0741 50.7083 12.7115 52.4337 13.1419 54.2746C13.2176 54.6013 13.0741 54.8683 12.7872 54.948C12.5123 55.0237 12.2413 54.8563 12.1537 54.5256C11.8389 53.3541 11.8668 52.1786 12.1218 51.0032C12.1975 50.6525 12.2931 50.3059 12.3808 49.9592C12.3529 49.9393 12.329 49.9194 12.3051 49.8955C12.1377 50.0389 11.9624 50.1784 11.7991 50.3298C10.9264 51.1466 9.99003 51.8678 8.83449 52.2743C8.57549 52.3659 8.31649 52.4576 8.04952 52.5293C7.75864 52.609 7.47573 52.4496 7.38807 52.1826C7.31236 51.9436 7.45581 51.6567 7.74669 51.577C9.1692 51.1944 10.2929 50.3577 11.3368 49.3695C12.6757 48.1024 14.3253 47.4529 16.1144 47.0783C18.3737 46.6081 20.2664 45.5602 21.6012 43.6635C21.7845 43.4005 21.9399 43.1136 22.1073 42.8387C22.0874 42.8148 22.0674 42.7949 22.0475 42.7709C21.92 42.8068 21.7925 42.8347 21.669 42.8785C20.0432 43.4364 18.4135 43.4284 16.7878 42.9104C16.473 42.8108 16.3176 42.8028 16.1861 43.1694C15.6442 44.6477 14.4528 45.3729 12.9705 45.7036C12.2095 45.875 11.4245 45.9347 10.6555 46.0782C9.25686 46.3372 8.2886 47.1779 7.61519 48.3654C7.44784 48.6602 7.34822 48.987 7.23665 49.3057C7.11313 49.6564 6.87804 49.8237 6.57122 49.744C6.2923 49.6683 6.15284 49.4053 6.23253 49.0627C6.41981 48.2777 6.8103 47.5923 7.31236 46.9628C7.36815 46.891 7.42792 46.8233 7.4837 46.7516C7.49565 46.7356 7.49167 46.7078 7.50362 46.632C7.38807 46.6161 7.2765 46.5922 7.16095 46.5802C6.50348 46.5006 5.87391 46.3292 5.30809 45.9786C4.9694 45.7674 4.87776 45.4725 5.05308 45.2095C5.22043 44.9545 5.49139 44.9226 5.84602 45.1099C7.04141 45.7355 8.27266 45.7395 9.55571 45.3689C10.3327 45.1418 11.1496 45.0422 11.9425 44.8549C12.5761 44.7075 13.2216 44.568 13.8232 44.3289C14.5086 44.054 14.9628 43.5081 15.2298 42.8188C15.3175 42.5916 15.2697 42.4721 15.0186 42.4004C12.321 41.6234 9.70712 41.727 7.16095 42.9901C5.86993 43.6316 4.53906 44.2014 3.20421 44.7553C2.73403 44.9505 2.20806 45.0262 1.70201 45.1099C1.30355 45.1777 1.04454 44.9904 1.0047 44.6756C0.964852 44.3728 1.18002 44.1656 1.59044 44.1098C2.76989 43.9464 3.83777 43.4643 4.90166 42.9781C4.93752 42.9622 4.96542 42.9224 5.01722 42.8745C4.5032 42.7749 4.00114 42.7311 3.54689 42.5717C3.0249 42.3884 2.51886 42.1334 2.04469 41.8465C1.69404 41.6353 1.66615 41.3166 1.87733 41.0695C2.08453 40.8264 2.35549 40.8105 2.67027 41.0576C3.40743 41.6274 4.28405 41.7429 5.16863 41.8266C5.30411 41.8385 5.44357 41.8346 5.58303 41.8425C6.61107 41.9182 7.57535 41.707 8.5476 41.3684C10.5758 40.6591 12.6478 40.7627 14.7078 41.2847C15.7199 41.5437 16.7161 41.8784 17.7322 42.1135C19.4734 42.5159 21.1151 42.2171 22.6452 41.3126C22.8564 41.1851 22.9799 41.0336 22.9998 40.7786C23.1234 39.3163 22.9321 32.5623 22.9879 31.1" fill="white"/>
<path d="M23.992 31.1119C23.9283 31.9766 24.1952 39.902 24.0637 40.7587C24.0159 41.0695 24.1115 41.2408 24.3705 41.3923C25.9564 42.3286 27.6379 42.488 29.3912 41.978C30.8814 41.5437 32.3637 41.0854 33.9177 40.9181C35.651 40.7308 37.3126 40.9978 38.9264 41.6194C39.1894 41.719 39.4802 41.7867 39.7632 41.8027C40.7872 41.8664 41.8192 41.8864 42.8154 41.5835C43.2258 41.46 43.6123 41.2448 43.9829 41.0297C44.3216 40.8344 44.5806 40.8145 44.7838 41.0576C44.975 41.2887 44.9232 41.5875 44.6324 41.8266C43.9869 42.3645 43.2059 42.5877 42.389 42.7231C42.1539 42.763 41.9188 42.7949 41.5722 42.8506C41.7674 42.9582 41.867 43.022 41.9746 43.0698C43.0186 43.524 44.0546 43.9863 45.2062 44.1177C45.513 44.1496 45.6883 44.3927 45.6485 44.6676C45.6006 44.9744 45.3894 45.1498 45.0946 45.1059C44.5527 45.0223 43.9869 44.9585 43.4848 44.7513C42.146 44.2054 40.8151 43.6316 39.5281 42.9901C36.9859 41.723 34.372 41.6074 31.6704 42.3805C31.3954 42.4601 31.3277 42.5637 31.4353 42.8347C31.8417 43.8627 32.6665 44.3927 33.6906 44.6517C34.2684 44.7991 34.87 44.8549 35.4598 44.9306C36.6312 45.082 36.7787 45.1976 37.0935 46.3332C37.0974 46.3452 37.0935 46.3531 37.0895 46.397C37.0417 46.393 36.9819 46.4049 36.942 46.381C36.169 45.9945 35.3283 45.9188 34.4835 45.8391C33.6707 45.7634 32.8976 45.5442 32.1884 45.1458C31.3476 44.6756 30.738 44.0062 30.4391 43.0897C30.3714 42.8785 30.3037 42.755 30.0327 42.8467C28.2436 43.4523 26.4625 43.4603 24.7092 42.7191C24.6734 42.7032 24.6216 42.7112 24.514 42.7072C24.5738 42.8387 24.6096 42.9383 24.6614 43.0299C25.8608 45.1259 27.7136 46.3571 30.0486 46.9588C30.8695 47.17 31.7023 47.3732 32.5032 47.6441C33.6986 48.0466 34.7107 48.7559 35.6072 49.6205C36.5197 50.4971 37.5517 51.1666 38.7869 51.5292C39.1934 51.6487 39.3448 51.8918 39.2491 52.1906C39.1535 52.4934 38.8626 52.5891 38.4522 52.4775C37.0974 52.1029 35.9658 51.3698 34.9657 50.4214C34.7625 50.2302 34.5513 50.0548 34.3401 49.8676C34.3162 49.8835 34.2923 49.8994 34.2684 49.9154C34.368 50.3377 34.4835 50.7561 34.5672 51.1825C34.7824 52.2583 34.7784 53.3382 34.5313 54.41C34.4437 54.7886 34.1927 55.0037 33.9018 54.948C33.575 54.8842 33.4236 54.6133 33.5192 54.1989C33.9177 52.4456 33.575 50.792 32.8299 49.1902C32.6865 48.8794 32.4753 48.6762 32.1406 48.5845C31.244 48.3415 30.3435 48.0984 29.447 47.8434C27.0602 47.166 25.1595 45.8431 23.8725 43.7312C23.8326 43.6675 23.7768 43.6117 23.6732 43.4842C23.6453 43.6635 23.6135 43.7671 23.6175 43.8667C23.6493 45.0183 23.6812 46.1658 23.7171 47.3174C23.729 47.6441 23.8884 47.8633 24.1554 48.0745C26.1756 49.6444 27.8093 51.5092 28.7297 53.908C28.7337 53.9199 28.7417 53.9279 28.7417 53.9398C28.9449 55.2189 29.9769 55.5576 31.0289 55.8206C31.4393 55.9242 31.8975 55.8843 32.3278 55.8764C32.6904 55.8684 32.9614 56.0198 32.9973 56.3107C33.0331 56.5896 32.8339 56.8168 32.4872 56.8805C31.5827 57.0399 30.726 56.8606 29.8853 56.5418C29.8135 56.5139 29.7378 56.49 29.5864 56.4382C29.6342 56.6135 29.6581 56.7371 29.702 56.8526C30.1443 57.9364 30.6503 58.9844 31.4313 59.8809C31.6465 60.128 31.6226 60.4149 31.3994 60.6061C31.1843 60.7894 30.8575 60.7934 30.6623 60.5344C30.224 59.9447 29.7817 59.347 29.4231 58.7055C28.7098 57.4304 28.3074 56.0398 27.877 54.6531C27.2395 52.605 25.9285 50.9872 24.3466 49.5568C24.3227 49.5368 24.2869 49.5329 24.1912 49.493C24.2151 49.6643 24.2311 49.7958 24.255 49.9313C24.4702 51.0749 24.7172 52.2105 24.8925 53.3621C25.028 54.2546 24.9045 55.1432 24.6495 56.0079C24.3267 57.0837 24.6017 58.0759 25.4902 58.7652C26.4864 59.5462 26.9088 60.5663 26.9167 61.7856C26.9167 61.8732 26.9167 61.9689 26.8968 62.0565C26.845 62.3355 26.6816 62.5028 26.3828 62.5108C26.1078 62.5148 25.9126 62.3076 25.8767 62.0087C25.8289 61.5943 25.8329 61.164 25.7054 60.7775C25.5938 60.4348 25.3587 60.12 25.1316 59.8331C24.9682 59.6219 24.7172 59.4785 24.522 59.2872C24.3387 59.1039 24.1793 58.8967 23.9681 58.6497C23.9362 58.8649 23.9123 59.0322 23.8844 59.1996C23.6613 60.6101 23.6772 62.0127 24.0438 63.4033C24.0478 63.4153 24.0478 63.4233 24.0518 63.4352C24.1514 63.8536 24.0319 64.1246 23.7131 64.2003C23.4023 64.276 23.1513 64.0927 23.0477 63.6743C22.956 63.2997 22.8683 62.9252 22.8126 62.5466C22.5735 60.9129 22.7368 59.3032 23.1114 57.7053C23.3465 56.7171 23.6214 55.7409 23.8446 54.7527C23.9163 54.43 23.8924 54.0873 23.9163 53.7526C23.8605 53.7127 23.8047 53.6689 23.745 53.629C23.7091 53.7207 23.7011 53.8283 23.6374 53.9C23.2349 54.3742 22.8524 54.8762 22.4021 55.3066C21.7048 55.972 21.2068 56.7012 21.2346 57.7013C21.2426 58.0161 21.0155 58.2353 20.7326 58.2432C20.4497 58.2472 20.2265 58.044 20.2106 57.7252C20.1548 56.6853 20.5453 55.8047 21.2346 55.0356C21.4379 54.8085 21.673 54.6053 21.9001 54.3941C22.6492 53.6968 23.1552 52.8401 23.5139 51.8957C23.5497 51.8041 23.5856 51.6925 23.5657 51.6009C23.3824 50.7641 23.1871 49.9313 22.9879 49.0706C22.8962 49.0985 22.8325 49.1025 22.7966 49.1304C21.0753 50.5609 19.6448 52.2065 18.8678 54.3184C18.4853 55.3584 18.1864 56.4263 17.7959 57.4623C17.4214 58.4624 16.9153 59.4028 16.2419 60.2475C16.1782 60.3272 16.1144 60.4069 16.0427 60.4826C15.7677 60.7775 15.4689 60.8253 15.2298 60.6141C14.9868 60.4029 15.0027 60.128 15.2736 59.8092C16.0666 58.8768 16.5686 57.789 17.0109 56.6693C17.0309 56.6215 17.0229 56.5657 17.0309 56.4661C16.9153 56.502 16.8316 56.5219 16.7559 56.5538C15.9271 56.8725 15.0784 57.0479 14.1858 56.9004C13.8033 56.8367 13.6001 56.6175 13.6439 56.3266C13.6878 56.0158 13.9547 55.8565 14.3492 55.9003C15.5326 56.0437 16.5487 55.6572 17.4652 54.9639C17.5568 54.8962 17.6325 54.7726 17.6644 54.6611C18.3697 52.2265 19.8799 50.3258 21.7606 48.6642C21.8483 48.5885 21.924 48.4969 22.0236 48.4451C22.6572 48.1183 22.7568 47.6322 22.6412 46.9628C22.5137 46.2216 22.5575 45.4566 22.5296 44.6995C22.5257 44.572 22.5296 44.4405 22.5296 44.313C22.4898 44.2891 22.45 44.2652 22.4101 44.2453C22.3742 44.313 22.3503 44.3887 22.3025 44.4485C20.8083 46.4408 18.7602 47.5525 16.3375 48.0825C15.6641 48.2299 15.0107 48.449 14.3612 48.6722C14.1858 48.7319 14.0025 48.8953 13.9189 49.0547C13.0741 50.7083 12.7115 52.4337 13.1419 54.2746C13.2176 54.6013 13.0741 54.8683 12.7872 54.948C12.5123 55.0237 12.2413 54.8563 12.1537 54.5256C11.8389 53.3541 11.8668 52.1786 12.1218 51.0032C12.1975 50.6525 12.2931 50.3059 12.3808 49.9592C12.3529 49.9393 12.329 49.9194 12.3051 49.8955C12.1377 50.0389 11.9624 50.1784 11.7991 50.3298C10.9264 51.1466 9.99003 51.8678 8.83449 52.2743C8.57549 52.3659 8.31649 52.4576 8.04952 52.5293C7.75864 52.609 7.47573 52.4496 7.38807 52.1826C7.31236 51.9436 7.45581 51.6567 7.74669 51.577C9.1692 51.1944 10.2929 50.3577 11.3368 49.3695C12.6757 48.1024 14.3253 47.4529 16.1144 47.0783C18.3737 46.6081 20.2664 45.5602 21.6012 43.6635C21.7845 43.4005 21.9399 43.1136 22.1073 42.8387C22.0874 42.8148 22.0674 42.7949 22.0475 42.7709C21.92 42.8068 21.7925 42.8347 21.669 42.8785C20.0432 43.4364 18.4135 43.4284 16.7878 42.9104C16.473 42.8108 16.3176 42.8028 16.1861 43.1694C15.6442 44.6477 14.4528 45.3729 12.9705 45.7036C12.2095 45.875 11.4245 45.9347 10.6555 46.0782C9.25686 46.3372 8.2886 47.1779 7.61519 48.3654C7.44784 48.6602 7.34822 48.987 7.23665 49.3057C7.11313 49.6564 6.87804 49.8237 6.57122 49.744C6.2923 49.6683 6.15284 49.4053 6.23253 49.0627C6.41981 48.2777 6.8103 47.5923 7.31236 46.9628C7.36815 46.891 7.42792 46.8233 7.4837 46.7516C7.49565 46.7356 7.49167 46.7078 7.50362 46.632C7.38807 46.6161 7.2765 46.5922 7.16095 46.5802C6.50348 46.5006 5.87391 46.3292 5.30809 45.9786C4.9694 45.7674 4.87776 45.4725 5.05308 45.2095C5.22043 44.9545 5.49139 44.9226 5.84602 45.1099C7.04141 45.7355 8.27266 45.7395 9.55571 45.3689C10.3327 45.1418 11.1496 45.0422 11.9425 44.8549C12.5761 44.7075 13.2216 44.568 13.8232 44.3289C14.5086 44.054 14.9628 43.5081 15.2298 42.8188C15.3175 42.5916 15.2697 42.4721 15.0186 42.4004C12.321 41.6234 9.70712 41.727 7.16095 42.9901C5.86993 43.6316 4.53906 44.2014 3.20421 44.7553C2.73403 44.9505 2.20806 45.0262 1.70201 45.1099C1.30355 45.1777 1.04454 44.9904 1.0047 44.6756C0.964852 44.3728 1.18002 44.1656 1.59044 44.1098C2.76989 43.9464 3.83777 43.4643 4.90166 42.9781C4.93752 42.9622 4.96542 42.9224 5.01722 42.8745C4.5032 42.7749 4.00114 42.7311 3.54689 42.5717C3.0249 42.3884 2.51886 42.1334 2.04469 41.8465C1.69404 41.6353 1.66615 41.3166 1.87733 41.0695C2.08453 40.8264 2.35549 40.8105 2.67027 41.0576C3.40743 41.6274 4.28405 41.7429 5.16863 41.8266C5.30411 41.8385 5.44357 41.8346 5.58303 41.8425C6.61107 41.9182 7.57535 41.707 8.5476 41.3684C10.5758 40.6591 12.6478 40.7627 14.7078 41.2847C15.7199 41.5437 16.7161 41.8784 17.7322 42.1135C19.4734 42.5159 21.1151 42.2171 22.6452 41.3126C22.8564 41.1851 22.9799 41.0336 22.9998 40.7786C23.1234 39.3163 22.9321 32.5623 22.9879 31.1" stroke="#05A93D" stroke-width="0.398463"/>
<path d="M40.5638 49.4811C40.5598 49.3656 40.5399 49.266 40.5 49.1982C40.1693 48.6045 39.8266 48.0188 39.48 47.429C39.46 47.3932 39.4321 47.3613 39.3923 47.3095C39.3803 47.2975 39.3684 47.2816 39.3525 47.2657C39.3206 47.2258 39.2807 47.182 39.2409 47.1302L39.0138 46.8433L39.3764 46.8074C39.4321 46.8035 39.4839 46.7955 39.5318 46.7915C39.6593 46.7795 39.7509 46.7716 39.8466 46.7596C40.5 46.6799 41.1097 46.5126 41.6396 46.1739C41.7472 46.1061 41.795 46.0304 41.811 45.9707C41.8269 45.9149 41.8189 45.8511 41.7711 45.7874C41.7193 45.7117 41.6516 45.6678 41.5838 45.6559C41.5121 45.6399 41.4205 45.6519 41.3089 45.7117C40.6395 46.0822 39.9183 46.2177 39.1732 46.2536H39.1692H39.1652C38.2647 46.2496 37.7506 45.9189 37.3083 45.6041C37.2924 45.5921 37.2725 45.5802 37.2565 45.5682C36.9537 45.353 36.6867 45.1658 36.3281 45.0821C36.3799 45.1737 36.4397 45.2773 36.4915 45.3809C36.5951 45.5762 36.6987 45.7834 36.7704 45.9507C36.8063 46.0344 36.8342 46.1101 36.8541 46.1739C36.8621 46.2058 36.87 46.2416 36.874 46.2815C36.874 46.2934 36.874 46.3094 36.874 46.3293C36.9497 46.389 37.0812 46.4687 37.2406 46.5564C37.3681 46.6241 37.5036 46.6959 37.6351 46.7636C37.663 46.7795 37.6909 46.7955 37.7188 46.8074C37.8662 46.8831 38.0057 46.9589 38.0893 47.0146C38.7986 47.4888 39.3365 48.0985 39.6872 48.8436C39.7469 48.9751 39.7987 49.1105 39.8426 49.2381C39.8466 49.254 39.8545 49.2699 39.8585 49.2859C39.8984 49.3974 39.9342 49.505 39.978 49.6046C40.0139 49.6883 40.0617 49.7322 40.1095 49.76C40.1613 49.784 40.237 49.7959 40.3406 49.776L40.5638 49.4811ZM40.5638 49.4811C40.5678 49.5728 40.5478 49.6325 40.516 49.6724C40.4881 49.7122 40.4323 49.7481 40.3327 49.768L40.5638 49.4811Z" fill="white"/>
<path d="M40.5638 49.4811C40.5598 49.3656 40.5399 49.266 40.5 49.1982C40.1693 48.6045 39.8266 48.0188 39.48 47.429C39.46 47.3932 39.4321 47.3613 39.3923 47.3095C39.3803 47.2975 39.3684 47.2816 39.3525 47.2657C39.3206 47.2258 39.2807 47.182 39.2409 47.1302L39.0138 46.8433L39.3764 46.8074C39.4321 46.8035 39.4839 46.7955 39.5318 46.7915C39.6593 46.7795 39.7509 46.7716 39.8466 46.7596C40.5 46.6799 41.1097 46.5126 41.6396 46.1739C41.7472 46.1061 41.795 46.0304 41.811 45.9707C41.8269 45.9149 41.8189 45.8511 41.7711 45.7874C41.7193 45.7117 41.6516 45.6678 41.5838 45.6559C41.5121 45.6399 41.4205 45.6519 41.3089 45.7117C40.6395 46.0822 39.9183 46.2177 39.1732 46.2536H39.1692H39.1652C38.2647 46.2496 37.7506 45.9189 37.3083 45.6041C37.2924 45.5921 37.2725 45.5802 37.2565 45.5682C36.9537 45.353 36.6867 45.1658 36.3281 45.0821C36.3799 45.1737 36.4397 45.2773 36.4915 45.3809C36.5951 45.5762 36.6987 45.7834 36.7704 45.9507C36.8063 46.0344 36.8342 46.1101 36.8541 46.1739C36.8621 46.2058 36.87 46.2416 36.874 46.2815C36.874 46.2934 36.874 46.3094 36.874 46.3293C36.9497 46.389 37.0812 46.4687 37.2406 46.5564C37.3681 46.6241 37.5036 46.6959 37.6351 46.7636C37.663 46.7795 37.6909 46.7955 37.7188 46.8074C37.8662 46.8831 38.0057 46.9589 38.0893 47.0146C38.7986 47.4888 39.3365 48.0985 39.6872 48.8436C39.7469 48.9751 39.7987 49.1105 39.8426 49.2381C39.8466 49.254 39.8545 49.2699 39.8585 49.2859C39.8984 49.3974 39.9342 49.505 39.978 49.6046C40.0139 49.6883 40.0617 49.7322 40.1095 49.76C40.1613 49.784 40.237 49.7959 40.3406 49.776L40.5638 49.4811ZM40.5638 49.4811C40.5678 49.5728 40.5478 49.6325 40.516 49.6724C40.4881 49.7122 40.4323 49.7481 40.3327 49.768L40.5638 49.4811Z" stroke="#05A93D" stroke-width="0.398463"/>
</svg>
