<svg width="55" height="55" viewBox="0 0 55 55" fill="none" xmlns="http://www.w3.org/2000/svg">
<circle cx="27.4934" cy="27.9013" r="27.05" fill="#F67C01"/>
<path fill-rule="evenodd" clip-rule="evenodd" d="M26.8995 9.7364C26.4504 9.86768 26.1851 10.026 25.8727 10.3491C25.393 10.8453 25.1385 11.5729 25.2244 12.2027C25.2628 12.4844 25.2546 12.504 25.0504 12.6166C23.3016 13.5812 22.2734 15.3642 22.2734 17.4324C22.2734 17.9273 22.2855 17.9725 22.4666 18.1545C22.6377 18.3266 22.7056 18.3487 23.0613 18.3487H23.463V18.9659C23.463 20.1401 23.8374 21.0585 24.6485 21.874C25.4477 22.6773 26.3751 23.0658 27.4943 23.0658C28.6134 23.0658 29.5408 22.6773 30.34 21.874C31.1513 21.0583 31.5256 20.1401 31.5256 18.9651V18.3471L31.9675 18.3568C32.3711 18.3656 32.4227 18.3509 32.5623 18.1878C32.6955 18.0321 32.7151 17.9382 32.7151 17.4568C32.7151 15.3835 31.7289 13.6372 30.0056 12.6594L29.7743 12.5281L29.7647 12.0003C29.7536 11.3889 29.6372 11.0214 29.314 10.579C28.7803 9.84795 27.7489 9.48806 26.8995 9.7364ZM26.9986 10.8691C26.6022 11.047 26.3047 11.4938 26.3047 11.9115V12.1092L26.8169 12.0586C27.4516 11.996 27.5369 11.996 28.1717 12.0586L28.6838 12.1092V11.9115C28.6838 11.4861 28.3825 11.0414 27.9755 10.8664C27.7085 10.7516 27.2577 10.7528 26.9986 10.8691ZM26.5801 13.2021C25.4436 13.4501 24.3129 14.357 23.8079 15.4255C23.5299 16.0136 23.3969 16.5094 23.3969 16.9574V17.2204L23.7769 17.1812C25.4816 17.0054 27.1094 16.5459 28.5008 15.8479C29.3265 15.4336 29.3466 15.4378 30.0862 16.1862C30.5496 16.6551 30.8145 16.8655 31.1327 17.0171L31.5586 17.2202L31.5806 17.0041C31.618 16.6343 31.4614 16.0138 31.182 15.4255C30.6668 14.3409 29.5408 13.447 28.3779 13.1992C27.8191 13.0802 27.1337 13.0813 26.5801 13.2021ZM28.5186 17.0594C27.8826 17.374 26.4201 17.8437 25.5447 18.0146C25.1449 18.0926 24.7464 18.1715 24.6593 18.1899C24.5012 18.2232 24.501 18.2251 24.542 18.9006C24.6044 19.9305 24.8181 20.4832 25.3782 21.0634C25.9599 21.6659 26.6467 21.9555 27.4943 21.9555C28.3418 21.9555 29.0287 21.6659 29.6103 21.0634C30.2011 20.4514 30.3948 19.9145 30.4455 18.7474L30.4817 17.9169L30.1927 17.7377C30.0337 17.6392 29.7212 17.3925 29.4982 17.1896C29.2751 16.9867 29.0675 16.823 29.0369 16.8257C29.0063 16.8284 28.773 16.9336 28.5186 17.0594ZM22.8164 23.3296C21.6659 23.64 20.6124 24.463 20.0073 25.5239C19.6397 26.1685 19.5228 26.7193 19.1616 29.5101L18.8133 32.2008L17.128 33.9086L15.4428 35.6163L15.1829 35.3803C14.8294 35.0593 14.5372 34.9497 14.0348 34.9497C13.517 34.9497 13.2262 35.0393 12.7753 35.3378C11.5845 36.1262 11.4189 37.8626 12.4399 38.8547C12.7877 39.1927 13.1314 39.3799 13.5963 39.4845C13.7909 39.5283 13.9403 39.5816 13.9284 39.6029C13.4241 40.503 13.3863 41.3689 13.8132 42.2407C14.0601 42.7448 14.4811 43.143 15.058 43.4177L15.4995 43.628H27.4943H39.4891L39.9305 43.4177C40.5074 43.143 40.9284 42.7448 41.1753 42.2407C41.6023 41.3689 41.5645 40.503 41.0602 39.6029C41.0482 39.5816 41.1976 39.5283 41.3922 39.4845C42.101 39.325 42.6959 38.8595 43.0071 38.2205C43.2552 37.7112 43.2922 36.9353 43.0936 36.4062C42.8146 35.6625 42.1208 35.0921 41.3468 34.9701C40.715 34.8705 40.2214 35.0027 39.8017 35.3838L39.5458 35.6163L37.8605 33.9086L36.1752 32.2008L35.8269 29.5101C35.4006 26.216 35.2906 25.8206 34.543 24.8928C33.6891 23.833 32.4104 23.1986 31.1283 23.1986C30.7103 23.1986 30.5806 23.2253 30.3989 23.3483C29.9778 23.6337 29.9107 23.8425 29.8702 24.9938C29.836 25.968 29.8228 26.0487 29.6317 26.4554C29.3895 26.971 28.9812 27.3918 28.486 27.6363C28.168 27.7933 28.0429 27.816 27.4943 27.816C26.9457 27.816 26.8205 27.7933 26.5025 27.6363C26.0073 27.3918 25.599 26.971 25.3568 26.4554C25.1657 26.0487 25.1525 25.968 25.1183 24.9938C25.0787 23.867 25.0168 23.6608 24.6312 23.3717C24.3647 23.1718 23.4775 23.1513 22.8164 23.3296ZM23.529 24.3055C23.4382 24.3196 23.2362 24.3646 23.0803 24.4055L22.7968 24.4797L22.8347 24.7527C23.0716 26.4579 23.8595 33.6321 23.8595 34.0836C23.8595 34.5964 23.7968 34.9315 23.402 36.5269C23.1505 37.5437 22.9589 38.3991 22.9764 38.4274C23.0179 38.495 31.9706 38.495 32.0122 38.4274C32.0296 38.3991 31.838 37.5437 31.5865 36.5269C31.1918 34.9315 31.129 34.5964 31.129 34.0836C31.129 33.6324 31.9165 26.462 32.1535 24.7545C32.1907 24.4873 32.1876 24.4823 31.941 24.4112C31.8034 24.3716 31.5346 24.3189 31.3438 24.2941L30.9969 24.2491L30.9957 24.737C30.995 25.0054 30.9666 25.4916 30.9325 25.8174C30.7787 27.2881 29.7458 28.4792 28.3028 28.8503C27.6738 29.012 27.3147 29.012 26.6857 28.8503C25.2427 28.4792 24.2099 27.2881 24.056 25.8174C24.0219 25.4916 23.9935 25.0082 23.9928 24.7433C23.9915 24.2157 24.0076 24.2309 23.529 24.3055ZM21.5059 25.3412C21.0397 25.8481 20.7724 26.3413 20.6315 26.9546C20.5898 27.1361 20.4073 28.4056 20.2258 29.7759C20.0443 31.1461 19.8777 32.3869 19.8555 32.533C19.8188 32.775 19.6259 32.9898 17.6947 34.9384C16.5284 36.1152 15.4927 37.1119 15.3931 37.1534C15.0589 37.2926 14.7431 37.0324 14.6415 36.5342C14.5193 35.9346 13.7686 35.85 13.2448 36.3766C12.5261 37.0991 12.8296 38.1789 13.8156 38.4073C13.9784 38.445 14.5586 38.4766 15.105 38.4775L16.0983 38.4791L18.5133 36.0376C20.6693 33.8579 20.9467 33.5532 21.0997 33.1974C21.2092 32.9431 21.4306 31.9959 21.7116 30.581L22.1519 28.3632L21.969 26.7442C21.8683 25.8539 21.7677 25.1253 21.7453 25.1253C21.7229 25.1253 21.6152 25.2225 21.5059 25.3412ZM33.0195 26.7442L32.8366 28.3632L33.2769 30.581C33.5579 31.9959 33.7793 32.9431 33.8888 33.1974C34.0418 33.553 34.3209 33.8598 36.4773 36.0423L38.8943 38.4887L40.0508 38.4673C41.3781 38.4427 41.5882 38.3787 41.9282 37.8948C42.2988 37.3674 42.1652 36.5928 41.6424 36.2387C41.0943 35.8674 40.4531 36.0136 40.347 36.5342C40.2454 37.0324 39.9297 37.2926 39.5955 37.1534C39.4959 37.1119 38.4607 36.1152 37.295 34.9384C35.5018 33.128 35.1698 32.763 35.1374 32.5662C35.1162 32.4383 34.9489 31.1976 34.7656 29.8091C34.4078 27.0995 34.3526 26.7878 34.1492 26.3235C33.9659 25.9055 33.376 25.1253 33.2432 25.1253C33.2208 25.1253 33.1202 25.8539 33.0195 26.7442ZM22.4141 32.6379C22.3209 33.0533 22.1614 33.5084 21.9898 33.8484C21.7344 34.3545 21.575 34.5353 19.7471 36.3913C18.6649 37.4903 17.7795 38.4096 17.7795 38.4343C17.7795 38.4589 18.6828 38.4791 19.7869 38.4791H21.7943L22.2598 36.6023C22.5157 35.57 22.7449 34.561 22.769 34.36C22.8033 34.0733 22.6398 32.0608 22.5762 31.9868C22.5692 31.9787 22.4963 32.2717 22.4141 32.6379ZM32.3119 32.7323C32.1472 34.1533 32.1695 34.3663 32.7098 36.5358L33.1937 38.4791H35.2014C36.3056 38.4791 37.2091 38.4589 37.2091 38.4343C37.2091 38.4096 36.3244 37.4903 35.243 36.3913C32.9957 34.1074 32.9051 33.9809 32.5865 32.6796L32.4043 31.9351L32.3119 32.7323ZM15.6076 39.6331C15.2784 39.7528 14.8726 40.1239 14.733 40.4328C14.4466 41.0669 14.6767 41.878 15.2582 42.284L15.5655 42.4985L20.3734 42.5164C24.2356 42.5308 25.1812 42.5176 25.1812 42.4496C25.1812 42.3925 24.5498 42.226 23.2482 41.9397C22.185 41.7058 21.2009 41.4746 21.0613 41.426C20.428 41.2053 19.9603 40.5547 19.9603 39.8945V39.5421L17.8951 39.5472C16.4502 39.5507 15.7631 39.5765 15.6076 39.6331ZM21.0372 39.818C21.1045 40.323 21.1701 40.3524 23.2812 40.8239L25.1812 41.2483V40.3952V39.5421H23.0907H21.0003L21.0372 39.818ZM26.3047 41.0379V42.5337L32.8638 42.5161L39.423 42.4985L39.7303 42.284C40.3109 41.8787 40.542 41.0668 40.2566 40.4353C40.1067 40.1036 39.6752 39.7222 39.3332 39.6192C39.1466 39.563 37.3463 39.5421 32.691 39.5421H26.3047V41.0379Z" fill="white"/>
</svg>
