<svg width="86" height="86" viewBox="0 0 86 86" fill="none" xmlns="http://www.w3.org/2000/svg">
<circle cx="43" cy="43" r="43" fill="#F67C01"/>
<path fill-rule="evenodd" clip-rule="evenodd" d="M42.0544 14.1243C41.3406 14.333 40.9189 14.5847 40.4223 15.0983C39.6597 15.8871 39.2551 17.0437 39.3917 18.0449C39.4527 18.4927 39.4396 18.5239 39.1151 18.7029C36.335 20.2361 34.7005 23.0705 34.7005 26.3583C34.7005 27.145 34.7198 27.2168 35.0076 27.5062C35.2796 27.7796 35.3876 27.8149 35.9531 27.8149H36.5915V28.796C36.5915 30.6625 37.1868 32.1225 38.4761 33.4187C39.7466 34.6958 41.2209 35.3133 42.9999 35.3133C44.7789 35.3133 46.2533 34.6958 47.5237 33.4187C48.8133 32.1222 49.4083 30.6626 49.4083 28.7948V27.8124L50.1108 27.8277C50.7523 27.8416 50.8344 27.8183 51.0563 27.559C51.2681 27.3116 51.2993 27.1623 51.2993 26.3971C51.2993 23.1013 49.7314 20.3252 46.992 18.7708L46.6243 18.5621L46.6092 17.7231C46.5915 16.7512 46.4064 16.167 45.8927 15.4637C45.0443 14.3016 43.4047 13.7295 42.0544 14.1243ZM42.212 15.9249C41.5818 16.2077 41.1089 16.9179 41.1089 17.5819V17.8962L41.9231 17.8158C42.9321 17.7163 43.0677 17.7163 44.0767 17.8158L44.8909 17.8962V17.5819C44.8909 16.9057 44.4118 16.1988 43.7649 15.9206C43.3405 15.738 42.6239 15.7401 42.212 15.9249ZM41.5468 19.6335C39.7401 20.0278 37.9426 21.4694 37.1398 23.168C36.698 24.1029 36.4865 24.8911 36.4865 25.6032V26.0213L37.0905 25.959C39.8006 25.6794 42.3882 24.949 44.5999 23.8394C45.9126 23.1808 45.9445 23.1875 47.1202 24.3773C47.8568 25.1227 48.278 25.457 48.7837 25.698L49.4608 26.0209L49.4957 25.6773C49.5552 25.0895 49.3063 24.1031 48.8621 23.168C48.0431 21.4438 46.2533 20.0228 44.4046 19.629C43.5162 19.4398 42.4267 19.4415 41.5468 19.6335ZM44.6283 25.7653C43.6172 26.2654 41.2923 27.0121 39.9008 27.2837C39.2652 27.4078 38.6318 27.5331 38.4933 27.5624C38.2421 27.6154 38.2416 27.6184 38.3068 28.6921C38.406 30.3294 38.7458 31.208 39.6361 32.1303C40.5607 33.0881 41.6526 33.5483 42.9999 33.5483C44.3472 33.5483 45.4391 33.0881 46.3637 32.1303C47.3029 31.1574 47.6107 30.304 47.6914 28.4486L47.7488 27.1284L47.2894 26.8436C47.0368 26.687 46.5399 26.2948 46.1854 25.9723C45.8308 25.6498 45.5008 25.3894 45.4522 25.3938C45.4035 25.3981 45.0327 25.5653 44.6283 25.7653ZM35.5637 35.7328C33.7349 36.2262 32.0602 37.5344 31.0983 39.2209C30.5139 40.2456 30.3281 41.1212 29.7539 45.5576L29.2003 49.8349L26.5213 52.5496L23.8422 55.2642L23.4292 54.8891C22.8672 54.3788 22.4028 54.2045 21.604 54.2045C20.7809 54.2045 20.3187 54.347 19.6019 54.8215C17.709 56.0748 17.4457 58.8351 19.0687 60.4121C19.6217 60.9495 20.168 61.247 20.907 61.4133C21.2164 61.4829 21.4539 61.5676 21.4349 61.6015C20.6332 63.0325 20.5731 64.4089 21.2518 65.7947C21.6443 66.5961 22.3136 67.229 23.2306 67.6657L23.9324 68H42.9999H62.0674L62.7692 67.6657C63.6862 67.229 64.3555 66.5961 64.748 65.7947C65.4267 64.4089 65.3666 63.0325 64.5649 61.6015C64.5459 61.5676 64.7834 61.4829 65.0928 61.4133C66.2195 61.1598 67.1651 60.4198 67.6598 59.4041C68.0542 58.5944 68.1131 57.361 67.7974 56.5198C67.3539 55.3377 66.2509 54.431 65.0206 54.2371C64.0163 54.0787 63.2315 54.2888 62.5644 54.8947L62.1576 55.2642L59.4785 52.5496L56.7995 49.8349L56.2459 45.5576C55.5682 40.3211 55.3934 39.6925 54.205 38.2176C52.8476 36.533 50.8149 35.5245 48.7767 35.5245C48.1122 35.5245 47.9061 35.5669 47.6173 35.7625C46.9479 36.2161 46.8411 36.5481 46.7768 38.3781C46.7224 39.9268 46.7014 40.0551 46.3977 40.7016C46.0127 41.5212 45.3636 42.1902 44.5765 42.5788C44.0709 42.8285 43.872 42.8645 42.9999 42.8645C42.1278 42.8645 41.9289 42.8285 41.4233 42.5788C40.6362 42.1902 39.9871 41.5212 39.6021 40.7016C39.2984 40.0551 39.2774 39.9268 39.223 38.3781C39.16 36.587 39.0616 36.2592 38.4487 35.7996C38.025 35.4819 36.6146 35.4492 35.5637 35.7328ZM36.6966 37.284C36.5521 37.3065 36.2311 37.378 35.9833 37.443L35.5326 37.5609L35.5929 37.9949C35.9694 40.7056 37.2219 52.11 37.2219 52.8278C37.2219 53.643 37.1222 54.1757 36.4947 56.7117C36.0948 58.3282 35.7903 59.6879 35.818 59.733C35.8841 59.8404 50.1157 59.8404 50.1818 59.733C50.2095 59.6879 49.905 58.3282 49.5051 56.7117C48.8776 54.1757 48.7779 53.643 48.7779 52.8278C48.7779 52.1106 50.0297 40.7122 50.4065 37.9978C50.4655 37.5731 50.4606 37.5652 50.0686 37.4521C49.8499 37.3891 49.4227 37.3053 49.1194 37.266L48.5678 37.1945L48.5659 37.9701C48.5649 38.3966 48.5197 39.1695 48.4655 39.6875C48.2209 42.0253 46.5791 43.9188 44.2852 44.5087C43.2853 44.7657 42.7145 44.7657 41.7146 44.5087C39.4207 43.9188 37.7789 42.0253 37.5343 39.6875C37.4801 39.1695 37.4349 38.4012 37.4339 37.98C37.4318 37.1413 37.4574 37.1655 36.6966 37.284ZM33.4805 38.9305C32.7394 39.7363 32.3145 40.5203 32.0905 41.4953C32.0243 41.7837 31.7341 43.8018 31.4456 45.98C31.1571 48.1583 30.8923 50.1306 30.857 50.3629C30.7987 50.7477 30.4919 51.089 27.422 54.1866C25.5681 56.0573 23.9216 57.6418 23.7632 57.7078C23.232 57.9289 22.73 57.5153 22.5686 56.7234C22.3743 55.7703 21.181 55.6358 20.3482 56.4728C19.2057 57.6214 19.6883 59.3379 21.2556 59.701C21.5144 59.7609 22.4368 59.8111 23.3053 59.8126L24.8843 59.8151L28.7233 55.9339C32.1505 52.469 32.5916 51.9847 32.8349 51.419C33.0088 51.0147 33.3609 49.5092 33.8075 47.2598L34.5074 43.7343L34.2167 41.1608C34.0567 39.7454 33.8967 38.5873 33.861 38.5873C33.8254 38.5873 33.6542 38.7418 33.4805 38.9305ZM51.7831 41.1608L51.4924 43.7343L52.1923 47.2598C52.6389 49.5092 52.991 51.0147 53.1649 51.419C53.4081 51.9844 53.8518 52.472 57.2797 55.9415L61.1219 59.8303L62.9604 59.7963C65.0703 59.7573 65.4043 59.6554 65.9448 58.8863C66.5339 58.0479 66.3215 56.8166 65.4905 56.2537C64.6192 55.6634 63.6 55.8959 63.4312 56.7234C63.2698 57.5153 62.7678 57.9289 62.2366 57.7078C62.0782 57.6418 60.4327 56.0573 58.5797 54.1866C55.7291 51.3087 55.2013 50.7284 55.1497 50.4157C55.1161 50.2124 54.8502 48.2401 54.5588 46.0329C53.99 41.7255 53.9023 41.23 53.5789 40.492C53.2875 39.8276 52.3498 38.5873 52.1388 38.5873C52.1031 38.5873 51.9431 39.7454 51.7831 41.1608ZM34.9243 50.5296C34.7761 51.19 34.5225 51.9135 34.2497 52.4539C33.8437 53.2585 33.5903 53.5458 30.6847 56.4963C28.9643 58.2433 27.5568 59.7047 27.5568 59.7438C27.5568 59.783 28.9928 59.8151 30.7478 59.8151H33.939L34.6789 56.8316C35.0858 55.1906 35.4501 53.5867 35.4883 53.2672C35.543 52.8114 35.2831 49.6122 35.1819 49.4946C35.1708 49.4817 35.0549 49.9474 34.9243 50.5296ZM50.6582 50.6797C50.3964 52.9386 50.4318 53.2772 51.2908 56.726L52.0601 59.8151H55.2515C57.0069 59.8151 58.443 59.783 58.443 59.7438C58.443 59.7047 57.0366 58.2433 55.3176 56.4963C51.7452 52.8657 51.6012 52.6645 51.0948 50.5959L50.8052 49.4124L50.6582 50.6797ZM24.1044 61.6495C23.581 61.8399 22.9358 62.4297 22.7141 62.9207C22.2587 63.9288 22.6244 65.2182 23.5489 65.8636L24.0374 66.2046L31.6802 66.233C37.8198 66.2558 39.323 66.2349 39.323 66.1268C39.323 66.0361 38.3193 65.7713 36.2501 65.3162C34.56 64.9444 32.9957 64.5769 32.7738 64.4996C31.767 64.1488 31.0236 63.1146 31.0236 62.0651V61.5049L27.7406 61.5129C25.4437 61.5185 24.3516 61.5596 24.1044 61.6495ZM32.7354 61.9435C32.8424 62.7463 32.9466 62.7929 36.3026 63.5425L39.323 64.2171V62.861V61.5049H35.9999H32.6769L32.7354 61.9435ZM41.1089 63.8826V66.2605L51.5356 66.2325L61.9624 66.2046L62.4509 65.8636C63.3738 65.2193 63.7412 63.9287 63.2875 62.9247C63.0493 62.3974 62.3634 61.7912 61.8197 61.6275C61.523 61.5382 58.6612 61.5049 51.2608 61.5049H41.1089V63.8826Z" fill="white"/>
</svg>
