<svg width="39" height="38" viewBox="0 0 39 38" fill="none" xmlns="http://www.w3.org/2000/svg">
<circle cx="19.5129" cy="18.9026" r="18.4026" fill="#F67C01" stroke="#F67C01"/>
<path d="M16.354 12H21.7758C23.8413 12 25.5194 13.6782 25.5194 15.7436V21.1655C25.5194 22.1583 25.125 23.1105 24.423 23.8126C23.7209 24.5147 22.7687 24.9091 21.7758 24.9091H16.354C14.2885 24.9091 12.6104 23.2309 12.6104 21.1655V15.7436C12.6104 14.7508 13.0048 13.7986 13.7068 13.0965C14.4089 12.3944 15.3611 12 16.354 12ZM16.2249 13.2909C15.6086 13.2909 15.0176 13.5357 14.5818 13.9715C14.1461 14.4073 13.9013 14.9983 13.9013 15.6145V21.2945C13.9013 22.579 14.9404 23.6182 16.2249 23.6182H21.9049C22.5212 23.6182 23.1122 23.3734 23.548 22.9376C23.9837 22.5018 24.2285 21.9108 24.2285 21.2945V15.6145C24.2285 14.3301 23.1894 13.2909 21.9049 13.2909H16.2249ZM22.4535 14.2591C22.6675 14.2591 22.8727 14.3441 23.024 14.4954C23.1753 14.6467 23.2604 14.8519 23.2604 15.0659C23.2604 15.2799 23.1753 15.4851 23.024 15.6364C22.8727 15.7877 22.6675 15.8727 22.4535 15.8727C22.2396 15.8727 22.0343 15.7877 21.883 15.6364C21.7317 15.4851 21.6467 15.2799 21.6467 15.0659C21.6467 14.8519 21.7317 14.6467 21.883 14.4954C22.0343 14.3441 22.2396 14.2591 22.4535 14.2591ZM19.0649 15.2273C19.9208 15.2273 20.7417 15.5673 21.3469 16.1725C21.9522 16.7778 22.2922 17.5986 22.2922 18.4545C22.2922 19.3105 21.9522 20.1313 21.3469 20.7366C20.7417 21.3418 19.9208 21.6818 19.0649 21.6818C18.209 21.6818 17.3881 21.3418 16.7829 20.7366C16.1776 20.1313 15.8376 19.3105 15.8376 18.4545C15.8376 17.5986 16.1776 16.7778 16.7829 16.1725C17.3881 15.5673 18.209 15.2273 19.0649 15.2273ZM19.0649 16.5182C18.5513 16.5182 18.0588 16.7222 17.6957 17.0853C17.3325 17.4485 17.1285 17.941 17.1285 18.4545C17.1285 18.9681 17.3325 19.4606 17.6957 19.8238C18.0588 20.1869 18.5513 20.3909 19.0649 20.3909C19.5785 20.3909 20.071 20.1869 20.4341 19.8238C20.7973 19.4606 21.0013 18.9681 21.0013 18.4545C21.0013 17.941 20.7973 17.4485 20.4341 17.0853C20.071 16.7222 19.5785 16.5182 19.0649 16.5182Z" fill="white"/>
</svg>
