<svg width="86" height="86" viewBox="0 0 86 86" fill="none" xmlns="http://www.w3.org/2000/svg">
<circle cx="43" cy="43" r="43" fill="#F67C01"/>
<path fill-rule="evenodd" clip-rule="evenodd" d="M40.139 23.0994C39.1022 23.338 38.018 24.0737 37.5329 24.8678C37.3713 25.1322 37.2855 25.1731 36.7021 25.2646C36.327 25.3233 35.7718 25.5023 35.3906 25.6875C33.9099 26.4069 33.1283 27.76 33.1137 29.6294C33.1078 30.3917 33.1074 30.3931 32.8021 30.584C32.3227 30.8837 31.4479 31.8874 31.1795 32.4457C30.6653 33.5151 30.4633 34.987 30.6351 36.4136C30.8268 38.0068 31.4582 39.2006 32.5634 40.0601L33.101 40.4782L33.1104 41.2213C33.1382 43.4404 34.2753 44.9686 36.2872 45.4917C36.5882 45.57 36.9465 45.634 37.0833 45.634C37.2664 45.634 37.3822 45.7162 37.5225 45.9457C37.8039 46.4063 38.543 47.0712 39.0788 47.3459C40.4782 48.0632 42.1647 47.9833 43.1219 47.1545L43.5 46.8271L43.8781 47.1545C44.8353 47.9833 46.5218 48.0632 47.9212 47.3459C48.4513 47.0742 49.1954 46.4075 49.4696 45.9587C49.6288 45.6982 49.717 45.6519 50.1549 45.5999C51.3489 45.4579 52.4983 44.8005 53.1015 43.9144C53.625 43.1456 53.806 42.5526 53.8558 41.4437C53.8986 40.4902 53.9081 40.4536 54.1501 40.3088C54.5848 40.0491 55.5896 38.8941 55.8318 38.3756C56.2591 37.4613 56.3882 36.7749 56.3882 35.4153C56.3882 34.0425 56.2561 33.3517 55.8205 32.4457C55.5573 31.8984 54.7225 30.9336 54.201 30.5744L53.8788 30.3524L53.8781 29.6055C53.8762 27.2839 52.5363 25.6504 50.3257 25.2747C49.7162 25.1711 49.6263 25.1284 49.466 24.8659C49.1663 24.3754 48.3942 23.7131 47.7909 23.429C46.3546 22.7527 44.6792 22.8973 43.7581 23.777L43.511 24.0129L43.1275 23.6808C42.4377 23.0836 41.2292 22.8485 40.139 23.0994ZM40.5153 24.9067C40.1426 25.0054 39.641 25.2705 39.3928 25.5L39.1887 25.6887L39.4738 26.0171C39.9622 26.5799 40.192 27.1987 40.193 27.9542C40.1941 28.7796 40.0987 29.0453 39.7141 29.2876C39.3228 29.534 38.9423 29.4662 38.6033 29.0898C38.398 28.8617 38.3474 28.7221 38.3593 28.416C38.3875 27.6855 38.3565 27.5436 38.1151 27.2994C37.6241 26.8027 36.2959 27.0588 35.6004 27.7842C35.0611 28.3466 34.9325 28.7876 34.9461 30.0279C34.959 31.1974 34.862 31.4152 34.1006 31.9264C33.4685 32.3509 32.9718 32.9009 32.7381 33.4355C32.3053 34.4251 32.3072 36.4097 32.7418 37.4035C32.974 37.9347 33.5122 38.5291 34.1148 38.9202C34.8556 39.4008 34.959 39.635 34.9461 40.8027C34.94 41.3663 34.9854 41.9459 35.0539 42.1743C35.2904 42.9635 36.0773 43.6268 36.9105 43.7393C37.2832 43.7897 37.3141 43.7748 37.5864 43.4129C38.2433 42.5397 39.1545 42.0879 40.2465 42.0937C41.0257 42.0977 41.2957 42.1886 41.5681 42.5382C41.8417 42.8892 41.7788 43.4528 41.4325 43.7542C41.2243 43.9353 41.0978 43.9626 40.5314 43.9483C39.8154 43.9301 39.4817 44.0493 39.1044 44.458L38.8873 44.693L39.0935 44.986C39.7187 45.8742 41.1488 46.275 41.905 45.7739C42.034 45.6883 42.2287 45.4233 42.3377 45.1849L42.5357 44.7514V35.4153V26.0791L42.3377 25.6456C42.2287 25.4072 42.0377 25.1446 41.9131 25.062C41.6465 24.8853 40.9066 24.8031 40.5153 24.9067ZM45.3958 24.9154C45.0158 25.038 44.814 25.2553 44.6283 25.742C44.4747 26.1445 44.4643 26.7655 44.4643 35.4617V44.7514L44.6939 45.2159C45.0002 45.8357 45.3734 46.0358 46.0938 45.9665C46.7225 45.9059 47.1138 45.7521 47.5192 45.4064L47.819 45.1506L47.53 44.8178C47.0351 44.2477 46.808 43.6344 46.807 42.8656C46.8059 42.0598 46.9681 41.6778 47.3862 41.5012C47.7822 41.3338 48.1397 41.4204 48.4141 41.7502C48.6088 41.9844 48.6402 42.1094 48.6267 42.6005C48.6002 43.577 48.9017 43.8455 49.9204 43.7521C50.5801 43.6915 51.1033 43.4257 51.511 42.9439C51.9418 42.4349 52.0609 41.9639 52.0516 40.8063C52.0423 39.6335 52.1454 39.4002 52.8852 38.9202C53.4886 38.5285 54.026 37.9346 54.2592 37.4013C54.6895 36.4173 54.6895 34.4132 54.2592 33.4292C54.028 32.9005 53.5291 32.3493 52.8994 31.9264C52.1325 31.4115 52.0432 31.2059 52.0547 29.9814C52.0629 29.1102 52.0332 28.8827 51.8579 28.4704C51.5947 27.8516 51.0835 27.3839 50.4683 27.199C49.7855 26.9939 49.708 27.0106 49.4254 27.4231C48.5466 28.706 46.2882 29.2331 45.4871 28.3423C45.2609 28.0908 45.2312 27.9969 45.2748 27.6686C45.3093 27.4083 45.4059 27.217 45.5787 27.0666C45.8016 26.8727 45.8966 26.8522 46.3711 26.8956C47.0524 26.9582 47.4046 26.8557 47.7828 26.4849C48.0624 26.2108 48.0742 26.1749 47.9582 25.9493C47.5704 25.1954 46.2183 24.6499 45.3958 24.9154ZM21.7788 28.6153C20.8674 28.9341 20.2628 29.5797 20.0806 30.4289C20.0071 30.7711 19.9863 33.3592 20.0083 39.4099C20.0392 47.9021 20.0394 47.9106 20.2463 48.6531C20.5349 49.6892 21.1648 50.9385 21.8279 51.7902C22.2932 52.3879 23.0358 53.0391 26.149 55.58L29.9083 58.6482V62.4109C29.9083 66.5392 29.9127 66.5751 30.4562 66.8594C30.6828 66.978 31.2636 67.0003 34.1052 67C37.2905 66.9997 37.5015 66.9893 37.7776 66.819C37.9743 66.6977 38.1022 66.5226 38.1674 66.2852C38.2941 65.8237 38.299 55.6087 38.173 54.2664C38.0066 52.4907 37.4954 50.9983 36.5606 49.5591C36.1273 48.8921 35.3925 48.1063 32.4691 45.1841L28.9058 41.6222L28.879 37.8452C28.8524 34.1018 28.8502 34.064 28.6351 33.5827C28.2058 32.6221 27.2291 31.971 26.194 31.9551L25.6141 31.9462L25.5544 31.335C25.4561 30.3289 25.257 29.8592 24.6819 29.2781C23.8844 28.4722 22.8579 28.2379 21.7788 28.6153ZM63.2452 28.6044C62.994 28.6975 62.6313 28.9608 62.3186 29.2771C61.743 29.8593 61.5439 30.3289 61.4456 31.335L61.3859 31.9462L60.806 31.9551C59.7983 31.9705 58.8891 32.5547 58.3932 33.505L58.1479 33.9754L58.1202 37.8L58.0926 41.6246L54.5313 45.1854C51.6197 48.0965 50.8735 48.8943 50.4408 49.5591C49.5056 50.9953 48.9935 52.4889 48.8269 54.2664C48.701 55.6087 48.7059 65.8237 48.8326 66.2852C48.8978 66.5226 49.0257 66.6977 49.2224 66.819C49.4985 66.9893 49.7095 66.9997 52.8948 67C55.7364 67.0003 56.3172 66.978 56.5437 66.8594C57.0872 66.5751 57.0917 66.5389 57.0917 62.4138V58.6541L59.9157 56.3482C61.4689 55.08 63.1505 53.7077 63.6527 53.2986C65.1803 52.0542 66.2439 50.4597 66.7515 48.6531L66.9603 47.91L66.9914 39.4099C67.0139 33.2853 66.9933 30.7734 66.9178 30.4219C66.7724 29.7446 66.25 29.0973 65.5816 28.7666C64.9235 28.4409 63.8819 28.3686 63.2452 28.6044ZM22.24 30.4132C21.8123 30.6498 21.8267 30.3507 21.8267 38.967C21.8267 48.1788 21.8102 47.9284 22.5143 49.3963C22.7349 49.8562 23.1146 50.4688 23.3582 50.7579C23.6063 51.0522 25.4172 52.597 27.4746 54.2694C29.495 55.9118 31.2823 57.3991 31.4465 57.5746L31.745 57.8937V61.5196V65.1456L34.0638 65.1208L36.3827 65.096L36.3816 59.5686C36.3806 54.1578 36.3763 54.0239 36.1756 53.2236C35.925 52.2237 35.4643 51.1942 34.9269 50.4331C34.5236 49.8618 27.8383 43.0576 27.2463 42.6157C26.4269 42.0043 25.2761 42.7361 25.4639 43.7491C25.5156 44.0277 26.0287 44.6162 28.5207 47.2544C32.6907 51.6691 32.4797 51.4292 32.4797 51.7553C32.4797 52.1771 32.3043 52.4832 31.9709 52.6433C31.6125 52.8153 31.5468 52.8187 31.2469 52.6805C31.1197 52.6219 29.4956 50.9693 27.638 49.0079C23.8936 45.0548 23.6543 44.7398 23.663 43.776C23.7443 34.7186 23.7553 31.578 23.7069 31.243C23.6255 30.6794 23.2519 30.3049 22.7751 30.3087C22.5818 30.3103 22.341 30.3573 22.24 30.4132ZM63.6129 30.5695C63.4399 30.7445 63.3325 30.9709 63.2931 31.243C63.2458 31.5703 63.2904 42.183 63.3452 43.6367C63.3643 44.1455 63.2022 44.6962 62.9006 45.1469C62.7616 45.3548 61.8496 46.3632 60.874 47.3878C58.9471 49.4116 58.7876 49.5212 58.2076 49.2178C57.8579 49.0349 57.7346 48.8138 57.7346 48.3699C57.7346 47.9968 57.7032 48.0341 60.3144 45.3088C61.2424 44.3403 61.4841 44.0332 61.5349 43.7577C61.7318 42.6899 60.5492 41.988 59.6988 42.668C58.9836 43.2397 52.4658 49.8768 52.0731 50.4331C51.5357 51.1942 51.075 52.2238 50.8244 53.2236C50.6237 54.0239 50.6194 54.1578 50.6184 59.5686L50.6173 65.096L52.9362 65.1208L55.255 65.1456V61.5196V57.8937L55.5535 57.5781C55.7177 57.4044 57.505 55.9167 59.5254 54.272C61.5585 52.617 63.3966 51.0475 63.6418 50.7571C63.8854 50.4685 64.2651 49.8562 64.4857 49.3963C65.19 47.928 65.1735 48.1788 65.1719 38.9725C65.1711 34.4868 65.1402 30.7726 65.1031 30.7186C64.7779 30.2449 64.0097 30.168 63.6129 30.5695ZM37.3811 33.6699C36.8584 33.8402 36.2184 34.4133 35.9435 34.9571C35.4125 36.0074 35.5398 37.1565 36.2787 37.982C36.6377 38.3832 36.7206 38.4302 37.0687 38.4302C37.3913 38.4302 37.5029 38.3789 37.7237 38.1289C38.0659 37.7415 38.0639 37.4116 37.716 36.8923C37.381 36.3922 37.3678 36.0722 37.6677 35.7117C37.8331 35.5129 38.0104 35.4194 38.3067 35.3744C39.1264 35.25 39.4665 34.3864 38.9153 33.8289C38.6822 33.5931 38.5824 33.5585 38.1576 33.5668C37.8885 33.572 37.5391 33.6184 37.3811 33.6699ZM48.0847 33.8289C47.5335 34.3864 47.8736 35.25 48.6933 35.3744C48.9896 35.4194 49.1669 35.5129 49.3323 35.7117C49.6322 36.0722 49.619 36.3922 49.284 36.8923C48.9361 37.4116 48.9341 37.7415 49.2763 38.1289C49.4971 38.3789 49.6087 38.4302 49.9313 38.4302C50.2794 38.4302 50.3623 38.3832 50.7213 37.982C52.2148 36.3134 51.0092 33.5573 48.7858 33.5573C48.4301 33.5573 48.3055 33.6056 48.0847 33.8289ZM25.7986 33.8369L25.592 33.923V37.3102V40.6974L25.8898 40.611C26.0536 40.5635 26.3842 40.5246 26.6245 40.5246H27.0613V37.5579C27.0613 35.8974 27.0227 34.4885 26.9736 34.3578C26.818 33.9437 26.2001 33.6698 25.7986 33.8369ZM60.491 33.9059C59.9493 34.1806 59.9415 34.2322 59.94 37.5287L59.9387 40.5246H60.3755C60.6158 40.5246 60.9464 40.5635 61.1102 40.611L61.408 40.6974V37.3108V33.9243L61.1725 33.8337C60.866 33.7158 60.8653 33.7159 60.491 33.9059ZM55.2828 50.6687C55.1718 50.723 55.0141 50.9099 54.9325 51.084C54.5758 51.8443 55.3607 52.638 56.1124 52.2772C56.6877 52.001 56.8126 51.2827 56.3641 50.8291C56.077 50.5387 55.6719 50.4786 55.2828 50.6687Z" fill="white"/>
</svg>
