<svg width="55" height="55" viewBox="0 0 55 55" fill="none" xmlns="http://www.w3.org/2000/svg">
<circle cx="27.5773" cy="27.9016" r="27.05" fill="#F67C01"/>
<path fill-rule="evenodd" clip-rule="evenodd" d="M25.7782 15.3828C25.126 15.5329 24.444 15.9957 24.1388 16.4953C24.0371 16.6616 23.9832 16.6874 23.6162 16.7449C23.3802 16.7818 23.0309 16.8944 22.7911 17.0109C21.8597 17.4635 21.368 18.3147 21.3588 19.4907C21.3551 19.9702 21.3548 19.9711 21.1628 20.0911C20.8612 20.2797 20.3109 20.9111 20.142 21.2623C19.8186 21.9351 19.6915 22.861 19.7996 23.7584C19.9202 24.7607 20.3174 25.5117 21.0126 26.0523L21.3508 26.3153L21.3567 26.7828C21.3742 28.1787 22.0895 29.1401 23.3552 29.4691C23.5445 29.5184 23.7699 29.5587 23.856 29.5587C23.9712 29.5587 24.044 29.6104 24.1322 29.7548C24.3093 30.0445 24.7742 30.4628 25.1113 30.6356C25.9916 31.0868 27.0525 31.0366 27.6547 30.5152L27.8925 30.3093L28.1304 30.5152C28.7325 31.0366 29.7934 31.0868 30.6737 30.6356C31.0073 30.4646 31.4753 30.0453 31.6478 29.7629C31.7479 29.599 31.8035 29.5699 32.0789 29.5372C32.83 29.4479 33.5531 29.0343 33.9326 28.477C34.2619 27.9933 34.3757 27.6202 34.407 26.9227C34.434 26.3228 34.4399 26.2998 34.5922 26.2088C34.8656 26.0454 35.4977 25.3188 35.6501 24.9927C35.9189 24.4175 36.0001 23.9857 36.0001 23.1304C36.0001 22.2668 35.917 21.8323 35.643 21.2623C35.4774 20.918 34.9522 20.3111 34.6242 20.0851L34.4215 19.9455L34.4211 19.4756C34.4199 18.0152 33.577 16.9876 32.1864 16.7512C31.8029 16.6861 31.7464 16.6592 31.6456 16.4941C31.457 16.1856 30.9713 15.7689 30.5918 15.5902C29.6883 15.1647 28.6343 15.2557 28.0549 15.8091L27.8994 15.9575L27.6582 15.7486C27.2243 15.3729 26.464 15.225 25.7782 15.3828ZM26.0149 16.5198C25.7805 16.5818 25.4649 16.7486 25.3088 16.893L25.1804 17.0117L25.3598 17.2183C25.667 17.5723 25.8115 17.9616 25.8122 18.4369C25.8129 18.9561 25.7528 19.1232 25.5109 19.2756C25.2648 19.4307 25.0254 19.388 24.8121 19.1512C24.683 19.0077 24.6512 18.9199 24.6587 18.7274C24.6764 18.2678 24.6569 18.1786 24.505 18.0249C24.1961 17.7125 23.3606 17.8736 22.9231 18.3299C22.5839 18.6837 22.503 18.9611 22.5115 19.7413C22.5196 20.477 22.4586 20.6141 21.9796 20.9356C21.582 21.2027 21.2696 21.5487 21.1225 21.885C20.8503 22.5075 20.8515 23.756 21.1248 24.3811C21.2709 24.7153 21.6095 25.0892 21.9886 25.3352C22.4546 25.6376 22.5196 25.7849 22.5115 26.5194C22.5077 26.874 22.5363 27.2386 22.5793 27.3823C22.7281 27.8787 23.2231 28.296 23.7473 28.3668C23.9817 28.3985 24.0012 28.3891 24.1724 28.1614C24.5857 27.6122 25.1589 27.3279 25.8459 27.3316C26.336 27.3341 26.5058 27.3913 26.6772 27.6112C26.8493 27.832 26.8098 28.1866 26.5919 28.3762C26.4609 28.4901 26.3813 28.5072 26.0251 28.4982C25.5746 28.4868 25.3647 28.5618 25.1273 28.8189L24.9908 28.9667L25.1205 29.1511C25.5138 29.7098 26.4135 29.9619 26.8891 29.6467C26.9703 29.5928 27.0928 29.4261 27.1614 29.2762L27.2859 29.0035V23.1304V17.2573L27.1614 16.9846C27.0928 16.8346 26.9726 16.6694 26.8942 16.6175C26.7265 16.5063 26.2611 16.4546 26.0149 16.5198ZM29.0851 16.5252C28.846 16.6023 28.7191 16.739 28.6023 17.0453C28.5057 17.2984 28.4991 17.6891 28.4991 23.1596V29.0035L28.6435 29.2957C28.8363 29.6856 29.071 29.8114 29.5242 29.7678C29.9197 29.7297 30.1659 29.633 30.4209 29.4155L30.6094 29.2546L30.4277 29.0452C30.1164 28.6866 29.9735 28.3008 29.9729 27.8172C29.9722 27.3103 30.0742 27.07 30.3372 26.9588C30.5863 26.8535 30.8112 26.908 30.9838 27.1155C31.1063 27.2628 31.126 27.3415 31.1176 27.6504C31.1009 28.2647 31.2906 28.4336 31.9314 28.3748C32.3464 28.3367 32.6755 28.1695 32.932 27.8664C33.203 27.5462 33.2779 27.2499 33.2721 26.5217C33.2662 25.784 33.3311 25.6372 33.7965 25.3352C34.1761 25.0888 34.5141 24.7152 34.6608 24.3797C34.9315 23.7608 34.9315 22.5 34.6608 21.881C34.5154 21.5484 34.2015 21.2017 33.8054 20.9356C33.323 20.6117 33.2668 20.4824 33.274 19.7121C33.2792 19.1641 33.2605 19.021 33.1502 18.7616C32.9846 18.3723 32.6631 18.0781 32.2761 17.9618C31.8466 17.8328 31.7978 17.8432 31.62 18.1028C31.0672 18.9098 29.6465 19.2414 29.1425 18.681C29.0002 18.5228 28.9816 18.4637 29.009 18.2572C29.0307 18.0935 29.0914 17.9731 29.2002 17.8785C29.3404 17.7565 29.4002 17.7436 29.6986 17.7709C30.1272 17.8103 30.3488 17.7458 30.5867 17.5126C30.7626 17.3401 30.77 17.3175 30.697 17.1756C30.4531 16.7014 29.6025 16.3582 29.0851 16.5252ZM14.2284 18.8527C13.655 19.0533 13.2747 19.4594 13.1601 19.9936C13.1139 20.2089 13.1008 21.837 13.1146 25.6433C13.134 30.9854 13.1341 30.9908 13.2643 31.4579C13.4459 32.1097 13.8421 32.8956 14.2592 33.4314C14.552 33.8073 15.0191 34.217 16.9776 35.8154L19.3424 37.7455V40.1125C19.3424 42.7095 19.3451 42.7321 19.6871 42.911C19.8296 42.9855 20.195 42.9996 21.9825 42.9994C23.9863 42.9992 24.1191 42.9927 24.2927 42.8855C24.4165 42.8092 24.4969 42.6991 24.5379 42.5498C24.6176 42.2594 24.6207 35.8335 24.5415 34.989C24.4368 33.872 24.1152 32.9332 23.5271 32.0278C23.2546 31.6082 22.7923 31.1139 20.9533 29.2756L18.7117 27.035L18.6949 24.659C18.6782 22.3041 18.6768 22.2803 18.5415 21.9776C18.2714 21.3733 17.657 20.9637 17.0058 20.9537L16.641 20.9481L16.6035 20.5636C16.5417 19.9307 16.4164 19.6352 16.0546 19.2697C15.5529 18.7627 14.9072 18.6153 14.2284 18.8527ZM40.3136 18.8459C40.1556 18.9044 39.9274 19.07 39.7307 19.269C39.3687 19.6353 39.2434 19.9307 39.1815 20.5636L39.144 20.9481L38.7792 20.9537C38.1453 20.9634 37.5733 21.3309 37.2614 21.9287L37.107 22.2246L37.0896 24.6306L37.0723 27.0365L34.832 29.2765C33.0004 31.1078 32.531 31.6096 32.2588 32.0278C31.6705 32.9313 31.3483 33.8709 31.2435 34.989C31.1643 35.8335 31.1674 42.2594 31.2471 42.5498C31.2881 42.6991 31.3686 42.8092 31.4923 42.8855C31.666 42.9927 31.7987 42.9992 33.8025 42.9994C35.5901 42.9996 35.9554 42.9855 36.0979 42.911C36.4398 42.7321 36.4427 42.7093 36.4427 40.1144V37.7492L38.2191 36.2987C39.1962 35.5009 40.2541 34.6376 40.57 34.3802C41.5309 33.5974 42.2 32.5944 42.5193 31.4579L42.6507 30.9904L42.6702 25.6433C42.6844 21.7905 42.6714 20.2103 42.624 19.9892C42.5325 19.5632 42.2038 19.1559 41.7834 18.9479C41.3694 18.743 40.7142 18.6976 40.3136 18.8459ZM14.5185 19.9837C14.2494 20.1326 14.2585 19.9444 14.2585 25.3647C14.2585 31.1595 14.2481 31.002 14.691 31.9254C14.8298 32.2147 15.0687 32.6001 15.2219 32.782C15.378 32.9671 16.5172 33.9389 17.8114 34.991C19.0824 36.0241 20.2067 36.9597 20.31 37.0702L20.4978 37.2709V39.5518V41.8328L21.9565 41.8172L23.4152 41.8016L23.4145 38.3245C23.4139 34.9207 23.4112 34.8365 23.285 34.3331C23.1273 33.7041 22.8375 33.0564 22.4994 32.5776C22.2457 32.2183 18.0402 27.9379 17.6678 27.66C17.1524 27.2753 16.4284 27.7357 16.5465 28.3729C16.579 28.5482 16.9019 28.9184 18.4695 30.578C21.0927 33.3552 20.96 33.2043 20.96 33.4094C20.96 33.6747 20.8496 33.8673 20.6399 33.968C20.4144 34.0762 20.3731 34.0784 20.1844 33.9914C20.1044 33.9546 19.0828 32.9149 17.9142 31.6811C15.5587 29.1943 15.4082 28.9962 15.4136 28.3899C15.4648 22.6921 15.4717 20.7164 15.4413 20.5057C15.3901 20.1512 15.155 19.9156 14.8551 19.918C14.7335 19.919 14.582 19.9486 14.5185 19.9837ZM40.5449 20.082C40.4361 20.1921 40.3685 20.3345 40.3437 20.5057C40.314 20.7117 40.3421 27.3878 40.3765 28.3022C40.3886 28.6223 40.2866 28.9687 40.0969 29.2523C40.0094 29.3831 39.4357 30.0174 38.822 30.6619C37.6098 31.9351 37.5095 32.004 37.1446 31.8131C36.9247 31.6981 36.8471 31.559 36.8471 31.2797C36.8471 31.0451 36.8273 31.0685 38.47 29.3541C39.0537 28.7448 39.2058 28.5516 39.2377 28.3784C39.3616 27.7066 38.6176 27.2651 38.0827 27.6929C37.6328 28.0525 33.5326 32.2277 33.2856 32.5776C32.9476 33.0564 32.6577 33.7041 32.5001 34.3331C32.3738 34.8365 32.3711 34.9207 32.3705 38.3245L32.3698 41.8016L33.8285 41.8172L35.2872 41.8328V39.5518V37.2709L35.475 37.0723C35.5783 36.9631 36.7026 36.0272 37.9736 34.9926C39.2526 33.9515 40.4089 32.9641 40.5631 32.7815C40.7164 32.5999 40.9552 32.2147 41.094 31.9254C41.5371 31.0018 41.5267 31.1595 41.5257 25.3681C41.5252 22.5463 41.5057 20.2098 41.4823 20.1758C41.2778 19.8778 40.7946 19.8295 40.5449 20.082ZM24.0433 22.0324C23.7145 22.1395 23.3119 22.5001 23.1389 22.8422C22.8049 23.5029 22.885 24.2258 23.3498 24.745C23.5757 24.9974 23.6278 25.027 23.8468 25.027C24.0497 25.027 24.1199 24.9947 24.2588 24.8374C24.4741 24.5937 24.4728 24.3862 24.254 24.0596C24.0432 23.7449 24.035 23.5437 24.2236 23.3169C24.3276 23.1918 24.4392 23.133 24.6255 23.1047C25.1412 23.0264 25.3551 22.4832 25.0084 22.1324C24.8618 21.9841 24.799 21.9624 24.5318 21.9676C24.3625 21.9708 24.1427 22.0001 24.0433 22.0324ZM30.7766 22.1324C30.4299 22.4832 30.6438 23.0264 31.1595 23.1047C31.3458 23.133 31.4574 23.1918 31.5615 23.3169C31.7501 23.5437 31.7418 23.7449 31.5311 24.0596C31.3122 24.3862 31.311 24.5937 31.5262 24.8374C31.6651 24.9947 31.7353 25.027 31.9382 25.027C32.1572 25.027 32.2094 24.9974 32.4352 24.745C33.3747 23.6954 32.6164 21.9616 31.2177 21.9616C30.9939 21.9616 30.9155 21.992 30.7766 22.1324ZM16.7571 22.1375L16.6271 22.1916V24.3224V26.4532L16.8145 26.3989C16.9175 26.369 17.1255 26.3445 17.2766 26.3445H17.5515V24.4783C17.5515 23.4337 17.5271 22.5474 17.4963 22.4652C17.3984 22.2046 17.0097 22.0324 16.7571 22.1375ZM38.581 22.1809C38.2403 22.3537 38.2354 22.3862 38.2344 24.4599L38.2336 26.3445H38.5084C38.6595 26.3445 38.8675 26.369 38.9706 26.3989L39.1579 26.4532V24.3228V22.1924L39.0097 22.1355C38.8169 22.0613 38.8165 22.0614 38.581 22.1809ZM35.3047 32.7259C35.2349 32.76 35.1357 32.8776 35.0843 32.9871C34.86 33.4654 35.3537 33.9647 35.8266 33.7377C36.1885 33.5639 36.267 33.1121 35.9849 32.8267C35.8043 32.6441 35.5495 32.6063 35.3047 32.7259Z" fill="white"/>
</svg>
