<svg width="31" height="31" viewBox="0 0 31 31" fill="none" xmlns="http://www.w3.org/2000/svg">
<circle cx="15.5" cy="15.5" r="15.5" fill="#F1F1F1"/>
<path d="M19.5553 10.5949C17.3156 8.31148 13.6843 8.31148 11.4446 10.5949C10.9128 11.1333 10.4902 11.7765 10.2018 12.4866C9.91326 13.1967 9.76465 13.9594 9.76465 14.7299C9.76465 15.5004 9.91326 16.2631 10.2018 16.9732C10.4902 17.6833 10.9128 18.3265 11.4446 18.8649L15.4996 23L19.5553 18.8649C20.0871 18.3265 20.5096 17.6833 20.7981 16.9732C21.0866 16.2631 21.2352 15.5004 21.2352 14.7299C21.2352 13.9594 21.0866 13.1967 20.7981 12.4866C20.5096 11.7765 20.0871 11.1333 19.5553 10.5949ZM15.4996 16.6841C15.0207 16.6841 14.5711 16.4909 14.232 16.1402C13.8963 15.7915 13.7078 15.3191 13.7078 14.8265C13.7078 14.3339 13.8963 13.8615 14.232 13.5128C14.5704 13.1621 15.0207 12.9689 15.4996 12.9689C15.9785 12.9689 16.4287 13.1621 16.7671 13.5128C17.1028 13.8615 17.2914 14.3339 17.2914 14.8265C17.2914 15.3191 17.1028 15.7915 16.7671 16.1402C16.4287 16.4909 15.9785 16.6841 15.4996 16.6841Z" fill="#05A93D"/>
</svg>
