<svg width="39" height="38" viewBox="0 0 39 38" fill="none" xmlns="http://www.w3.org/2000/svg">
<circle cx="19.7083" cy="18.9026" r="18.4026" fill="#F67C01" stroke="#F67C01"/>
<path d="M25.7148 14.3018C25.2396 14.5296 24.7274 14.6793 24.1968 14.7509C24.7398 14.4059 25.1594 13.8592 25.3569 13.2018C24.8447 13.5272 24.277 13.755 23.6784 13.8852C23.1909 13.3254 22.506 13 21.7285 13C20.2784 13 19.0936 14.2497 19.0936 15.7923C19.0936 16.0136 19.1183 16.2284 19.1615 16.4301C16.9647 16.313 15.0086 15.2 13.7066 13.5142C13.4783 13.9242 13.3487 14.4059 13.3487 14.9136C13.3487 15.8834 13.8115 16.7426 14.5273 17.2307C14.0892 17.2307 13.6819 17.1005 13.324 16.9053V16.9248C13.324 18.2786 14.2373 19.4112 15.4467 19.665C15.0584 19.7771 14.6508 19.7927 14.2558 19.7106C14.4234 20.2654 14.7516 20.7509 15.1944 21.0988C15.6371 21.4467 16.1721 21.6396 16.7241 21.6502C15.7883 22.4315 14.6285 22.8539 13.4351 22.8478C13.2253 22.8478 13.0155 22.8348 12.8057 22.8087C13.9781 23.6028 15.3727 24.0649 16.866 24.0649C21.7285 24.0649 24.4004 19.8082 24.4004 16.1177C24.4004 15.994 24.4004 15.8769 24.3942 15.7532C24.9126 15.3627 25.3569 14.868 25.7148 14.3018Z" fill="white"/>
</svg>
