<svg width="39" height="38" viewBox="0 0 39 38" fill="none" xmlns="http://www.w3.org/2000/svg">
<circle cx="19.3186" cy="18.9026" r="18.4026" fill="#F67C01" stroke="#F67C01"/>
<g clip-path="url(#clip0_5517_375)">
<path d="M22.7259 21.7254H22.0098V21.2951C22.0098 21.0656 22.1243 20.9508 22.3535 20.9508H22.3822C22.6113 20.9508 22.7259 21.0656 22.7259 21.2951V21.7254ZM20.0046 20.8074C19.7754 20.8074 19.6608 20.903 19.6608 21.0943V23.1311C19.6608 23.3224 19.7754 23.418 20.0046 23.418C20.2337 23.418 20.3483 23.3224 20.3483 23.1311V21.0943C20.3483 20.903 20.2337 20.8074 20.0046 20.8074ZM24.416 19.6598V23.5615C24.416 24.0396 24.2394 24.4413 23.8861 24.7664C23.5328 25.0915 23.1079 25.2541 22.6113 25.2541H15.2207C14.7242 25.2541 14.2993 25.0915 13.946 24.7664C13.5927 24.4413 13.416 24.0396 13.416 23.5615V19.6598C13.416 19.2008 13.5927 18.804 13.946 18.4693C14.2993 18.1346 14.7242 17.9672 15.2207 17.9672H22.6113C23.1079 17.9672 23.5328 18.1346 23.8861 18.4693C24.2394 18.804 24.416 19.2008 24.416 19.6598ZM15.7077 23.9918V19.8893H16.6243V19.2869L14.1895 19.2582V19.8607H14.9342V23.9918H15.7077ZM18.4577 20.4918H17.6842V23.2172C17.6461 23.3128 17.5792 23.375 17.4837 23.4037C17.3882 23.4324 17.3118 23.3798 17.2546 23.2459V22.7008L17.2259 20.4918H16.4811V23.3607C16.5193 23.6858 16.5862 23.877 16.6816 23.9344C16.8535 24.0492 17.0684 24.054 17.3262 23.9488C17.584 23.8436 17.7606 23.7049 17.8561 23.5328V23.9918H18.4577V20.4918ZM20.8926 23.0164V21.1803C20.8926 20.8169 20.778 20.5683 20.5488 20.4344C20.3197 20.3005 20.0332 20.3675 19.6895 20.6352V19.2869H18.916V23.9631H19.5462L19.6035 23.6475C20.0046 23.9918 20.3244 24.0874 20.5632 23.9344C20.8019 23.7814 20.9117 23.4754 20.8926 23.0164ZM23.2988 22.7582H22.7259V23.1598C22.7259 23.3702 22.6209 23.4754 22.4108 23.4754H22.2962C22.0862 23.4754 21.9811 23.3702 21.9811 23.1598V22.3279H23.2988V21.8402C23.2988 21.3429 23.2893 21.0273 23.2702 20.8934C23.2129 20.5874 23.0076 20.3962 22.6543 20.3197C22.301 20.2432 22.0098 20.291 21.7806 20.4631C21.6278 20.597 21.5228 20.7404 21.4655 20.8934C21.4082 21.0847 21.3796 21.3429 21.3796 21.668V22.7582C21.3796 23.4658 21.6469 23.877 22.1816 23.9918C22.64 24.0874 22.9742 23.9344 23.1842 23.5328C23.3179 23.3224 23.3561 23.0642 23.2988 22.7582ZM20.3483 16.8484C20.3865 16.944 20.4533 17.0205 20.5488 17.0779C20.6252 17.1352 20.7303 17.1639 20.8639 17.1639C20.9785 17.1639 21.074 17.1352 21.1504 17.0779C21.2268 17.0205 21.2936 16.9344 21.3509 16.8197V17.1066H22.2103V13.4631H21.5228V16.3033C21.5228 16.4945 21.4273 16.5902 21.2363 16.5902C21.0645 16.5902 20.9785 16.4945 20.9785 16.3033V13.4631H20.2624V15.9303C20.2624 16.2746 20.2719 16.485 20.291 16.5615C20.291 16.638 20.3101 16.7336 20.3483 16.8484ZM17.7702 14.8115C17.7702 14.4672 17.7988 14.1899 17.8561 13.9795C17.9134 13.8074 18.0184 13.6544 18.1712 13.5205C18.324 13.4057 18.515 13.3484 18.7441 13.3484C18.9542 13.3484 19.1261 13.3866 19.2598 13.4631C19.3934 13.5205 19.4985 13.6161 19.5749 13.75C19.6513 13.8456 19.7086 13.9699 19.7467 14.1229C19.7658 14.2186 19.7754 14.4194 19.7754 14.7254V15.6434C19.7754 16.026 19.7658 16.2746 19.7467 16.3893C19.7276 16.5232 19.6704 16.6667 19.5749 16.8197C19.5176 16.9153 19.4125 17.0205 19.2598 17.1352C19.107 17.1926 18.9542 17.2213 18.8014 17.2213C18.6105 17.2213 18.4386 17.1926 18.2858 17.1352C18.1521 17.0779 18.0471 16.9918 17.9707 16.877C17.8943 16.724 17.8466 16.5902 17.8275 16.4754C17.7893 16.2841 17.7702 16.0451 17.7702 15.7582V14.8115ZM18.429 16.2459C18.429 16.3415 18.4625 16.4276 18.5293 16.5041C18.5961 16.5806 18.6773 16.6188 18.7728 16.6188C19.002 16.6188 19.1165 16.4945 19.1165 16.2459V14.3238C19.1165 14.0751 19.002 13.9508 18.7728 13.9508C18.5436 13.9508 18.429 14.0751 18.429 14.3238V16.2459ZM16.0801 17.2213H16.8822V14.4385L17.8275 12.0574H16.9681L16.4525 13.8361L15.9368 12.0574H15.0775L16.0801 14.4385V17.2213Z" fill="white"/>
</g>
<defs>
<clipPath id="clip0_5517_375">
<rect width="11" height="14" fill="white" transform="translate(13.416 12)"/>
</clipPath>
</defs>
</svg>
